<svg width="80" height="80" viewBox="0 0 80 80" fill="none" xmlns="http://www.w3.org/2000/svg">
<path d="M42.0002 66.6665H39.3335V69.3332H42.0002V66.6665Z" fill="white"/>
<path d="M76.6665 69.3335H73.9998V21.3335C73.9998 18.388 71.612 16.0002 68.6665 16.0002H56.6665V10.6668C56.6665 7.72133 54.2787 5.3335 51.3332 5.3335H12.6665C9.721 5.3335 7.33317 7.72133 7.33317 10.6668V48.0002H1.99984C1.2635 48.0002 0.666504 48.5972 0.666504 49.3335V52.0002C0.666504 54.9457 3.05434 57.3335 5.99984 57.3335H7.33317V69.3335H4.6665C3.93017 69.3335 3.33317 69.9305 3.33317 70.6668V74.6668C3.33317 77.6123 5.721 80.0002 8.6665 80.0002H72.6665C75.612 80.0002 77.9998 77.6123 77.9998 74.6668V70.6668C77.9998 69.9305 77.4028 69.3335 76.6665 69.3335ZM56.6665 18.6668H68.6665C70.1393 18.6668 71.3332 19.8607 71.3332 21.3335V69.3335H52.6665C52.3128 69.3335 51.9738 69.4742 51.7238 69.7242L49.4478 72.0002H31.8852L29.6092 69.7242C29.3592 69.4742 29.0202 69.3335 28.6665 69.3335H9.99984V57.3335H13.9998V62.6668C13.9998 63.4032 14.5968 64.0002 15.3332 64.0002H65.9998C66.7362 64.0002 67.3332 63.4032 67.3332 62.6668V24.0002C67.3332 23.2638 66.7362 22.6668 65.9998 22.6668H56.6665V18.6668ZM48.6665 10.6668C48.6665 9.194 49.8603 8.00016 51.3332 8.00016C52.806 8.00016 53.9998 9.194 53.9998 10.6668V29.3335H48.6665V10.6668ZM48.6665 52.0002V32.0002H60.6665V29.3335H56.6665V25.3335H64.6665V61.3335H16.6665V57.3335H43.3332C46.2787 57.3335 48.6665 54.9457 48.6665 52.0002ZM9.99984 10.6668C9.99984 9.194 11.1937 8.00016 12.6665 8.00016H46.7412C46.2613 8.80733 46.0053 9.72783 45.9998 10.6668V52.0002C45.9998 53.473 44.806 54.6668 43.3332 54.6668C41.8603 54.6668 40.6665 53.473 40.6665 52.0002V49.3335C40.6665 48.5972 40.0695 48.0002 39.3332 48.0002H9.99984V10.6668ZM5.99984 54.6668C4.527 54.6668 3.33317 53.473 3.33317 52.0002V50.6668H37.9998V52.0002C37.9983 52.9367 38.2455 53.857 38.7158 54.6668H5.99984ZM75.3332 74.6668C75.3332 76.1397 74.1393 77.3335 72.6665 77.3335H8.6665C7.19367 77.3335 5.99984 76.1397 5.99984 74.6668V72.0002H28.1145L30.3905 74.2762C30.6405 74.5262 30.9795 74.6668 31.3332 74.6668H49.9998C50.3535 74.6668 50.6925 74.5262 50.9425 74.2762L53.2185 72.0002H75.3332V74.6668Z" fill="white"/>
<path d="M19.3333 14.6667V12H16.6667V14.6667H14V17.3333H16.6667V20H19.3333V17.3333H22V14.6667H19.3333Z" fill="white"/>
<path d="M42.0002 12H39.3335V14.6667H42.0002V12Z" fill="white"/>
<path d="M42.0002 17.3335H39.3335V20.0002H42.0002V17.3335Z" fill="white"/>
<path d="M19.3332 24H16.6665V26.6667H19.3332V24Z" fill="white"/>
<path d="M42 24H22V26.6667H42V24Z" fill="white"/>
<path d="M42 29.3335H14V32.0002H42V29.3335Z" fill="white"/>
<path d="M42 34.6665H14V37.3332H42V34.6665Z" fill="white"/>
<path d="M36.6667 40H14V42.6667H36.6667V40Z" fill="white"/>
<path d="M79.3332 36H76.6665V61.3333H79.3332V36Z" fill="white"/>
<path d="M79.3332 30.6665H76.6665V33.3332H79.3332V30.6665Z" fill="white"/>
<path d="M11.3333 0C6.18117 0.00583333 2.00583 4.18117 2 9.33333V29.3333H4.66667V9.33333C4.671 5.65333 7.65333 2.671 11.3333 2.66667H12.6667V0H11.3333Z" fill="white"/>
<path d="M4.66667 32H2V34.6667H4.66667V32Z" fill="white"/>
</svg>
