<svg width="80" height="80" viewBox="0 0 80 80" fill="none" xmlns="http://www.w3.org/2000/svg">
<path d="M68.4939 23.8331C67.3717 18.0337 62.2911 13.7779 56.2827 13.7779C55.6483 13.7779 55.0018 13.8306 54.3516 13.935C50.5072 7.63593 43.646 3.75781 36.2426 3.75781C25.8303 3.75781 17.0522 11.2558 15.3384 21.3939C14.79 21.3268 14.2412 21.2931 13.6972 21.2931C6.14452 21.2929 0 27.4375 0 34.9901C0 42.5426 6.14452 48.6871 13.697 48.6871H23.7171C24.3643 48.6871 24.889 48.1624 24.889 47.5152C24.889 46.868 24.3643 46.3433 23.7171 46.3433H13.697C7.43686 46.3433 2.34375 41.2502 2.34375 34.9901C2.34375 28.7298 7.43686 23.6368 13.697 23.6368C14.487 23.6368 15.2909 23.7232 16.0864 23.8937C16.4103 23.9631 16.7487 23.8921 17.0173 23.6982C17.2861 23.5045 17.4603 23.2059 17.4965 22.8764C18.5526 13.3131 26.6115 6.1014 36.2421 6.1014C43.081 6.1014 49.4004 9.8228 52.7341 15.8134C52.9876 16.269 53.5121 16.5022 54.0199 16.3859C54.7852 16.2104 55.5465 16.1215 56.2824 16.1215C61.4383 16.1215 65.7524 19.9823 66.3175 25.102C66.383 25.6962 66.8852 26.1453 67.4822 26.1453C67.4847 26.1453 67.4872 26.1453 67.4896 26.1453C67.5205 26.1451 67.5513 26.1439 67.5838 26.1417C73.1406 26.1573 77.6561 30.6824 77.6561 36.2426C77.6561 41.8121 73.1249 46.3433 67.5553 46.3433H47.4344V40.9795C48.8888 40.489 49.9394 39.1129 49.9394 37.4951V22.4648C49.9394 20.4373 48.2899 18.7879 46.2626 18.7879H31.2324C29.2049 18.7879 27.5556 20.4373 27.5556 22.4648V37.4951C27.5556 39.1129 28.6062 40.4888 30.0606 40.9795V46.3433H28.7276C28.0804 46.3433 27.5557 46.868 27.5557 47.5152C27.5557 48.1624 28.0804 48.6871 28.7276 48.6871H30.0606V53.8585H22.1915C21.7011 52.4041 20.325 51.3535 18.7072 51.3535C16.6797 51.3535 15.0303 53.003 15.0303 55.0304C15.0303 57.0577 16.6798 58.7072 18.7072 58.7072C20.325 58.7072 21.7011 57.6566 22.1915 56.2022H30.0606V61.5661C28.6062 62.0566 27.5556 63.4327 27.5556 65.0505C27.5556 67.078 29.2051 68.7274 31.2324 68.7274C33.2598 68.7274 34.9093 67.0778 34.9093 65.0505C34.9093 63.4327 33.8587 62.0566 32.4043 61.5661V48.6871H37.5757V69.0813C36.1213 69.5717 35.0707 70.9478 35.0707 72.5656C35.0707 74.5931 36.7202 76.2425 38.7476 76.2425C40.7749 76.2425 42.4244 74.593 42.4244 72.5656C42.4244 70.9478 41.3738 69.5719 39.9195 69.0813V48.6871H45.0909V61.5661C43.6365 62.0566 42.5859 63.4327 42.5859 65.0505C42.5859 67.078 44.2354 68.7274 46.2627 68.7274C48.2901 68.7274 49.9396 67.0778 49.9396 65.0505C49.9396 63.4327 48.889 62.0566 47.4346 61.5661V56.2022H55.3036C55.7941 57.6566 57.1702 58.7072 58.788 58.7072C60.8155 58.7072 62.465 57.0577 62.465 55.0304C62.465 53.003 60.8155 51.3535 58.788 51.3535C57.1702 51.3535 55.7943 52.4041 55.3036 53.8585H47.4346V48.6871H67.5555C74.4175 48.6871 80 43.1045 80 36.2426C79.9998 29.6964 74.9189 24.3145 68.4939 23.8331ZM18.7072 56.3635C17.972 56.3635 17.374 55.7654 17.374 55.0304C17.374 54.2954 17.9722 53.6972 18.7072 53.6972C19.4423 53.6972 20.0404 54.2954 20.0404 55.0304C20.0404 55.7654 19.4423 56.3635 18.7072 56.3635ZM32.5654 65.0505C32.5654 65.7855 31.9674 66.3836 31.2323 66.3836C30.4971 66.3836 29.8992 65.7855 29.8992 65.0505C29.8992 64.3153 30.4973 63.7174 31.2323 63.7174C31.9673 63.7174 32.5654 64.3155 32.5654 65.0505ZM37.5756 46.3433H32.4042V41.172H37.5756V46.3433ZM40.0805 72.5656C40.0805 73.3006 39.4824 73.8988 38.7474 73.8988C38.0123 73.8988 37.4143 73.3006 37.4143 72.5656C37.4143 71.8306 38.0124 71.2325 38.7474 71.2325C39.4824 71.2325 40.0805 71.8306 40.0805 72.5656ZM45.0907 46.3433H39.9193V41.172H45.0907V46.3433ZM39.9191 38.8282V36.162H43.7573C44.4044 36.162 44.9291 35.6373 44.9291 34.9901V29.9799C44.9291 29.3328 44.4044 28.8081 43.7573 28.8081C43.1101 28.8081 42.5854 29.3328 42.5854 29.9799V33.8182H34.909V26.1418H43.7573C44.4044 26.1418 44.9291 25.6171 44.9291 24.97C44.9291 24.3228 44.4044 23.7981 43.7573 23.7981H33.7371C33.0899 23.7981 32.5653 24.3228 32.5653 24.97V34.9901C32.5653 35.6373 33.0899 36.162 33.7371 36.162H37.5752V38.8282H31.232C30.4968 38.8282 29.8988 38.2301 29.8988 37.4951V22.4648H29.8992C29.8992 21.7297 30.4973 21.1317 31.2323 21.1317H46.2624C46.9976 21.1317 47.5955 21.7298 47.5955 22.4648V37.4951C47.5955 38.2302 46.9974 38.8282 46.2624 38.8282H39.9191ZM47.5957 65.0505C47.5957 65.7855 46.9976 66.3836 46.2626 66.3836C45.5274 66.3836 44.9294 65.7855 44.9294 65.0505C44.9294 64.3153 45.5276 63.7174 46.2626 63.7174C46.9976 63.7174 47.5957 64.3155 47.5957 65.0505ZM58.7877 53.6971C59.5229 53.6971 60.121 54.2952 60.121 55.0302C60.121 55.7652 59.5229 56.3633 58.7877 56.3633C58.0525 56.3633 57.4546 55.7652 57.4546 55.0302C57.4546 54.2952 58.0525 53.6971 58.7877 53.6971Z" fill="white"/>
</svg>
