<svg width="496" height="545" viewBox="0 0 496 545" fill="none" xmlns="http://www.w3.org/2000/svg">
<path opacity="0.8" d="M18.7177 446.196L105.214 396.231C106.356 395.571 107.948 395.378 109.427 395.555C110.907 395.378 112.482 395.555 113.64 396.231L239.228 469.296C241.029 470.342 240.997 472.047 239.212 473.077L152.716 523.042C151.847 523.54 150.738 523.782 149.612 523.782H147.425C146.283 523.782 145.158 523.54 144.273 523.042L18.6855 449.976C16.9006 448.93 16.9006 447.241 18.7177 446.196Z" fill="#482E72"/>
<path d="M237.523 466.964L237.54 470.84C237.54 471.532 237.089 472.224 236.173 472.755L149.676 522.72C147.859 523.766 144.949 523.766 143.148 522.72L17.5596 449.654C16.6591 449.14 16.2089 448.448 16.2089 447.772L16.1928 443.895L237.523 466.964Z" fill="url(#paint0_linear)"/>
<path d="M17.5759 441.981C15.7588 443.027 15.7427 444.716 17.5598 445.761L143.148 518.827C144.949 519.873 147.859 519.873 149.676 518.827L236.173 468.862C237.958 467.832 238.006 466.127 236.189 465.081L110.601 392.016C108.8 390.97 105.857 390.986 104.072 392.016L17.5759 441.981Z" fill="url(#paint1_linear)"/>
<path d="M188.752 497.126C188.784 497.046 188.832 496.965 188.896 496.885C188.945 496.837 188.993 496.788 189.057 496.74L195.891 492.799C196.004 492.734 196.1 492.734 196.165 492.767L199.381 494.633C198.336 496.804 194.187 500.183 192.016 501.695L188.8 499.829C188.736 499.796 188.687 499.7 188.687 499.587V497.4C188.687 497.319 188.72 497.223 188.752 497.126Z" fill="url(#paint2_linear)"/>
<path d="M192.29 498.622L199.124 494.681C199.333 494.552 199.51 494.665 199.51 494.906V497.094C199.51 497.335 199.349 497.625 199.124 497.754L192.29 501.695C192.081 501.823 191.904 501.727 191.904 501.486V499.298C191.904 499.04 192.081 498.751 192.29 498.622Z" fill="#1C111C"/>
<path d="M196.904 497.174L273.415 541.364C275.698 542.683 278.513 542.683 280.796 541.364L409.922 466.787C410.42 466.497 410.468 466.031 410.468 465.837C410.468 465.644 410.42 465.178 409.922 464.888L328.764 418.028C328.137 417.658 327.912 416.854 328.281 416.21C328.651 415.567 329.455 415.358 330.098 415.728L411.256 462.604C412.43 463.28 413.122 464.502 413.122 465.854C413.122 467.205 412.414 468.411 411.256 469.087L282.131 543.665C280.587 544.566 278.85 545 277.114 545C275.377 545 273.64 544.549 272.096 543.665L195.586 499.475C194.203 498.686 195.715 496.483 196.904 497.174Z" fill="#231423"/>
<path d="M225.624 463.489L107.819 395.458L24.1848 443.767L141.974 511.797L225.624 463.489Z" fill="#807AE9"/>
<path d="M24.8924 443.767L141.974 511.395L224.917 463.489L107.835 395.861L24.8924 443.767Z" fill="#231423"/>
<g opacity="0.3">
<path opacity="0.3" d="M190.89 460.127L190.263 459.773L199.767 454.287L190.263 448.802L190.89 448.448L201.005 454.287L190.89 460.127Z" fill="#56435B"/>
<path opacity="0.3" d="M136.153 491.029L136.78 491.383L126.665 497.223L116.535 491.383L117.162 491.029L126.665 496.515L136.153 491.029Z" fill="#56435B"/>
<path opacity="0.3" d="M118.239 406.478L117.612 406.832L108.124 401.346L98.6207 406.832L97.9936 406.478L108.124 400.638L118.239 406.478Z" fill="#56435B"/>
<path opacity="0.3" d="M35.0072 443.574L44.5107 449.059L43.8836 449.429L33.769 443.574L43.8836 437.734L44.5107 438.088L35.0072 443.574Z" fill="#56435B"/>
</g>
<path d="M170.308 477.5L179.908 483.05C180.599 483.452 180.599 484.096 179.908 484.482C179.216 484.884 178.107 484.884 177.415 484.482L167.815 478.932L170.308 477.5Z" fill="#7B91FF"/>
<path opacity="0.3" d="M133.05 500.585L141.829 505.652C142.312 505.925 143.084 505.925 143.566 505.652L147.731 503.255C148.213 502.982 148.213 502.531 147.731 502.258L138.951 497.19C138.469 496.917 137.697 496.917 137.214 497.19L133.05 499.587C132.583 499.861 132.583 500.311 133.05 500.585ZM145.657 492.3L149.821 489.903C150.304 489.63 151.076 489.63 151.558 489.903L160.338 494.97C160.82 495.244 160.82 495.694 160.338 495.968L156.173 498.365C155.691 498.638 154.919 498.638 154.436 498.365L145.657 493.297C145.174 493.024 145.174 492.574 145.657 492.3ZM188.527 467.543L192.692 465.146C193.174 464.872 193.946 464.872 194.428 465.146L203.208 470.213C203.691 470.487 203.691 470.937 203.208 471.211L199.044 473.607C198.561 473.881 197.789 473.881 197.307 473.607L188.527 468.54C188.045 468.267 188.045 467.816 188.527 467.543ZM201.118 460.272L205.283 457.875C205.765 457.601 206.537 457.601 207.019 457.875L215.799 462.942C216.282 463.215 216.282 463.666 215.799 463.939L211.635 466.336C211.152 466.61 210.38 466.61 209.898 466.336L201.118 461.269C200.635 460.995 200.635 460.545 201.118 460.272Z" fill="#56435B"/>
<g opacity="0.8">
<path opacity="0.8" d="M345.809 463.441L348.318 464.937L342.545 466.352L360.716 477.146L366.488 475.731L368.965 477.195L274.927 500.247L272.434 498.767L287.1 495.164L268.929 484.369L254.263 487.973L251.755 486.477L345.809 463.441ZM356.293 478.224L338.123 467.43L328.844 469.698L347.015 480.493L356.293 478.224ZM342.448 481.619L324.277 470.824L315.015 473.093L333.186 483.887L342.448 481.619ZM328.619 485.013L310.448 474.219L301.186 476.487L319.357 487.281L328.619 485.013ZM314.79 488.391L296.619 477.597L287.341 479.865L305.512 490.659L314.79 488.391ZM291.682 494.054L300.945 491.785L282.774 480.991L273.512 483.259L291.682 494.054Z" fill="#482E72"/>
<path opacity="0.8" d="M182.078 409.148L210.509 392.724L129.849 346.024C128.836 345.445 129.254 343.901 130.428 343.901H256.917L496 482.005L493.025 483.726H370.187C368.563 483.726 366.955 483.292 365.54 482.487L284.189 435.402L259.94 449.413C257.367 450.909 254.022 451.681 250.629 451.762H240.675C237.202 451.697 233.777 450.909 231.156 449.381L182.062 420.843C176.531 417.61 176.531 412.349 182.078 409.148Z" fill="#482E72"/>
</g>
<path d="M304.852 414.151L304.868 418.012L250.565 449.365C245.017 452.566 236.028 452.582 230.48 449.365L181.29 420.763C178.541 419.17 177.174 417.079 177.158 414.988L177.142 411.127L304.852 414.151Z" fill="url(#paint3_linear)"/>
<path d="M181.355 405.271C175.823 408.472 175.807 413.717 181.339 416.934L230.432 445.472C235.964 448.689 245.017 448.705 250.565 445.504L303.807 414.762C304.273 414.489 304.273 413.813 303.807 413.54L235.658 373.918L181.355 405.271Z" fill="url(#paint4_linear)"/>
<path d="M280.378 369.736L211.039 329.567L232.442 375.768L301.781 415.937L280.378 369.736Z" fill="#BC89F0"/>
<path d="M282.918 366.76L280.378 369.736L301.781 415.937L303.26 415.744L304.852 414.167L282.918 366.76Z" fill="#443FCF"/>
<path opacity="0.6" d="M271.791 433.262L202.34 393.158L232.442 375.768C232.426 375.768 211.023 329.567 211.023 329.567L280.378 369.736L282.918 366.76L304.852 414.151L304.868 418.012L271.791 437.123V433.262V433.262Z" fill="#843FCF"/>
<path d="M116.165 77.9399C116.792 77.6986 117.532 77.7468 118.271 78.1651L388.261 227.884C389.998 228.849 391.172 231.342 390.866 233.417L358.641 453.467C358.464 454.625 357.869 455.429 357.081 455.735L355.361 456.411L114.444 78.6155L116.165 77.9399Z" fill="url(#paint5_linear)"/>
<path d="M356.792 212.054L386.556 228.559C387.184 228.913 387.698 229.508 388.148 230.168L356.792 212.054Z" fill="#BC89F0"/>
<path d="M362.339 417.143L356.92 454.143C356.615 456.218 354.958 457.135 353.222 456.169L83.2318 306.451C81.5112 305.502 80.3534 303.008 80.6589 300.933L86.2549 262.76C86.5926 260.507 89.0851 259.301 91.0469 260.443L362.339 417.143Z" fill="#BC89F0"/>
<path d="M112.884 80.8837C113.19 78.8086 114.846 77.8916 116.567 78.8407L386.557 228.559C388.293 229.524 389.451 232.018 389.162 234.093L361.568 422.532L86.1748 263.467L112.884 80.8837Z" fill="#181019"/>
<path d="M212.502 353.617C212.727 352.7 212.711 351.735 212.566 350.77C213.097 350.882 213.628 351.043 214.174 351.333C217.214 352.973 219.015 356.995 218.194 360.293C217.39 363.591 214.271 364.926 211.232 363.285C209.045 362.095 207.533 359.666 207.147 357.172C209.608 357.687 211.843 356.32 212.502 353.617Z" fill="#3B223A"/>
<path opacity="0.2" d="M75.015 267.119L353.881 428.195V245.289L75.015 84.2137V267.119Z" fill="#B394FF"/>
<path d="M75.015 243.874L353.881 404.95V245.289L75.015 84.2137V243.874Z" fill="#48384C"/>
<path d="M75.015 85.9832L353.881 247.059V234.447L75.015 73.3713V85.9832Z" fill="#6C3ABB"/>
<g opacity="0.5">
<path opacity="0.5" d="M77.3629 77.1677C77.6684 76.9908 78.1026 77.023 78.5368 77.2804L84.197 80.5459C84.9367 80.9803 85.5156 81.8972 85.5156 82.6533V88.3158C85.5156 88.7019 85.3709 89.0075 85.0815 89.1684C84.9528 89.2488 84.8081 89.281 84.6473 89.281C84.4222 89.281 84.1649 89.2006 83.9237 89.0558L78.2634 85.7902C77.5237 85.3559 76.9448 84.4389 76.9448 83.6828V78.0203C76.9448 77.6182 77.0895 77.3286 77.3629 77.1677Z" fill="#4B1F8F"/>
<path opacity="0.5" d="M88.1686 82.8303L93.8289 86.0958C94.5686 86.5302 95.1475 87.4471 95.1475 88.2032V93.8657C95.1475 94.2518 95.0027 94.5574 94.7294 94.7183C94.6007 94.7987 94.456 94.8309 94.2952 94.8309C94.0701 94.8309 93.8128 94.7505 93.5716 94.6057L87.9113 91.3401C87.1716 90.9057 86.5927 89.9888 86.5927 89.2327V83.5702C86.5927 83.1842 86.7374 82.8785 87.0269 82.7176C87.3163 82.5407 87.7344 82.589 88.1686 82.8303Z" fill="#4B1F8F"/>
<path opacity="0.5" d="M97.8009 88.3962L103.461 91.6618C104.201 92.0962 104.78 93.0131 104.78 93.7692V99.4317C104.78 99.8178 104.635 100.123 104.346 100.284C104.217 100.365 104.072 100.397 103.911 100.397C103.686 100.397 103.429 100.316 103.188 100.172L97.5275 96.9061C96.7878 96.4717 96.2089 95.5548 96.2089 94.7987V89.1362C96.2089 88.7501 96.3536 88.4445 96.6431 88.2836C96.9486 88.1067 97.3667 88.1549 97.8009 88.3962Z" fill="#4B1F8F"/>
</g>
<path d="M77.4916 83.6667C77.4916 84.2137 77.9741 84.9697 78.5369 85.2915L84.1972 88.5571C84.4545 88.7018 84.6796 88.7501 84.8082 88.6697C84.9369 88.5892 84.953 88.4123 84.953 88.2997V82.6372C84.953 82.0902 84.4706 81.3342 83.9078 81.0124L78.2474 77.7468C78.0866 77.6503 77.9258 77.6021 77.7972 77.6021C77.7328 77.6021 77.6685 77.6181 77.6364 77.6342C77.5077 77.7147 77.4916 77.8916 77.4916 78.0042V83.6667ZM87.1238 89.2327C87.1238 89.7797 87.6062 90.5357 88.169 90.8575L93.8293 94.123C94.0866 94.2678 94.3118 94.3161 94.4404 94.2357C94.569 94.1552 94.5851 93.9783 94.5851 93.8657V88.2032C94.5851 87.6562 94.1027 86.9001 93.5399 86.5784L87.8796 83.3128C87.7188 83.2163 87.558 83.168 87.4293 83.168C87.365 83.168 87.3168 83.1841 87.2686 83.2002C87.1399 83.2806 87.1238 83.4576 87.1238 83.5702V89.2327ZM96.756 94.7987C96.756 95.3617 97.2384 96.1017 97.8012 96.4234L103.462 99.689C103.719 99.8338 103.944 99.8821 104.073 99.8016C104.201 99.7212 104.217 99.5443 104.217 99.4317V93.7691C104.217 93.2061 103.735 92.4661 103.172 92.1444L97.5118 88.8788C97.351 88.7823 97.1902 88.734 97.0615 88.734C96.9972 88.734 96.9489 88.7501 96.9007 88.7662C96.7721 88.8466 96.756 89.0236 96.756 89.1362V94.7987Z" fill="#6B3DB6"/>
<path opacity="0.7" d="M80.9644 93.0131L98.0579 102.922C98.0579 102.89 347.513 247.011 347.513 247.011V256.47L115.971 122.741V258.947L98.0579 248.603L80.9644 238.726V93.0131Z" fill="#362938"/>
<path d="M116.004 121.873L346.661 255.086V247.365L116.004 114.151V121.873Z" fill="#48384C"/>
<path opacity="0.7" d="M347.529 392.675V260.491L334.183 252.786V384.97L347.529 392.675Z" fill="#362938"/>
<path d="M335.051 384.6L346.661 391.292V260.861L335.051 254.169V384.6Z" fill="#48384C"/>
<path d="M336.482 263.178L345.294 268.277V261.553L336.482 256.47V263.178Z" fill="#57435B"/>
<path d="M335.887 247.445L345.358 252.915V247.815L335.887 242.346V247.445Z" fill="#57435B"/>
<path d="M323.955 240.56L333.427 246.029V240.93L323.955 235.46V240.56Z" fill="#57435B"/>
<path d="M312.024 233.659L321.495 239.128V234.029L312.024 228.559V233.659Z" fill="#57435B"/>
<path d="M300.092 226.774L309.563 232.243V227.144L300.092 221.674V226.774Z" fill="#57435B"/>
<path d="M288.144 219.872L297.616 225.342V220.243L288.144 214.773V219.872Z" fill="#57435B"/>
<path d="M276.213 212.987L285.684 218.457V213.341L276.213 207.872V212.987Z" fill="#57435B"/>
<path d="M264.281 206.086L273.752 211.556V206.456L264.281 200.987V206.086Z" fill="#57435B"/>
<path d="M252.349 199.201L261.821 204.671V199.555L252.349 194.086V199.201Z" fill="#57435B"/>
<path d="M120.024 122.773L161.189 146.55V141.45L120.024 117.674V122.773Z" fill="#57435B"/>
<path d="M336.482 273.779L345.294 278.878V272.154L336.482 267.071V273.779Z" fill="#57435B"/>
<path d="M336.482 284.38L345.294 289.479V282.755L336.482 277.672V284.38Z" fill="#57435B"/>
<path d="M336.482 294.981L345.294 300.081V293.356L336.482 288.273V294.981Z" fill="#57435B"/>
<path d="M336.482 305.582L345.294 310.682V303.957L336.482 298.874V305.582Z" fill="#57435B"/>
<path d="M336.482 316.183L345.294 321.283V314.559L336.482 309.475V316.183Z" fill="#57435B"/>
<path d="M336.482 326.784L345.294 331.884V325.16L336.482 320.076V326.784Z" fill="#57435B"/>
<path d="M336.482 351.027L345.294 356.127V349.418L336.482 344.319V351.027Z" fill="#57435B"/>
<path d="M336.482 361.628L345.294 366.728V360.02L336.482 354.92V361.628Z" fill="#57435B"/>
<path d="M336.482 372.245L345.294 377.329V370.621L336.482 365.521V372.245Z" fill="#57435B"/>
<path d="M98.9423 149.22V187.233L115.119 196.579V158.55L98.9423 149.22ZM98.9423 125.798V104.274L115.119 113.62V135.16L98.9423 125.798ZM98.9423 226.162V188.15L115.119 197.496V235.509L98.9423 226.162ZM115.119 236.426V257.58L98.9423 248.233V227.095L115.119 236.426ZM115.119 136.061V157.633L98.9423 148.287V126.731L115.119 136.061Z" fill="#48384C"/>
<path d="M98.0098 186.686L81.849 177.339V139.343L98.0098 148.673V186.686Z" fill="#48384C"/>
<path d="M98.0098 103.743V125.267L81.849 115.92V94.3965L98.0098 103.743Z" fill="#48384C"/>
<path d="M98.0098 225.615L81.849 216.285V178.272L98.0098 187.603V225.615Z" fill="#48384C"/>
<path d="M98.0098 247.686L81.849 238.34V217.202L98.0098 226.548V247.686Z" fill="#48384C"/>
<path d="M98.0098 147.756L81.849 138.41V116.854L98.0098 126.184V147.756Z" fill="#48384C"/>
<path d="M112.932 115.02L101.177 108.247V124.302L112.932 131.09V115.02Z" fill="#57435B"/>
<path d="M112.932 137.509L101.177 130.736V146.791L112.932 153.563V137.509Z" fill="#57435B"/>
<path d="M112.932 237.68L101.177 230.892V246.962L112.932 253.735V237.68Z" fill="#57435B"/>
<path d="M112.932 172.739L101.177 165.966V185.721L112.932 192.509V172.739Z" fill="#57435B"/>
<path d="M112.932 198.702L101.177 191.914V224.65L112.932 231.439V198.702Z" fill="#57435B"/>
<path d="M95.8228 105.142L84.084 98.3539V114.424L95.8228 121.213V105.142Z" fill="#57435B"/>
<path d="M95.8228 127.632L84.084 120.843V136.914L95.8228 143.702V127.632Z" fill="#57435B"/>
<path d="M95.8228 227.803L84.084 221.015V237.085L95.8228 243.858V227.803Z" fill="#57435B"/>
<path d="M95.8228 162.877L84.084 156.089V175.843L95.8228 182.632V162.877Z" fill="#57435B"/>
<path d="M112.932 159.869L101.193 153.097V162.733L112.932 169.521V159.869ZM95.8226 159.628L84.0839 152.855V143.22L95.8226 150.008V159.628Z" fill="#57435B"/>
<path d="M95.8228 188.825L84.084 182.037V214.773L95.8228 221.562V188.825Z" fill="#57435B"/>
<path opacity="0.5" d="M329.568 250.405V382.026L119.719 260.877V129.192L329.568 250.405Z" fill="#362938"/>
<path d="M108.591 139.037L315.481 258.545V390.166L108.591 270.658V139.037Z" fill="white"/>
<path d="M105.632 269.017L108.977 270.948V139.262L105.632 137.332V269.017Z" fill="#48384C"/>
<path d="M107.305 146.308C107.964 146.694 108.495 146.469 108.495 145.81V141.289C108.495 140.63 107.964 139.793 107.305 139.407C106.645 139.021 106.115 139.246 106.115 139.906V144.426C106.115 145.086 106.645 145.922 107.305 146.308Z" fill="#57435B"/>
<path opacity="0.3" d="M243.361 272.163C233.789 259.432 231.864 244.721 239.061 239.306C246.258 233.891 259.852 239.821 269.423 252.552C278.995 265.284 280.92 279.994 273.723 285.409C266.526 290.824 252.932 284.894 243.361 272.163Z" fill="#9CA0B7"/>
<path opacity="0.3" d="M195.168 305.373L232.072 326.688V289.769L195.168 268.47V305.373Z" fill="#9CA0B7"/>
<path opacity="0.3" d="M190.263 255.488L165.564 198.413L140.848 226.951L190.263 255.488Z" fill="#9CA0B7"/>
<path d="M268.35 288.016C262.368 294.933 249.102 290.831 238.73 278.846C228.358 266.862 224.804 251.547 230.786 244.63C236.768 237.713 250.034 241.815 260.406 253.799C270.778 265.768 274.332 281.098 268.35 288.016Z" fill="#7D8AFF"/>
<path d="M188.334 309.33L225.222 330.645V293.726L188.334 272.412V309.33Z" fill="#8BB702"/>
<path d="M183.429 259.446L158.714 202.37L134.014 230.908L183.429 259.446Z" fill="#FF7B97"/>
<path opacity="0.5" d="M289.19 343.402L291.505 344.737L289.511 355.017L307.65 365.489L309.644 355.21L311.959 356.545L298.5 425.814L296.185 424.527L297.037 420.055L278.898 409.582L277.949 414.457L275.634 413.17L289.19 343.402ZM282.741 389.748L300.88 400.22L303.775 385.372L285.636 374.9L282.741 389.748ZM289.013 357.526L286.118 372.39L304.257 382.863L307.151 367.998L289.013 357.526ZM297.519 417.561L300.414 402.713L282.275 392.241L279.381 407.089L297.519 417.561Z" fill="#8D6AB7"/>
<path d="M253.508 488.053L256.032 487.49L261.355 464.679L258.846 465.242L253.508 488.053Z" fill="#9D59E6"/>
<path d="M259.57 462.154L262.079 461.591L266.388 443.188L263.864 443.751L259.57 462.154Z" fill="#9D59E6"/>
<path d="M278.111 472.867L280.636 472.304L262.079 461.591L259.57 462.154L278.111 472.867Z" fill="#B277EF"/>
<path d="M264.587 440.662L267.112 440.099L271.405 421.664L268.897 422.243L264.587 440.662Z" fill="#9D59E6"/>
<path d="M283.144 451.376L285.652 450.813L267.112 440.099L264.587 440.662L283.144 451.376Z" fill="#B277EF"/>
<path d="M269.62 419.138L272.129 418.575L276.438 400.172L273.914 400.735L269.62 419.138Z" fill="#9D59E6"/>
<path d="M288.161 429.852L290.686 429.289L272.129 418.575L269.62 419.138L288.161 429.852Z" fill="#B277EF"/>
<path d="M274.637 397.646L277.162 397.083L281.456 378.68L278.931 379.243L274.637 397.646Z" fill="#9D59E6"/>
<path d="M293.178 408.36L295.703 407.797L277.162 397.083L274.637 397.646L293.178 408.36Z" fill="#B277EF"/>
<path d="M279.655 376.154L282.179 375.591L286.473 357.172L283.964 357.735L279.655 376.154Z" fill="#9D59E6"/>
<path d="M284.687 354.63L287.196 354.067L290.171 341.327L287.662 341.906L284.687 354.63Z" fill="#9D59E6"/>
<path d="M287.662 341.906L290.171 341.327L287.614 339.863L285.089 340.426L287.662 341.906Z" fill="#B277EF"/>
<path d="M298.211 386.868L300.72 386.305L282.179 375.591L279.654 376.154L298.211 386.868Z" fill="#B277EF"/>
<path d="M303.228 365.36L305.753 364.781L287.196 354.067L284.688 354.63L303.228 365.36Z" fill="#B277EF"/>
<path d="M308.744 354.084L311.269 353.52L308.728 352.057L306.203 352.62L308.744 354.084Z" fill="#B277EF"/>
<path d="M274.605 500.231L277.13 499.668L311.269 353.52L308.744 354.084L274.605 500.231Z" fill="#9D59E6"/>
<path d="M287.662 341.906L285.106 340.426L250.967 486.573L253.524 488.053L258.846 465.242L277.403 475.956L272.08 498.767L274.621 500.231L308.76 354.084L306.219 352.62L303.244 365.36L284.687 354.647L287.662 341.906ZM264.587 440.662L268.896 422.243L287.453 432.956L283.144 451.376L264.587 440.662ZM279.654 376.154L283.964 357.735L302.521 368.449L298.211 386.868L279.654 376.154ZM259.57 462.154L263.863 443.751L282.42 454.464L278.127 472.867L259.57 462.154ZM274.637 397.646L278.931 379.243L297.487 389.957L293.194 408.36L274.637 397.646ZM269.62 419.138L273.914 400.735L292.47 411.449L288.177 429.852L269.62 419.138Z" fill="#CC9EFB"/>
<path d="M96.6754 382.573C97.0131 382.557 97.4151 382.67 97.8332 382.911C99.1357 383.683 100.181 385.533 100.165 387.045C100.165 387.496 100.052 387.866 99.8754 388.155L98.0744 390.938L93.3789 382.734L96.6754 382.573Z" fill="#190F19"/>
<path d="M92.559 382.959C93.2022 382.589 94.0866 382.653 95.0675 383.233C96.9972 384.375 98.5248 387.093 98.4927 389.313C98.4766 390.407 98.0907 391.163 97.4635 391.517L46.0384 421.117L41.1339 412.559L92.559 382.959Z" fill="#231423"/>
<path d="M35.5378 420.055C35.5217 420.087 36.2775 418.044 36.3418 417.915C37.3066 415.663 38.8825 413.926 41.1338 412.575C41.7931 412.189 42.6936 412.253 43.6745 412.832C45.6041 413.974 47.1318 416.693 47.0996 418.913C47.0835 420.007 46.6976 420.763 46.0705 421.117C43.6584 422.452 41.2463 422.902 38.6735 422.516C39.3649 422.645 36.7438 422.178 36.7438 422.178C36.6634 422.162 36.5509 422.13 36.4222 422.05C35.8916 421.744 35.4895 421.004 35.4895 420.393C35.4574 420.264 35.4895 420.151 35.5378 420.055Z" fill="#271927"/>
<path d="M36.4223 419.878C36.953 420.184 37.355 420.924 37.355 421.535C37.3389 422.13 36.9208 422.371 36.3902 422.066C35.8595 421.76 35.4575 421.02 35.4575 420.409C35.4736 419.798 35.9078 419.556 36.4223 419.878Z" fill="#231423"/>
<path opacity="0.3" d="M37.1137 419.251C37.6282 419.765 38.9308 419.315 40.0403 418.237C41.1499 417.159 41.6322 415.856 41.1177 415.342C40.6031 414.827 39.3006 415.277 38.191 416.355C37.0976 417.433 36.6152 418.72 37.1137 419.251Z" fill="#301F30"/>
<path d="M33.4955 421.857L35.8432 420.505C36.4221 420.168 37.001 421.358 36.5025 421.647L34.1548 422.999C34.0583 423.063 33.9457 423.079 33.8332 423.079C33.608 423.079 33.3829 422.967 33.2703 422.757C33.0774 422.436 33.1739 422.034 33.4955 421.857Z" fill="#271927"/>
<path d="M228.213 500.778C227.088 499.973 225.061 498.783 224.016 498.928C222.649 499.105 222.553 501.051 222.826 501.839C223.325 503.239 224.804 507.888 225.592 509.754C225.865 510.398 226.557 510.8 227.216 511.009C228.31 511.363 229.596 511.315 230.481 510.88C230.995 510.623 231.317 510.076 231.397 509.513C231.494 508.821 231.494 507.759 231.188 506.36C231.092 505.958 228.615 501.083 228.213 500.778Z" fill="#BC8224"/>
<path d="M228.455 499.426C228.712 499.7 229.243 502.129 230.465 504.011C230.947 504.767 231.237 505.636 231.269 506.537C231.301 507.518 231.285 508.644 231.156 508.918C230.706 509.963 228.809 510.188 227.297 509.593C226.686 509.352 226.236 508.853 225.962 508.258C225.174 506.489 223.695 502.403 223.116 500.681C222.988 500.295 222.875 499.877 223.052 499.507C223.711 498.075 226.638 497.464 228.455 499.426Z" fill="white"/>
<path d="M231.574 500.906L227.104 500.022C226.943 501.486 226.493 503.545 226.396 505.33C226.284 507.164 230.835 507.405 230.979 505.861C231.108 504.462 231.574 500.906 231.574 500.906Z" fill="#FCBE9F"/>
<path d="M250.951 503.513C253.042 501.63 265.134 498.976 266.099 498.783C267.064 498.59 267.466 499.362 267.595 500.167C267.675 500.665 267.707 501.856 267.434 502.403C266.694 503.866 262.063 505.539 257.834 506.617C256.065 507.068 254.537 507.55 253.186 507.647C251.514 507.759 250.34 507.1 250.163 506.038C250.099 505.733 250.179 504.22 250.951 503.513Z" fill="#BC8224"/>
<path d="M251.868 499.813C252.141 499.33 256.145 498.863 256.145 498.863C256.997 498.67 258.927 498.317 259.956 498.204C262.834 497.898 265.922 497.754 266.903 498.51C267.562 499.024 267.755 499.861 267.449 500.633C266.935 502 265.327 503.48 254.312 506.038C253.138 506.312 252.06 506.183 251.321 505.845C250.726 505.572 250.404 504.912 250.549 504.269C250.903 502.853 251.675 500.167 251.868 499.813Z" fill="white"/>
<path d="M256.982 496.837C257.271 498.429 257.609 500.038 257.593 500.247C257.416 502.161 251.756 502.563 251.932 500.36C251.997 499.523 252.077 497.753 252.045 496.611C252.029 496.595 256.933 496.563 256.982 496.837Z" fill="#FCBE9F"/>
<path d="M228.921 481.667C229.403 480.605 229.95 479.559 230.255 478.417C230.722 476.696 230.625 474.878 230.513 473.093C230.207 468.154 229.902 463.232 229.58 458.293C229.435 455.993 229.291 453.66 229.725 451.392C230.078 449.542 230.786 447.804 231.494 446.067C232.941 442.528 234.404 438.973 235.851 435.434C236.639 433.793 254.665 435.981 255.839 439.118C259.023 448.223 259.843 456.765 258.782 465.644C258.396 468.91 257.496 472.417 257.029 475.667C256.466 479.527 257.576 482.938 257.431 486.782C257.286 490.611 257.27 492.831 257.351 497.705C257.496 499.137 251.964 499.587 251.61 498.156C250.822 495.855 250.452 492.155 249.664 489.855C248.973 487.844 248.088 485.833 248.024 483.694C247.863 478.868 250.227 475.892 250.066 474.75C249.102 467.881 247.381 464.068 245.644 457.167C243.795 456.443 242.718 455.301 242.718 455.301C241.158 461.06 237.234 476.23 237.299 478.031C237.347 479.559 237.685 481.442 237.765 482.97C238.119 488.858 232.201 497.416 231.349 503.513C231.204 504.59 226.653 504.14 226.637 502.821C226.444 493.539 226.878 487.973 228.921 481.667Z" fill="#181019"/>
<path d="M255.791 413.797C256.017 415.197 255.663 416.596 255.325 417.964C253.363 426.361 252.608 428.581 255.695 438.957C256.821 443.139 234.549 443.107 235.53 436.222C235.627 435.595 236.27 433.503 236.318 432.876C236.366 432.2 235.514 427.841 234.807 424.189C234.099 420.473 233.536 417.449 232.989 414.714C232.427 411.883 229.596 409.952 231.221 406.96C231.912 405.657 233.424 405.014 234.855 405.336C238.65 406.156 245.725 408.666 248.877 409.631C251.578 410.451 255.357 411.062 255.791 413.797Z" fill="#691CA5"/>
<path d="M284.27 423.353C282.469 424.479 283.257 424.833 281.681 426.361C280.796 426.506 280.571 428.983 281.858 429.192C282.099 429.273 282.324 429.401 282.549 429.514C284.221 430.35 287.856 429.98 288.595 429.9C288.837 429.884 291.007 428.645 292.02 427.953C292.31 427.76 292.583 427.213 292.583 427.213C294.867 426.393 294.706 425.267 293.548 425.396C291.425 425.637 289.448 425.894 289.448 425.894C288.965 425.846 286.666 424.977 286.537 424.865C286.264 424.575 286.521 424.205 286.81 423.916C287.936 422.822 288.354 421.422 287.952 420.827C287.502 420.135 287.003 421.149 286.762 421.39C285.781 422.42 285.476 422.597 284.27 423.353Z" fill="#FCBE9F"/>
<path d="M254.81 411.995C259.216 415.39 267.096 424.897 267.096 424.897C270.167 424.833 278.963 425.09 282.517 425.074C284.109 425.074 284.607 429.723 282.839 429.868C278.368 430.688 266.871 432.039 265.021 430.929C262.642 429.498 254.232 422.87 252.543 420.843C250.855 418.8 248.571 416.194 248.812 413.556C249.086 410.725 251.739 409.631 254.81 411.995Z" fill="#691CA5"/>
<path d="M256.997 398.644C257.335 398.145 258.3 397.839 258.187 398.547C258.509 398.322 259.426 396.633 260.197 397.051C260.423 397.164 260.551 397.582 260.551 397.582C260.969 397.196 261.307 396.842 261.677 396.649C262.063 396.456 262.417 396.601 262.545 397.003C262.642 397.308 262.336 397.839 262.497 397.678C262.658 397.501 262.915 397.405 263.14 397.501C264.089 397.904 262.609 399.689 261.21 401.99C260.873 402.553 259.602 405.255 260.503 405.48C260.969 405.593 262.481 402.987 262.947 403.051C263.928 403.196 262.722 405.352 261.789 406.687C261.516 407.073 261.13 407.379 260.696 407.556C259.602 407.99 257.689 408.698 256.837 409.341C256.692 409.454 256.515 409.55 256.338 409.615C255.422 409.985 253.492 408.682 253.363 407.668C253.331 407.379 253.331 407.089 253.395 406.8C253.846 404.885 255.47 400.864 256.997 398.644Z" fill="#FCBE9F"/>
<path d="M256.917 409.406C257.624 408.489 254.698 405.497 253.234 406.767L242.428 417.69C241.705 418.43 241.029 419.202 240.418 420.023L237.62 423.498L243.023 428.806L245.966 423.16C246.304 422.597 246.674 422.05 247.076 421.519L256.917 409.406Z" fill="#691CA5"/>
<path d="M254.457 392.547C254.875 397.051 252.929 399.754 252.945 404.274C252.961 406.719 253.219 409.052 253.958 411.384C251.739 410.339 250.533 411.931 250.212 412.864C249.472 414.988 249.407 418.881 246.417 419.524C243.683 420.119 232.668 418.108 233.842 412.51C234.147 411.014 234.63 409.84 235.096 408.714C236.125 406.236 236.656 403.582 236.64 400.896C236.624 396.279 237.106 391.646 240.242 387.656C241.399 386.193 242.959 385.05 244.808 384.729C247.285 384.31 248.185 385.597 248.185 385.597C250.517 384.664 254.023 387.721 254.457 392.547Z" fill="#181019"/>
<path d="M133.869 321.379L133.918 304.826L138.05 302.413L138.002 318.966C138.002 319.948 137.648 320.639 137.085 320.961L132.953 323.374C133.532 323.052 133.869 322.361 133.869 321.379Z" fill="#E5ABFF"/>
<path d="M116.84 287.629C117.403 287.292 118.191 287.34 119.059 287.855L134.947 297.024C136.667 298.021 138.066 300.434 138.066 302.413L133.934 304.826C133.934 302.831 132.551 300.418 130.814 299.437L114.927 290.268C114.058 289.769 113.27 289.721 112.708 290.042L116.84 287.629Z" fill="url(#paint6_linear)"/>
<path opacity="0.3" d="M116.84 287.629C117.403 287.292 118.191 287.34 119.06 287.855L114.927 290.268C114.059 289.769 113.271 289.721 112.708 290.043L116.84 287.629Z" fill="#F4E4FF"/>
<path opacity="0.3" d="M134.947 297.024C136.667 298.021 138.066 300.435 138.066 302.413L133.934 304.826C133.934 302.831 132.551 300.418 130.814 299.437L134.947 297.024Z" fill="#F4E4FF"/>
<path opacity="0.8" d="M111.791 292.037C111.791 290.042 113.206 289.254 114.927 290.252L130.814 299.421C132.535 300.418 133.934 302.831 133.934 304.81L133.885 321.363C133.885 323.342 132.47 324.146 130.75 323.149L114.862 313.979C113.142 312.982 111.743 310.569 111.743 308.59L111.791 292.037Z" fill="#AE5AFF"/>
<path d="M137.584 194.134L137.632 177.581L141.765 175.168L141.716 191.721C141.716 192.702 141.363 193.394 140.8 193.716L136.667 196.129C137.23 195.823 137.568 195.131 137.584 194.134Z" fill="#E5ABFF"/>
<path d="M120.538 160.384C121.101 160.046 121.889 160.094 122.758 160.609L138.645 169.779C140.366 170.776 141.765 173.189 141.765 175.168L137.632 177.581C137.632 175.586 136.249 173.173 134.512 172.192L118.625 163.022C117.757 162.524 116.969 162.475 116.406 162.797L120.538 160.384Z" fill="url(#paint7_linear)"/>
<path opacity="0.3" d="M120.539 160.384C121.102 160.046 121.889 160.094 122.758 160.609L118.625 163.022C117.757 162.524 116.969 162.475 116.406 162.797L120.539 160.384Z" fill="#F4E4FF"/>
<path opacity="0.3" d="M138.645 169.779C140.366 170.776 141.765 173.189 141.765 175.168L137.632 177.581C137.632 175.586 136.249 173.173 134.512 172.192L138.645 169.779Z" fill="#F4E4FF"/>
<path opacity="0.8" d="M115.489 164.808C115.489 162.813 116.904 162.025 118.625 163.022L134.512 172.192C136.233 173.189 137.632 175.602 137.632 177.581L137.584 194.134C137.584 196.113 136.169 196.917 134.448 195.919L118.56 186.75C116.84 185.753 115.441 183.34 115.441 181.361L115.489 164.808Z" fill="#AE5AFF"/>
<path d="M368.274 416.21L368.322 399.657L372.455 397.244L372.406 413.797C372.406 414.779 372.053 415.47 371.49 415.792L367.357 418.205C367.92 417.883 368.274 417.192 368.274 416.21Z" fill="#E5ABFF"/>
<path d="M351.228 382.46C351.791 382.123 352.579 382.171 353.448 382.686L369.335 391.855C371.056 392.852 372.455 395.265 372.455 397.244L368.322 399.657C368.322 397.662 366.939 395.249 365.202 394.268L349.315 385.099C348.447 384.6 347.659 384.552 347.096 384.873L351.228 382.46Z" fill="url(#paint8_linear)"/>
<path opacity="0.3" d="M351.229 382.46C351.791 382.123 352.579 382.171 353.448 382.686L349.315 385.099C348.447 384.6 347.659 384.552 347.096 384.873L351.229 382.46Z" fill="#F4E4FF"/>
<path opacity="0.3" d="M369.351 391.839C371.072 392.836 372.471 395.249 372.471 397.228L368.338 399.641C368.338 397.646 366.955 395.233 365.218 394.252L369.351 391.839Z" fill="#F4E4FF"/>
<path opacity="0.8" d="M346.179 386.868C346.179 384.873 347.594 384.085 349.315 385.083L365.202 394.252C366.923 395.249 368.322 397.662 368.322 399.641L368.274 416.194C368.274 418.173 366.858 418.977 365.138 417.98L349.25 408.81C347.53 407.813 346.131 405.4 346.131 403.421L346.179 386.868Z" fill="#AE5AFF"/>
<path d="M85.8533 253.091L85.9015 236.538L90.0342 234.125L89.9859 250.678C89.9859 251.66 89.6322 252.351 89.0694 252.673L84.9367 255.086C85.5156 254.764 85.8533 254.073 85.8533 253.091Z" fill="#E5ABFF"/>
<path d="M68.8242 219.342C69.387 219.004 70.1749 219.052 71.0433 219.567L86.9307 228.736C88.6513 229.734 90.0503 232.147 90.0503 234.125L85.9176 236.538C85.9176 234.544 84.5347 232.131 82.798 231.149L66.9106 221.98C66.0423 221.481 65.2543 221.433 64.6915 221.755L68.8242 219.342Z" fill="url(#paint9_linear)"/>
<path opacity="0.3" d="M68.8243 219.342C69.3872 219.004 70.1751 219.052 71.0435 219.567L66.9108 221.98C66.0424 221.481 65.2545 221.433 64.6917 221.755L68.8243 219.342Z" fill="#F4E4FF"/>
<path opacity="0.3" d="M86.9307 228.736C88.6513 229.734 90.0503 232.147 90.0503 234.125L85.9176 236.538C85.9176 234.544 84.5347 232.131 82.798 231.149L86.9307 228.736Z" fill="#F4E4FF"/>
<path opacity="0.8" d="M63.7752 223.749C63.7752 221.755 65.1903 220.966 66.9109 221.964L82.7984 231.133C84.519 232.131 85.918 234.544 85.918 236.522L85.8697 253.075C85.8697 255.054 84.4547 255.858 82.7341 254.861L66.8466 245.692C65.126 244.694 63.727 242.281 63.727 240.303L63.7752 223.749Z" fill="#AE5AFF"/>
<path d="M71.5417 361.483L71.59 344.93L75.7227 342.517L75.6744 359.07C75.6744 360.052 75.3206 360.743 74.7578 361.065L70.6252 363.478C71.188 363.156 71.5417 362.465 71.5417 361.483Z" fill="#E5ABFF"/>
<path d="M54.4965 327.717C55.0593 327.38 55.8473 327.428 56.7156 327.943L72.6031 337.112C74.3237 338.109 75.7227 340.522 75.7227 342.501L71.59 344.914C71.59 342.919 70.2071 340.506 68.4704 339.525L52.583 330.356C51.7146 329.857 50.9267 329.809 50.3639 330.13L54.4965 327.717Z" fill="url(#paint10_linear)"/>
<path opacity="0.3" d="M54.4967 327.717C55.0595 327.38 55.8475 327.428 56.7158 327.943L52.5831 330.356C51.7148 329.857 50.9269 329.809 50.364 330.13L54.4967 327.717Z" fill="#F4E4FF"/>
<path opacity="0.3" d="M72.6192 337.112C74.3398 338.109 75.7388 340.522 75.7388 342.501L71.6061 344.914C71.6061 342.919 70.2232 340.506 68.4865 339.525L72.6192 337.112Z" fill="#F4E4FF"/>
<path opacity="0.8" d="M49.4471 332.141C49.4471 330.147 50.8622 329.358 52.5828 330.356L68.4702 339.525C70.1908 340.522 71.5898 342.935 71.5898 344.914L71.5416 361.467C71.5416 363.446 70.1265 364.25 68.4059 363.253L52.5185 354.084C50.7979 353.086 49.3989 350.673 49.3989 348.694L49.4471 332.141Z" fill="#AE5AFF"/>
<path d="M194.203 369.961L194.251 353.408L198.384 350.995L198.336 367.548C198.336 368.529 197.982 369.221 197.419 369.543L193.286 371.956C193.849 371.634 194.203 370.942 194.203 369.961Z" fill="#E5ABFF"/>
<path d="M177.158 336.211C177.721 335.873 178.508 335.922 179.377 336.436L195.264 345.606C196.985 346.603 198.384 349.016 198.384 350.995L194.251 353.408C194.251 351.413 192.868 349 191.132 348.019L175.244 338.849C174.376 338.351 173.588 338.303 173.025 338.624L177.158 336.211Z" fill="url(#paint11_linear)"/>
<path opacity="0.3" d="M177.158 336.211C177.721 335.873 178.509 335.922 179.377 336.436L175.244 338.849C174.376 338.351 173.588 338.303 173.025 338.624L177.158 336.211Z" fill="#F4E4FF"/>
<path opacity="0.3" d="M195.28 345.606C197.001 346.603 198.4 349.016 198.4 350.995L194.267 353.408C194.267 351.413 192.884 349 191.148 348.019L195.28 345.606Z" fill="#F4E4FF"/>
<path opacity="0.8" d="M172.125 340.619C172.125 338.624 173.54 337.836 175.261 338.833L191.148 348.003C192.869 349 194.268 351.413 194.268 353.392L194.219 369.945C194.219 371.924 192.804 372.728 191.084 371.731L175.196 362.561C173.476 361.564 172.077 359.151 172.077 357.172L172.125 340.619Z" fill="#AE5AFF"/>
<path d="M321.608 275.886L321.656 259.333L325.789 256.92L325.741 273.473C325.741 274.455 325.387 275.146 324.824 275.468L320.692 277.881C321.254 277.559 321.608 276.868 321.608 275.886Z" fill="#E5ABFF"/>
<path d="M304.579 242.136C305.142 241.799 305.93 241.847 306.798 242.362L322.686 251.531C324.406 252.528 325.805 254.941 325.805 256.92L321.672 259.333C321.672 257.338 320.29 254.925 318.553 253.944L302.665 244.775C301.797 244.276 301.009 244.228 300.446 244.549L304.579 242.136Z" fill="url(#paint12_linear)"/>
<path opacity="0.3" d="M304.579 242.136C305.142 241.799 305.93 241.847 306.798 242.362L302.666 244.775C301.797 244.276 301.009 244.228 300.447 244.549L304.579 242.136Z" fill="#F4E4FF"/>
<path opacity="0.3" d="M322.686 251.531C324.406 252.528 325.805 254.941 325.805 256.92L321.672 259.333C321.672 257.338 320.29 254.925 318.553 253.944L322.686 251.531Z" fill="#F4E4FF"/>
<path opacity="0.8" d="M299.53 246.544C299.53 244.549 300.945 243.761 302.666 244.759L318.553 253.928C320.274 254.925 321.673 257.338 321.673 259.317L321.625 275.87C321.625 277.849 320.21 278.653 318.489 277.656L302.602 268.486C300.881 267.489 299.482 265.076 299.482 263.097L299.53 246.544Z" fill="#AE5AFF"/>
<path d="M415.871 389.587L421.338 392.74V394.075L415.871 390.922V389.587ZM414.07 389.876L405.258 384.793V383.458L414.07 388.541V389.876ZM403.473 383.763L397.555 380.337V379.002L403.473 382.428V383.763ZM395.771 379.307L383.212 372.052V370.717L395.771 377.972V379.307ZM411.787 390.842L421.338 396.359V397.694L411.787 392.177V390.842ZM400.45 384.294L410.002 389.812V391.147L400.45 385.629V384.294ZM398.649 384.6L394.661 382.299V380.964L398.649 383.265V384.6ZM392.876 381.254L383.196 375.672V374.337L392.876 379.919V381.254ZM421.338 401.314L415.871 398.161V396.826L421.338 399.979V401.314ZM414.07 397.115L405.258 392.032V390.697L414.07 395.78V397.115ZM403.473 391.002L397.555 387.576V386.241L403.473 389.667V391.002ZM395.771 386.546L383.212 379.291V377.956L395.771 385.211V386.546Z" fill="#8066FF"/>
<path d="M415.871 263.162L421.338 266.315V267.65L415.871 264.497V263.162ZM414.07 263.467L405.258 258.384V257.049L414.07 262.132V263.467ZM403.473 257.338L397.555 253.912V252.577L403.473 256.003V257.338ZM395.771 252.898L383.212 245.643V244.308L395.771 251.563V252.898ZM411.787 264.433L421.338 269.95V271.285L411.787 265.768V264.433ZM400.45 257.885L410.002 263.403V264.738L400.45 259.22V257.885ZM398.649 258.175L394.661 255.874V254.539L398.649 256.84V258.175ZM392.876 254.845L383.196 249.263V247.928L392.876 253.51V254.845ZM421.338 274.905L415.871 271.752V270.417L421.338 273.57V274.905ZM414.07 270.706L405.258 265.623V264.288L414.07 269.371V270.706ZM403.473 264.577L397.555 261.151V259.816L403.473 263.242V264.577ZM395.771 260.137L383.212 252.882V251.547L395.771 258.802V260.137Z" fill="#8066FF"/>
<path d="M399.549 362.191L402.894 364.122V365.457L399.549 363.526V362.191ZM397.764 362.497L391.959 359.151V357.816L397.764 361.162V362.497ZM390.174 358.105L383.34 354.164V352.829L390.174 356.77V358.105ZM395.481 363.462L402.91 367.757V369.092L395.481 364.797V363.462ZM387.135 358.636L393.68 362.416V363.752L387.135 359.971V358.636ZM385.35 358.942L383.276 357.751V356.416L385.35 357.606V358.942ZM402.894 372.696L399.549 370.765V369.43L402.894 371.361V372.696ZM397.764 369.736L391.959 366.39V365.055L397.764 368.401V369.736ZM390.174 365.344L383.212 361.323V359.987L390.174 364.009V365.344Z" fill="#8066FF"/>
<path d="M55.0592 182.728L64.8843 188.407V189.774L55.0592 184.096V182.728ZM41.8411 175.103L53.2099 181.667V183.034L41.8411 176.471V175.103ZM59.2561 188.874L64.8843 192.123V193.49L59.2561 190.241V188.874ZM48.3536 182.584L57.4069 187.812V189.179L48.3536 183.951V182.584ZM46.5205 182.889L41.8411 180.187V178.819L46.5205 181.522V182.889ZM55.0592 190.177L64.8843 195.855V197.222L55.0592 191.544V190.177ZM41.8411 182.551L53.2099 189.115V190.482L41.8411 183.919V182.551ZM59.2561 196.322L64.8843 199.571V200.939L59.2561 197.689V196.322ZM57.4069 196.627L48.3536 191.399V190.032L57.4069 195.26V196.627ZM46.5205 190.337L41.8411 187.635V186.267L46.5205 188.97V190.337ZM55.0592 197.625L64.8843 203.303V204.671L55.0592 198.992V197.625ZM41.8411 189.983L53.2099 196.547V197.914L41.8411 191.351V189.983ZM64.8682 208.387L59.2401 205.137V203.77L64.8682 207.019V208.387ZM57.4069 204.075L48.3536 198.847V197.48L57.4069 202.708V204.075ZM46.5205 197.786L41.8411 195.083V193.716L46.5205 196.418V197.786Z" fill="#8066FF"/>
<path d="M54.6251 267.441L64.4502 273.119V274.487L54.6251 268.808V267.441ZM42.9668 260.717L52.7919 266.395V267.762L42.9668 262.084V260.717ZM37.0331 257.29L41.1175 259.655V261.022L37.0331 258.657V257.29ZM35.2 256.212V257.58L28.3336 253.622V252.255L35.2 256.212ZM58.8221 273.586L64.4502 276.835V278.203L58.8221 274.953V273.586ZM47.9356 267.296L56.9889 272.524V273.892L47.9356 268.663V267.296ZM46.0864 267.602L39.9919 264.079V262.711L46.0864 266.234V267.602ZM38.1587 263.033L28.3336 257.354V255.987L38.1587 261.666V263.033ZM54.6251 274.889L64.4502 280.567V281.935L54.6251 276.256V274.889ZM42.9668 268.149L52.7919 273.827V275.195L42.9668 269.516V268.149ZM37.0331 264.722L41.1175 267.087V268.454L37.0331 266.089V264.722ZM35.2 265.028L28.3336 261.07V259.703L35.2 263.66V265.028ZM58.8221 281.034L64.4502 284.283V285.651L58.8221 282.401V281.034ZM56.9889 281.34L47.9356 276.111V274.744L56.9889 279.972V281.34ZM46.0864 275.05L39.9919 271.527V270.159L46.0864 273.682V275.05ZM38.1587 270.465L28.3336 264.786V263.419L38.1587 269.098V270.465ZM54.6251 282.337L64.4502 288.016V289.383L54.6251 283.704V282.337ZM42.9668 275.597L52.7919 281.275V282.643L42.9668 276.964V275.597ZM41.1336 275.902L37.0492 273.538V272.17L41.1336 274.535V275.902ZM35.2 272.476L28.3336 268.519V267.151L35.2 271.109V272.476ZM64.4502 293.099L58.8221 289.849V288.482L64.4502 291.732V293.099ZM56.9889 288.788L47.9356 283.56V282.192L56.9889 287.42V288.788ZM46.0864 282.482L39.9919 278.959V277.591L46.0864 281.114V282.482ZM38.1587 277.913L28.3336 272.235V270.867L38.1587 276.546V277.913Z" fill="#8066FF"/>
<path d="M400.643 410.725L409.342 415.744V417.143L400.643 412.124V410.725ZM395.063 408.907V407.507L399.003 409.776V411.175L395.063 408.907ZM389.821 404.467L393.439 406.558V407.958L389.821 405.866V404.467ZM382.199 400.075L388.18 403.534V404.933L382.199 401.475V400.075ZM404.357 409.068L409.342 411.947V413.347L404.357 410.467V409.068ZM399.469 407.636V406.236L402.717 408.119V409.518L399.469 407.636ZM392.442 402.183L397.829 405.303V406.703L392.442 403.582V402.183ZM382.199 396.263L390.818 401.234V402.633L382.199 397.662V396.263ZM400.643 403.116L409.342 408.135V409.534L400.643 404.515V403.116ZM395.063 401.298V399.898L399.003 402.167V403.566L395.063 401.298ZM389.821 396.858L393.439 398.949V400.349L389.821 398.257V396.858ZM382.199 392.466L388.18 395.925V397.324L382.199 393.866V392.466ZM404.357 401.443L409.342 404.322V405.722L404.357 402.842V401.443ZM399.469 400.027V398.627L402.717 400.51V401.909L399.469 400.027ZM392.442 394.574L397.829 397.694V399.094L392.442 395.973V394.574ZM382.199 388.654L390.818 393.625V395.024L382.199 390.053V388.654Z" fill="#8066FF"/>
<path d="M58.8377 311.969L64.4819 315.234V313.835L58.8377 310.569V311.969ZM53.5312 307.497L57.1975 309.62V311.02L53.5312 308.896V307.497ZM44.2849 302.156L51.891 306.547V307.947L44.2849 303.555V302.156ZM33.9453 296.188L42.6448 301.207V302.606L33.9453 297.587V296.188ZM23.6216 291.635V290.236L32.3211 295.255V296.654L23.6216 291.635ZM18.3633 287.195L21.9814 289.286V290.686L18.3633 288.595V287.195ZM12.9925 284.09L16.7392 286.246V287.646L12.9925 285.49V284.09ZM55.702 304.955L64.4659 310.022V311.422L55.702 306.354V304.955ZM50.3955 301.882L54.0619 304.006V305.405L50.3955 303.282V301.882ZM44.2849 298.359L48.7714 300.949V302.349L44.2849 299.759V298.359ZM37.6598 294.531L42.6448 297.41V298.81L37.6598 295.93V294.531ZM28.0116 290.364V288.965L36.0357 293.598V294.997L28.0116 290.364ZM20.9845 284.895L26.3714 288.016V289.415L20.9845 286.294V284.895ZM12.9925 280.278L19.3603 283.962V285.361L12.9925 281.677V280.278ZM58.8377 302.944L64.4819 306.21V307.609L58.8377 304.344V302.944ZM53.5312 299.888L57.1975 302.011V303.411L53.5312 301.287V299.888ZM44.2849 294.547L51.891 298.938V300.338L44.2849 295.946V294.547ZM33.9453 288.579L42.6448 293.598V294.997L33.9453 289.978V288.579ZM23.6216 284.01V282.61L32.3211 287.63V289.029L23.6216 284.01ZM18.3633 279.57L21.9814 281.661V283.061L18.3633 280.97V279.57ZM12.9925 276.465L16.7392 278.621V280.021L12.9925 277.865V276.465ZM55.702 297.33L64.4659 302.397V303.797L55.702 298.729V297.33ZM50.3955 294.273L54.0619 296.397V297.796L50.3955 295.673V294.273ZM44.2849 290.734L48.7714 293.324V294.724L44.2849 292.134V290.734ZM37.6598 286.922L42.6448 289.801V291.201L37.6598 288.321V286.922ZM28.0116 282.739V281.34L36.0357 285.973V287.372L28.0116 282.739ZM20.9845 277.286L26.3714 280.407V281.806L20.9845 278.685V277.286ZM12.9925 272.669L19.3603 276.353V277.752L12.9925 274.068V272.669Z" fill="#8066FF"/>
<path d="M58.8377 133.584L64.4819 136.849V135.45L58.8377 132.184V133.584ZM53.5312 129.128L57.1975 131.251V132.651L53.5312 130.527V129.128ZM44.285 123.787L51.891 128.179V129.578L44.285 125.186V123.787ZM36.1 119.057L42.6608 122.838V124.237L36.1 120.457V119.057ZM32.6588 118.462V117.063L34.4599 118.108V119.508L32.6588 118.462ZM27.4005 114.038L31.0186 116.13V117.529L27.4005 115.438V114.038ZM24.1684 112.172L25.7604 113.089V114.489L24.1684 113.572V112.172ZM55.7021 126.57L64.4659 131.637V133.037L55.7021 127.969V126.57ZM50.3955 123.513L54.0619 125.637V127.036L50.3955 124.913V123.513ZM44.285 119.974L48.7714 122.564V123.964L44.285 121.374V119.974ZM39.8146 117.4L42.6448 119.041V120.441L39.7985 118.8V117.4H39.8146ZM33.0608 114.907V113.507L38.1744 116.451V117.851L33.0608 114.907ZM30.0217 111.738L31.4367 112.558V113.958L30.0217 113.138V111.738ZM24.1684 108.36L28.3975 110.805V112.204L24.1684 109.759V108.36ZM58.8377 124.575L64.4819 127.841V129.24L58.8377 125.975V124.575ZM53.5312 121.503L57.1975 123.626V125.026L53.5312 122.902V121.503ZM44.285 116.162L51.891 120.553V121.953L44.285 117.561V116.162ZM36.1 111.432L42.6608 115.213V116.612L36.1 112.832V111.432ZM32.6588 110.853V109.454L34.4599 110.499V111.899L32.6588 110.853ZM27.4005 106.413L31.0186 108.505V109.904L27.4005 107.813V106.413ZM24.1684 104.547L25.7604 105.464V106.864L24.1684 105.947V104.547ZM55.7021 118.961L64.4659 124.028V125.428L55.7021 120.36V118.961ZM50.3955 115.888L54.0619 118.012V119.411L50.3955 117.288V115.888ZM44.285 112.365L48.7714 114.955V116.355L44.285 113.765V112.365ZM39.8146 109.775L42.6608 111.416V112.816L39.8146 111.175V109.775ZM33.0608 107.282V105.882L38.1744 108.826V110.226L33.0608 107.282ZM30.0217 104.129L31.4367 104.949V106.349L30.0217 105.529V104.129ZM24.1684 100.751L28.3975 103.196V104.595L24.1684 102.15V100.751Z" fill="#8066FF"/>
<path d="M133.274 435.096C133.323 434.951 133.371 434.806 133.419 434.662H138.967C139.626 436.013 140.639 435.579 146.573 434.983C148.133 434.822 151.011 434.276 152.41 436.093C153.664 437.718 152.249 439.729 150.818 440.388C149.644 440.935 139.337 443.67 137.262 444.008C134.255 444.507 131.731 443.751 131.875 440.678C131.972 438.49 132.744 436.962 133.274 435.096Z" fill="#BC8224"/>
<path d="M133.275 433.519C133.323 433.375 133.371 433.23 133.42 433.085H138.967C139.627 434.436 140.64 434.002 146.573 433.407C148.133 433.246 150.819 433.455 152.201 435.273C153.456 436.898 152.25 438.152 150.819 438.812C149.645 439.359 139.337 442.094 137.263 442.431C134.256 442.93 131.602 442.19 132.053 439.15C132.342 437.252 132.744 435.369 133.275 433.519Z" fill="white"/>
<path d="M115.666 427.616C114.106 430.913 113.318 432.651 111.791 435.241C110.922 436.721 109.974 436.849 108.108 436.64C103.911 436.174 105.825 431.01 107.32 426.811C107.787 425.508 108.575 423.256 109.797 422.548C111.115 421.776 115.634 420.988 116.454 422.677C116.695 423.16 116.615 424.527 116.567 424.929C116.47 425.878 115.972 426.956 115.666 427.616Z" fill="#BC8224"/>
<path d="M115.666 426.055C114.107 429.353 113.319 431.09 111.791 433.68C110.923 435.16 109.974 435.289 108.109 435.08C103.912 434.613 106.211 429.063 107.723 424.865C108.189 423.562 108.591 421.696 109.813 420.988C111.132 420.216 115.731 420.537 116.47 422.259C116.937 423.32 116.117 425.122 115.666 426.055Z" fill="white"/>
<path d="M122.05 311.454C122.002 312.387 121.761 313.416 121.198 313.867C120.619 314.333 119.976 314.703 119.445 315.202C118.802 315.813 118.336 316.602 117.886 317.374C114.782 322.666 111.582 328.184 111.003 334.281C110.907 335.246 110.875 336.243 110.424 337.096C109.894 338.093 108.865 338.737 107.787 339.059C106.71 339.364 105.568 339.396 104.442 339.412C103.992 339.412 103.478 339.412 103.14 339.107C102.593 338.624 102.754 337.756 102.979 337.064C103.349 335.873 103.719 334.667 104.282 333.557C104.603 332.93 104.989 332.318 105.263 331.675C105.616 330.806 105.777 329.889 106.034 328.988C106.79 326.237 108.334 323.776 109.862 321.347C111.389 318.918 112.997 316.923 113.849 314.285C114.251 313.046 114.268 311.293 114.412 309.942C114.477 309.346 114.525 308.687 114.959 308.269C115.699 307.561 117.451 307.561 118.465 307.48C118.883 307.448 120.314 303.089 121.391 303.314C122.227 303.443 121.616 304.585 121.359 305.212C120.635 306.966 120.169 308.494 119.638 310.312C119.542 310.649 119.397 311.566 119.751 311.647C120.828 311.904 120.812 310.151 121.552 310.183C121.906 310.199 122.083 310.73 122.05 311.454Z" fill="#FBBD9E"/>
<path d="M106.243 370.041C106.517 368.98 107.353 367.789 108.173 367.709C109.298 367.596 122.098 368.063 127.775 372.406C128.82 373.211 129.608 374.932 130.026 375.736C131.94 379.838 133.532 385.388 134.48 391.083C134.882 393.544 135.027 396.038 134.979 398.531C134.915 401.427 134.947 404.274 135.558 407.121C136.153 409.872 137.101 412.494 137.873 415.197C138.533 417.497 138.87 419.878 138.999 422.291C139.16 425.46 139.707 430.704 140.189 434.211C140.494 436.479 133.178 437.879 132.695 436.206C131.57 430.383 127.148 425.38 126.44 419.492C126.054 416.323 127.035 413.073 126.36 409.952C125.749 407.121 122.79 402.022 119.799 396.07C119.156 400.204 118.287 401.764 116.695 407.009C116.197 408.649 115.972 413.475 115.618 415.149C114.991 418.189 113.914 421.181 113.383 427.889C113.222 431.139 106.565 430.833 106.565 428.098C106.565 422.709 106.356 419.17 105.793 415.567C104.635 408.006 107.883 403.148 107.98 399.737C108.076 395.828 102.448 385.115 106.243 370.041Z" fill="#691CA5"/>
<path d="M123.047 339.107C127.695 341.6 130.734 344.802 130.637 350.078C130.605 352.008 128.724 359.859 128.643 361.95C128.434 367.21 128.547 368.111 129.11 374.691C129.383 379.517 106.34 378.262 107.015 369.044C107.16 367.13 108.591 363.848 108.816 361.934C109.25 358.137 102.529 346.989 101.387 342.565C100.985 341.021 100.664 339.332 101.242 337.852C102.641 334.281 105.841 332.833 108.993 333.396C113.657 334.265 118.834 336.839 123.047 339.107Z" fill="white"/>
<path d="M116.261 339.863C112.836 338.576 110.44 336.453 110.89 335.133C111.051 334.683 111.534 334.393 112.225 334.249C115.94 335.423 119.783 337.369 123.047 339.123C123.144 339.171 123.24 339.236 123.337 339.284C123.353 339.461 123.353 339.638 123.304 339.799C122.838 341.118 119.686 341.15 116.261 339.863Z" fill="#F3A984"/>
<path d="M127.759 322.441C127.775 322.795 129.19 324.725 129.335 325.063C129.56 325.594 128.772 326.366 128.756 326.559C128.691 327.154 128.788 327.621 128.884 328.184C129.077 329.31 129.109 330.452 128.498 331.289C127.743 332.302 126.135 332.254 125.25 333.171C124.929 333.493 124.752 333.927 124.559 334.329C123.883 335.825 123.063 337.305 122.549 338.849C122.05 340.313 117.869 339.477 116.133 338.673C113.109 337.273 111.823 335.841 112.868 334.683C113.817 333.637 114.508 332.881 114.541 332.383C114.573 331.932 114.332 331.514 114.106 331.112C113.656 330.34 112.836 328.956 112.273 327.267C110.874 323.068 112.627 318.452 116.615 316.553C118.046 315.878 119.751 315.508 121.712 315.572C123.385 315.62 125.813 316.28 127.019 318.789C127.485 319.739 127.662 320.865 127.759 322.441Z" fill="#FBBD9E"/>
<path d="M123.369 323.31C123.562 323.985 124.623 326.286 124.35 326.849C124.269 327.026 124.06 327.171 123.867 327.106C123.69 327.058 123.578 326.865 123.481 326.72C122.372 325.079 120.024 326.607 121.793 329.294C123.513 331.916 122.565 333.573 120.812 334.329C119.638 334.828 118.336 334.619 117.129 334.2C115.538 333.653 114.814 333.316 114.299 332.849C112.933 331.627 110.633 326.109 110.585 322.634C110.456 315.282 115.554 311.213 123.144 312.499C128.225 313.368 128.225 317.856 127.228 319.095C126.858 319.545 126.118 319.755 125.636 320.076C124.317 320.929 122.934 321.765 123.369 323.31Z" fill="#99655B"/>
<path d="M131.264 351.494C133.596 354.309 134.223 357.413 134.915 361.081C135.108 362.079 135.429 363.993 135.429 363.993C135.429 363.993 141.926 363.768 144.482 363.382C145.335 362.014 145.608 360.647 146.718 359.714C147.232 359.279 147.731 358.974 148.615 358.54C149.065 358.33 150.786 357.478 151.156 357.928C151.638 358.523 149.692 360.132 149.29 360.309C150.882 360.808 153.198 360.454 155.079 359.424C155.739 359.07 156.462 358.62 157.154 358.845C157.331 359.473 157.041 360.116 156.768 360.695C156.028 362.239 155.24 363.784 154.115 365.055C152.989 366.325 151.445 367.323 149.741 367.468C148.808 367.548 147.875 367.355 146.943 367.452C146.139 367.532 145.367 367.805 144.611 368.079C141.138 369.301 137.616 370.363 134.03 371.248C133.5 371.377 132.953 371.505 132.422 371.409C131.618 371.248 131.023 370.605 130.525 369.961C129.56 368.706 128.756 367.21 128.129 365.746C126.231 361.323 125.17 357.912 123.112 354.116L131.264 351.494Z" fill="#FBBD9E"/>
<path d="M135.703 359.231C136.394 361.998 127.148 365.167 126.151 363.269C124.575 360.486 121.89 352.314 121.6 351.14C120.957 348.55 122.581 343.273 125.267 342.147C130.525 339.927 135.397 357.719 135.703 359.231Z" fill="white"/>
<defs>
<linearGradient id="paint0_linear" x1="149.668" y1="483.684" x2="142.368" y2="483.684" gradientUnits="userSpaceOnUse">
<stop stop-color="#813DCE"/>
<stop offset="1" stop-color="#BC89F0"/>
</linearGradient>
<linearGradient id="paint1_linear" x1="237.524" y1="455.426" x2="16.2036" y2="455.426" gradientUnits="userSpaceOnUse">
<stop stop-color="#DAABFF"/>
<stop offset="0.4557" stop-color="#E6C5FF"/>
<stop offset="1" stop-color="#F1DEFF"/>
</linearGradient>
<linearGradient id="paint2_linear" x1="192.817" y1="498.075" x2="192.151" y2="499.229" gradientUnits="userSpaceOnUse">
<stop stop-color="#2A192A"/>
<stop offset="1" stop-color="#231423"/>
</linearGradient>
<linearGradient id="paint3_linear" x1="249.886" y1="431.458" x2="229.98" y2="431.458" gradientUnits="userSpaceOnUse">
<stop stop-color="#813DCE"/>
<stop offset="1" stop-color="#BC89F0"/>
</linearGradient>
<linearGradient id="paint4_linear" x1="304.153" y1="410.908" x2="177.198" y2="410.908" gradientUnits="userSpaceOnUse">
<stop stop-color="#DAABFF"/>
<stop offset="0.4557" stop-color="#E6C5FF"/>
<stop offset="1" stop-color="#F1DEFF"/>
</linearGradient>
<linearGradient id="paint5_linear" x1="327.338" y1="307.941" x2="304.106" y2="260.39" gradientUnits="userSpaceOnUse">
<stop stop-color="#813DCE"/>
<stop offset="1" stop-color="#BC89F0"/>
</linearGradient>
<linearGradient id="paint6_linear" x1="119.843" y1="285.892" x2="131.565" y2="306.187" gradientUnits="userSpaceOnUse">
<stop stop-color="#EAB9FF"/>
<stop offset="1" stop-color="#E3A2FF"/>
</linearGradient>
<linearGradient id="paint7_linear" x1="123.547" y1="158.653" x2="135.269" y2="178.948" gradientUnits="userSpaceOnUse">
<stop stop-color="#EAB9FF"/>
<stop offset="1" stop-color="#E3A2FF"/>
</linearGradient>
<linearGradient id="paint8_linear" x1="354.243" y1="380.714" x2="365.965" y2="401.009" gradientUnits="userSpaceOnUse">
<stop stop-color="#EAB9FF"/>
<stop offset="1" stop-color="#E3A2FF"/>
</linearGradient>
<linearGradient id="paint9_linear" x1="71.8269" y1="217.598" x2="83.5489" y2="237.893" gradientUnits="userSpaceOnUse">
<stop stop-color="#EAB9FF"/>
<stop offset="1" stop-color="#E3A2FF"/>
</linearGradient>
<linearGradient id="paint10_linear" x1="57.5137" y1="325.987" x2="69.2356" y2="346.282" gradientUnits="userSpaceOnUse">
<stop stop-color="#EAB9FF"/>
<stop offset="1" stop-color="#E3A2FF"/>
</linearGradient>
<linearGradient id="paint11_linear" x1="180.175" y1="334.468" x2="191.897" y2="354.763" gradientUnits="userSpaceOnUse">
<stop stop-color="#EAB9FF"/>
<stop offset="1" stop-color="#E3A2FF"/>
</linearGradient>
<linearGradient id="paint12_linear" x1="307.581" y1="240.401" x2="319.303" y2="260.696" gradientUnits="userSpaceOnUse">
<stop stop-color="#EAB9FF"/>
<stop offset="1" stop-color="#E3A2FF"/>
</linearGradient>
</defs>
</svg>
