<svg width="80" height="80" viewBox="0 0 80 80" fill="none" xmlns="http://www.w3.org/2000/svg">
<path d="M43.75 56.25H46.25V58.75H43.75V56.25Z" fill="white"/>
<path d="M38.75 56.25H41.25V58.75H38.75V56.25Z" fill="white"/>
<path d="M33.75 56.25H36.25V58.75H33.75V56.25Z" fill="white"/>
<path d="M58.75 1.25C52.4512 1.25 46.8312 4.18375 43.1625 8.75H7.5C4.05375 8.75 1.25 11.5538 1.25 15V57.5C1.25 60.9463 4.05375 63.75 7.5 63.75H28.4L26.525 71.25H21.25C19.1825 71.25 17.5 72.9325 17.5 75V78.75H62.5V75C62.5 72.9325 60.8175 71.25 58.75 71.25H53.475L51.6 63.75H72.5C75.9463 63.75 78.75 60.9463 78.75 57.5V22.5V21.25C78.75 10.2225 69.7775 1.25 58.75 1.25ZM43.6763 51.25C43.0525 45.6338 38.2812 41.25 32.5 41.25C26.7188 41.25 21.9475 45.6338 21.3237 51.25H16.25V49.73L19.1812 49.0088L19.3938 48.3413C19.6213 47.625 19.925 46.8988 20.2975 46.1825L20.6213 45.56L19.0525 42.9675L22.9688 39.0513L25.5612 40.62L26.1838 40.2962C26.9 39.9237 27.6263 39.62 28.34 39.3937L29.01 39.1825L29.73 36.25H35.27L35.9912 39.1838L36.6613 39.395C37.3737 39.6213 38.1 39.925 38.8175 40.2975L39.44 40.6213L42.0325 39.0525L45.9487 42.9688L44.38 45.5613L44.7038 46.1837C45.0763 46.9 45.38 47.6263 45.6063 48.34L45.8175 49.01L48.75 49.73V51.25H43.6763ZM41.15 51.25H23.85C24.46 47.0175 28.1012 43.75 32.5 43.75C36.8988 43.75 40.54 47.0175 41.15 51.25ZM47.7575 46.9112C47.6038 46.4963 47.43 46.0812 47.2375 45.6675L49.1025 42.5863L42.4125 35.8962L39.3312 37.7612C38.9175 37.5687 38.5025 37.395 38.0875 37.2412L37.23 33.75H27.77L26.9112 37.2425C26.4962 37.3963 26.0813 37.57 25.6675 37.7625L22.5863 35.8975L15.8962 42.5875L17.7612 45.6688C17.5688 46.0812 17.395 46.4975 17.2413 46.9125L13.75 47.77V51.25H8.75V16.25H39.4088C38.9938 17.8512 38.75 19.5212 38.75 21.25V22.5H41.3137C41.9587 31.5662 49.5225 38.75 58.75 38.75C63.645 38.75 68.0713 36.7237 71.25 33.4737V51.25H51.25V47.77L47.7575 46.9112ZM43.0112 13.6063L45.19 14.8637C44.4412 16.4462 43.9538 18.175 43.8025 20H41.295C41.455 17.7213 42.0563 15.5625 43.0112 13.6063ZM58.75 36.25C50.9 36.25 44.4525 30.1875 43.8137 22.5H46.25V21.25C46.25 14.3575 51.8575 8.75 58.75 8.75C65.6425 8.75 71.25 14.3575 71.25 21.25V22.5H73.6862C73.0475 30.1875 66.6 36.25 58.75 36.25ZM60 6.31V3.81C62.2762 3.9725 64.4325 4.5675 66.3875 5.52125L65.1337 7.6925C63.5512 6.945 61.8237 6.46125 60 6.31ZM57.5 6.31C55.6763 6.46125 53.9488 6.945 52.3663 7.6925L51.1125 5.5225C53.0675 4.56875 55.2225 3.97375 57.5 3.81125V6.31ZM73.6987 20C73.5475 18.175 73.0587 16.4462 72.3112 14.8637L74.49 13.6063C75.4437 15.5625 76.045 17.7213 76.2063 20H73.6987ZM73.2213 11.4513L71.0537 12.7025C70.0337 11.2387 68.7613 9.9675 67.2975 8.9475L68.5512 6.77625C70.3887 8.025 71.9725 9.61375 73.2213 11.4513ZM48.95 6.77625L50.2037 8.9475C48.74 9.9675 47.4675 11.2387 46.4475 12.7025L44.28 11.4513C45.5275 9.61375 47.1112 8.025 48.95 6.77625ZM60 75V76.25H20V75C20 74.31 20.56 73.75 21.25 73.75H58.75C59.44 73.75 60 74.31 60 75ZM50.9 71.25H29.1L30.975 63.75H49.025L50.9 71.25ZM76.25 57.5C76.25 59.5675 74.5675 61.25 72.5 61.25H7.5C5.4325 61.25 3.75 59.5675 3.75 57.5V15C3.75 12.9325 5.4325 11.25 7.5 11.25H41.4563C40.9913 12.0512 40.575 12.8837 40.2225 13.75H8.75C7.37125 13.75 6.25 14.8713 6.25 16.25V51.25C6.25 52.6287 7.37125 53.75 8.75 53.75H71.25C72.6288 53.75 73.75 52.6287 73.75 51.25V30.2175C75.1237 27.9287 75.9863 25.3075 76.1862 22.5H76.25V57.5Z" fill="white"/>
<path d="M60 23.98V11.25H57.5V23.98C56.0487 24.4975 55 25.8725 55 27.5C55 29.1275 56.0487 30.5025 57.5 31.02V33.75H60V31.02C61.4513 30.5025 62.5 29.1275 62.5 27.5C62.5 25.8725 61.4513 24.4975 60 23.98ZM58.75 28.75C58.06 28.75 57.5 28.19 57.5 27.5C57.5 26.81 58.06 26.25 58.75 26.25C59.44 26.25 60 26.81 60 27.5C60 28.19 59.44 28.75 58.75 28.75Z" fill="white"/>
<path d="M15 23.75C12.9325 23.75 11.25 25.4325 11.25 27.5C11.25 29.5675 12.9325 31.25 15 31.25C17.0675 31.25 18.75 29.5675 18.75 27.5C18.75 25.4325 17.0675 23.75 15 23.75ZM15 28.75C14.31 28.75 13.75 28.19 13.75 27.5C13.75 26.81 14.31 26.25 15 26.25C15.69 26.25 16.25 26.81 16.25 27.5C16.25 28.19 15.69 28.75 15 28.75Z" fill="white"/>
<path d="M25 23.75C22.9325 23.75 21.25 25.4325 21.25 27.5C21.25 29.5675 22.9325 31.25 25 31.25C27.0675 31.25 28.75 29.5675 28.75 27.5C28.75 25.4325 27.0675 23.75 25 23.75ZM25 28.75C24.31 28.75 23.75 28.19 23.75 27.5C23.75 26.81 24.31 26.25 25 26.25C25.69 26.25 26.25 26.81 26.25 27.5C26.25 28.19 25.69 28.75 25 28.75Z" fill="white"/>
<path d="M35 23.75C32.9325 23.75 31.25 25.4325 31.25 27.5C31.25 29.5675 32.9325 31.25 35 31.25C37.0675 31.25 38.75 29.5675 38.75 27.5C38.75 25.4325 37.0675 23.75 35 23.75ZM35 28.75C34.31 28.75 33.75 28.19 33.75 27.5C33.75 26.81 34.31 26.25 35 26.25C35.69 26.25 36.25 26.81 36.25 27.5C36.25 28.19 35.69 28.75 35 28.75Z" fill="white"/>
<path d="M66.25 46.25H68.75V48.75H66.25V46.25Z" fill="white"/>
<path d="M53.75 46.25H63.75V48.75H53.75V46.25Z" fill="white"/>
<path d="M53.75 41.25H68.75V43.75H53.75V41.25Z" fill="white"/>
<path d="M65.1201 17.2888C65.4751 17.8576 65.7514 18.4688 65.9389 19.1051L68.3364 18.3951C68.0839 17.5438 67.7151 16.7263 67.2414 15.9663L65.1201 17.2888Z" fill="white"/>
<path d="M63.0361 12.2139L61.9648 14.4726C62.6098 14.7789 63.2073 15.1764 63.7423 15.6539L65.4074 13.7889C64.6949 13.1514 63.8961 12.6226 63.0361 12.2139Z" fill="white"/>
<path d="M16.25 18.75H18.75V21.25H16.25V18.75Z" fill="white"/>
<path d="M11.25 18.75H13.75V21.25H11.25V18.75Z" fill="white"/>
<path d="M21.25 18.75H23.75V21.25H21.25V18.75Z" fill="white"/>
</svg>
