<?xml version="1.0" encoding="UTF-8"?>
<svg xmlns="http://www.w3.org/2000/svg" xmlns:xlink="http://www.w3.org/1999/xlink" width="48pt" height="48pt" viewBox="0 0 48 48" version="1.1">
<defs>
<linearGradient id="linear0" gradientUnits="userSpaceOnUse" x1="42.98513" y1="0.23513" x2="124.29919" y2="81.54919" gradientTransform="matrix(0.280702,0,0,0.280702,0,0)">
<stop offset="0.237" style="stop-color:rgb(85.098039%,87.843137%,12.941176%);stop-opacity:1;"/>
<stop offset="0.85" style="stop-color:rgb(98.431373%,52.941176%,16.862745%);stop-opacity:1;"/>
</linearGradient>
<linearGradient id="linear1" gradientUnits="userSpaceOnUse" x1="42.98513" y1="42.98513" x2="124.29919" y2="124.29919" gradientTransform="matrix(0.280702,0,0,0.280702,0,0)">
<stop offset="0.237" style="stop-color:rgb(85.098039%,87.843137%,12.941176%);stop-opacity:1;"/>
<stop offset="0.85" style="stop-color:rgb(98.431373%,52.941176%,16.862745%);stop-opacity:1;"/>
</linearGradient>
<linearGradient id="linear2" gradientUnits="userSpaceOnUse" x1="42.98513" y1="85.73513" x2="124.29919" y2="167.04919" gradientTransform="matrix(0.280702,0,0,0.280702,0,0)">
<stop offset="0.237" style="stop-color:rgb(85.098039%,87.843137%,12.941176%);stop-opacity:1;"/>
<stop offset="0.85" style="stop-color:rgb(98.431373%,52.941176%,16.862745%);stop-opacity:1;"/>
</linearGradient>
</defs>
<g id="surface18058802">
<path style=" stroke:none;fill-rule:nonzero;fill:url(#linear0);" d="M 43 15 L 5 15 C 3.898438 15 3 14.101562 3 13 L 3 11 C 3 9.898438 3.898438 9 5 9 L 43 9 C 44.101562 9 45 9.898438 45 11 L 45 13 C 45 14.101562 44.101562 15 43 15 Z M 43 15 "/>
<path style=" stroke:none;fill-rule:nonzero;fill:url(#linear1);" d="M 43 27 L 5 27 C 3.898438 27 3 26.101562 3 25 L 3 23 C 3 21.898438 3.898438 21 5 21 L 43 21 C 44.101562 21 45 21.898438 45 23 L 45 25 C 45 26.101562 44.101562 27 43 27 Z M 43 27 "/>
<path style=" stroke:none;fill-rule:nonzero;fill:url(#linear2);" d="M 43 39 L 5 39 C 3.898438 39 3 38.101562 3 37 L 3 35 C 3 33.898438 3.898438 33 5 33 L 43 33 C 44.101562 33 45 33.898438 45 35 L 45 37 C 45 38.101562 44.101562 39 43 39 Z M 43 39 "/>
</g>
</svg>
