<svg width="489" height="489" viewBox="0 0 489 489" fill="none" xmlns="http://www.w3.org/2000/svg">
<g clip-path="url(#clip0)">
<path d="M156.842 425.182C185.27 438.037 197.719 489 197.719 489L405.751 488.429C401.849 480.336 397.419 472.509 392.49 464.998C388.552 456.968 385.246 448.644 382.602 440.1C377.734 423.618 374.364 406.73 372.532 389.642C369.442 363.387 373.398 336.782 383.995 312.563C393.335 291.262 409.555 274.388 421.929 254.886C434.17 235.837 440.759 213.709 440.934 191.067C441.396 168.13 438.58 145.245 432.571 123.104C424.717 96.2817 408.325 72.7546 385.884 56.0946C344.841 23.8703 302.903 5.8519 249.818 8.55383C223.254 10.4037 196.86 14.1932 170.849 19.892C142.52 25.5942 112.525 36.1865 92.1941 57.6527C78.3252 72.4727 67.6104 89.9548 60.6992 109.039C57.4597 118.533 54.8244 128.221 52.8088 138.048C49.4125 148.737 45.3176 159.191 40.5507 169.344C39.1498 172.436 38.5403 175.828 38.777 179.215C40.3849 190.686 57.5745 195.6 57.7071 207.444C57.5308 210.059 56.7261 212.592 55.3616 214.829C45.2778 236.139 32.8994 256.285 18.4462 274.91C15.0398 279.095 8.10263 287.342 8.9646 293.26C9.57792 297.462 14.6171 300.951 17.7252 303.263C24.3557 308.187 37.857 311.551 39.5395 320.436C40.418 324.96 39.8737 329.645 37.9814 333.847C33.3897 343.519 28.3091 348.674 31.9145 351.708C35.5198 354.741 45.1755 362.026 45.1755 362.026C45.1755 362.026 36.0088 373.746 41.0811 377.343C47.3884 381.818 55.403 383.882 57.5497 392.261C58.1779 398.901 57.5137 405.6 55.5937 411.987C54.942 418.236 55.7594 424.551 57.9806 430.428C60.9723 442.183 72.7145 449.476 84.5773 446.946C109.042 441.005 133.165 433.739 156.842 425.182Z" fill="#FB7B76"/>
<path fill-rule="evenodd" clip-rule="evenodd" d="M356.99 298.372C356.99 269.455 389.48 257.023 405.7 238.921C422.894 219.211 432.115 193.794 431.559 167.643C431.119 112.596 387.155 67.7892 332.126 66.3043C277.092 67.7802 233.117 112.583 232.668 167.635C232.112 193.785 241.333 219.203 258.527 238.913C274.78 257.023 307.262 269.455 307.262 298.372H356.99Z" fill="#F0C419"/>
<path d="M85.3637 144.769C83.1799 144.289 81.2827 142.947 80.1028 141.047C78.923 139.148 78.5606 136.852 79.0979 134.682C80.4005 128.924 82.0332 123.245 83.9879 117.675C89.7527 101.724 98.684 87.1031 110.245 74.6925C123.705 60.5032 145.776 50.2259 175.854 44.2419C180.344 43.3493 184.708 46.2659 185.601 50.7563C186.493 55.2468 183.577 59.6106 179.086 60.5032C152.448 65.7993 133.336 74.4107 122.287 86.0804C112.272 96.8537 104.536 109.54 99.5448 123.377C97.8089 128.36 96.3588 133.438 95.2018 138.586C94.158 142.985 89.7806 145.736 85.3637 144.769Z" fill="#ECF0F1"/>
<path d="M75.1958 182.339C79.7733 182.339 83.484 178.628 83.484 174.051C83.484 169.473 79.7733 165.763 75.1958 165.763C70.6184 165.763 66.9077 169.473 66.9077 174.051C66.9077 178.628 70.6184 182.339 75.1958 182.339Z" fill="#ECF0F1"/>
<path d="M307.262 348.101H356.991V356.39C356.991 370.122 345.859 381.254 332.127 381.254C318.394 381.254 307.262 370.122 307.262 356.39V348.101Z" fill="#95A5A5"/>
<path d="M489.602 174.051H464.737C460.16 174.051 456.449 170.34 456.449 165.763C456.449 161.185 460.16 157.475 464.737 157.475H489.602C494.179 157.475 497.89 161.185 497.89 165.763C497.89 170.34 494.179 174.051 489.602 174.051Z" fill="#F0C419"/>
<path d="M425.89 80.2871C422.535 80.2898 419.509 78.2691 418.226 75.1689C416.942 72.0687 417.655 68.5006 420.03 66.131L437.618 48.5519C439.699 46.3973 442.78 45.5332 445.678 46.2917C448.576 47.0502 450.839 49.3132 451.597 52.211C452.356 55.1088 451.492 58.1904 449.337 60.2713L431.758 77.8587C430.202 79.4152 428.091 80.2889 425.89 80.2871Z" fill="#F0C419"/>
<path d="M332.129 41.4407C327.552 41.4407 323.841 37.73 323.841 33.1525V8.28814C323.841 3.71072 327.552 0 332.129 0C336.706 0 340.417 3.71072 340.417 8.28814V33.1525C340.417 37.73 336.706 41.4407 332.129 41.4407Z" fill="#F0C419"/>
<path d="M238.365 80.2871C236.164 80.2889 234.053 79.4152 232.497 77.8587L214.918 60.2713C212.764 58.1904 211.9 55.1088 212.658 52.211C213.417 49.3132 215.68 47.0502 218.577 46.2917C221.475 45.5332 224.557 46.3973 226.638 48.5519L244.225 66.131C246.601 68.5006 247.313 72.0687 246.03 75.1689C244.747 78.2691 241.721 80.2898 238.365 80.2871Z" fill="#F0C419"/>
<path d="M199.518 174.051H174.654C170.076 174.051 166.366 170.34 166.366 165.763C166.366 161.185 170.076 157.475 174.654 157.475H199.518C204.096 157.475 207.806 161.185 207.806 165.763C207.806 170.34 204.096 174.051 199.518 174.051Z" fill="#F0C419"/>
<path d="M332.126 232.067C373.323 232.067 406.719 194.96 406.719 149.186C406.719 103.412 373.323 66.3043 332.126 66.3043C290.929 66.3043 257.533 103.412 257.533 149.186C257.533 194.96 290.929 232.067 332.126 232.067Z" fill="#F3D55B"/>
<path d="M348.705 306.661C344.128 306.661 340.417 302.951 340.417 298.373V198.915H323.841V298.373C323.841 302.951 320.13 306.661 315.553 306.661C310.975 306.661 307.264 302.951 307.264 298.373V198.915H298.976C285.244 198.915 274.112 187.783 274.112 174.051C274.112 160.319 285.244 149.187 298.976 149.187C312.708 149.187 323.841 160.319 323.841 174.051V182.339H340.417V174.051C340.417 160.319 351.549 149.187 365.281 149.187C379.014 149.187 390.146 160.319 390.146 174.051C390.146 187.783 379.014 198.915 365.281 198.915H356.993V298.373C356.993 302.951 353.282 306.661 348.705 306.661ZM356.993 182.339H365.281C369.859 182.339 373.569 178.628 373.569 174.051C373.569 169.474 369.859 165.763 365.281 165.763C360.704 165.763 356.993 169.474 356.993 174.051V182.339ZM298.976 165.763C294.399 165.763 290.688 169.474 290.688 174.051C290.688 178.628 294.399 182.339 298.976 182.339H307.264V174.051C307.264 169.474 303.554 165.763 298.976 165.763Z" fill="#F29C1F"/>
<path d="M357 298.373H307.272C298.117 298.373 290.695 305.795 290.695 314.949V331.526C290.695 340.68 298.117 348.102 307.272 348.102H357C366.155 348.102 373.577 340.68 373.577 331.526V314.949C373.577 305.795 366.155 298.373 357 298.373Z" fill="#BDC3C7"/>
</g>
<defs>
<clipPath id="clip0">
<rect width="489" height="489" fill="white"/>
</clipPath>
</defs>
</svg>
