<svg width="698" height="409" viewBox="0 0 698 409" fill="none" xmlns="http://www.w3.org/2000/svg">
<g clip-path="url(#clip0)">
<path opacity="0.2" d="M58.4685 408.15C58.4685 408.15 -22.7513 310.907 44.7347 205.629C104.61 112.219 174.425 118.601 225.641 156.511C247.454 172.658 310.351 158.502 363.879 63.4516C436.881 -66.1683 689.931 12.444 643.795 211.875C621.465 308.381 711.75 311.893 665.746 408.364L58.4685 408.15Z" fill="#EBF3FA"/>
<path d="M465.618 407.23H338.602C329.121 407.23 321.362 398.577 321.362 388.004V84.7458C321.362 74.1734 329.121 65.5206 338.602 65.5206H465.618C475.099 65.5206 482.858 74.1734 482.858 84.7458V388.01C482.858 398.583 475.104 407.23 465.618 407.23Z" fill="#CC78EA"/>
<path d="M491.396 74.7316V398.018C491.396 403.087 487.676 407.229 483.13 407.229H338.16C333.614 407.229 329.899 403.081 329.899 398.018V74.7316C329.899 69.6623 333.614 65.5142 338.16 65.5142H483.13C487.676 65.5142 491.396 69.6623 491.396 74.7316Z" fill="#FBAFEF"/>
<path opacity="0.4" d="M434.313 78.4518H392.333C391.432 78.4518 390.702 77.6317 390.702 76.6273C390.702 75.623 391.438 74.8088 392.333 74.8088H434.313C435.213 74.8088 435.949 75.6289 435.949 76.6273C435.949 77.6317 435.213 78.4518 434.313 78.4518Z" fill="#5E92DD"/>
<path opacity="0.4" d="M384.877 78.4518C383.977 78.4518 383.241 77.6317 383.241 76.6273C383.241 75.623 383.977 74.8088 384.877 74.8088C385.778 74.8088 386.508 75.6289 386.508 76.6273C386.508 77.6317 385.773 78.4518 384.877 78.4518Z" fill="#5E92DD"/>
<path d="M423.18 388.349C423.18 391.576 422.013 394.494 420.126 396.621C418.218 398.772 415.569 400.098 412.644 400.098C406.824 400.098 402.107 394.838 402.107 388.349C402.107 384.177 404.058 380.516 406.994 378.436C408.625 377.277 410.565 376.605 412.644 376.605C418.463 376.605 423.18 381.859 423.18 388.349Z" fill="#AB5ECF"/>
<path d="M482.778 86.5697H339.567V370.829H482.778V86.5697Z" fill="#E195F4"/>
<path d="M420.126 396.621C418.218 398.772 415.569 400.098 412.644 400.098C406.824 400.098 402.107 394.838 402.107 388.348C402.107 384.177 404.058 380.516 406.994 378.436C408.034 383.434 411.093 391.801 420.126 396.621Z" fill="#BD6CE2"/>
<path opacity="0.9" d="M480.716 120.551H480.38H414.077H347.438C346.309 120.551 345.381 121.888 345.381 123.528V218.549C345.381 220.183 346.309 221.52 347.438 221.52H414.077H480.38H480.716C481.851 221.52 482.778 220.183 482.778 218.549V123.528C482.778 121.888 481.851 120.551 480.716 120.551Z" fill="#78ACEA"/>
<path opacity="0.9" d="M430.993 235.991H430.731H379.036H327.08C326.196 235.991 325.476 237.328 325.476 238.969V333.989C325.476 335.623 326.201 336.961 327.08 336.961H379.036H430.731H430.993C431.877 336.961 432.597 335.623 432.597 333.989V238.963C432.602 237.328 431.877 235.991 430.993 235.991Z" fill="#78ACEA"/>
<path d="M531.388 114.971V209.991C531.388 211.626 530.188 212.963 528.717 212.963H356.152C354.686 212.963 353.487 211.626 353.487 209.991V114.971C353.487 113.33 354.686 111.993 356.152 111.993H528.717C530.188 111.993 531.388 113.33 531.388 114.971Z" fill="#FCECDB"/>
<path d="M531.382 114.971V209.991C531.382 211.626 529.986 212.963 528.28 212.963H442.435V111.993H528.28C529.991 111.993 531.382 113.33 531.382 114.971Z" fill="#F99746"/>
<path d="M484.574 148.875H454.202C453.136 148.875 452.267 147.906 452.267 146.718C452.267 145.529 453.136 144.56 454.202 144.56H484.574C485.64 144.56 486.508 145.529 486.508 146.718C486.508 147.906 485.64 148.875 484.574 148.875Z" fill="#FCECDB"/>
<path d="M476.841 155.347H454.207C453.141 155.347 452.272 154.378 452.272 153.189C452.272 152.001 453.141 151.032 454.207 151.032H476.841C477.907 151.032 478.776 152.001 478.776 153.189C478.776 154.378 477.901 155.347 476.841 155.347Z" fill="#FCECDB"/>
<path d="M454.607 124.712C455.332 123.642 456.296 123.108 457.458 123.108C458.625 123.108 459.569 123.642 460.299 124.7C461.023 125.758 461.381 127.071 461.381 128.646C461.381 130.221 461.023 131.535 460.299 132.592C459.574 133.65 458.625 134.185 457.458 134.185C456.291 134.185 455.332 133.65 454.607 132.592C453.882 131.535 453.525 130.221 453.525 128.646C453.52 127.083 453.877 125.764 454.607 124.712ZM459.558 125.443C459.009 124.587 458.311 124.159 457.458 124.159C456.605 124.159 455.907 124.587 455.358 125.443C454.809 126.299 454.538 127.369 454.538 128.64C454.538 129.924 454.809 130.994 455.348 131.85C455.897 132.693 456.595 133.121 457.458 133.121C458.321 133.121 459.02 132.693 459.558 131.85C460.107 130.994 460.379 129.924 460.379 128.64C460.379 127.375 460.107 126.299 459.558 125.443Z" fill="#FCECDB"/>
<path d="M469.215 124.432C469.86 125.305 470.19 126.541 470.19 128.116C470.244 131.45 468.629 134.202 466.023 134.172C465.239 134.172 464.557 133.958 463.992 133.512V132.425C464.594 132.883 465.239 133.114 465.937 133.114C468.213 133.114 469.162 130.803 469.204 128.538C468.698 129.501 467.696 130.131 466.39 130.131C465.527 130.131 464.786 129.81 464.184 129.18C463.592 128.538 463.294 127.712 463.294 126.72C463.294 125.662 463.608 124.806 464.227 124.117C464.855 123.427 465.639 123.095 466.561 123.095C467.675 123.107 468.57 123.546 469.215 124.432ZM464.946 124.895C464.509 125.371 464.285 125.983 464.285 126.732C464.285 127.469 464.504 128.045 464.957 128.491C465.41 128.936 465.959 129.15 466.63 129.15C467.195 129.15 467.712 128.954 468.192 128.556C468.671 128.158 468.986 127.671 469.167 127.07C469.002 125.234 468.096 124.164 466.604 124.164C465.948 124.158 465.399 124.402 464.946 124.895Z" fill="#FCECDB"/>
<path d="M472.215 127.035C472.487 126.732 472.956 126.732 473.228 127.035C473.5 127.338 473.5 127.861 473.228 128.164C472.956 128.467 472.487 128.467 472.215 128.164C471.943 127.861 471.943 127.338 472.215 127.035ZM472.215 132.722C472.487 132.419 472.956 132.419 473.228 132.722C473.5 133.025 473.5 133.548 473.228 133.851C472.956 134.154 472.487 134.154 472.215 133.851C471.943 133.548 471.943 133.031 472.215 132.722Z" fill="#FCECDB"/>
<path d="M476.964 133.993V124.508L474.811 125.887V124.799L477.075 123.284H477.965V133.993H476.964Z" fill="#FCECDB"/>
<path d="M481.462 124.71C482.187 123.64 483.151 123.105 484.313 123.105C485.475 123.105 486.423 123.64 487.154 124.698C487.878 125.756 488.235 127.069 488.235 128.644C488.235 130.219 487.878 131.532 487.154 132.59C486.429 133.648 485.48 134.183 484.313 134.183C483.146 134.183 482.187 133.648 481.462 132.59C480.737 131.532 480.38 130.219 480.38 128.644C480.38 127.081 480.732 125.762 481.462 124.71ZM486.413 125.441C485.864 124.585 485.166 124.157 484.313 124.157C483.46 124.157 482.762 124.585 482.213 125.441C481.664 126.297 481.392 127.366 481.392 128.638C481.392 129.922 481.664 130.992 482.203 131.847C482.751 132.691 483.45 133.119 484.313 133.119C485.176 133.119 485.874 132.691 486.413 131.847C486.962 130.992 487.233 129.922 487.233 128.638C487.233 127.372 486.962 126.297 486.413 125.441Z" fill="#FCECDB"/>
<path d="M494.151 133.993V123.284H498.185C500.104 123.284 501.26 124.478 501.26 126.249C501.26 128.068 500.109 129.262 498.185 129.262H495.169V133.987H494.151V133.993ZM495.163 128.24H498.111C499.47 128.24 500.253 127.521 500.253 126.285C500.253 125.013 499.47 124.312 498.111 124.312H495.163V128.24Z" fill="#FCECDB"/>
<path d="M503.269 133.993V123.284H504.271L507.74 128.466L511.21 123.284H512.196V133.993H511.194V125.001L508.055 129.684H507.437L504.266 125.001V133.993H503.269Z" fill="#FCECDB"/>
<path d="M404.703 212.963H356.152C354.686 212.963 353.487 211.626 353.487 209.991V145.416C366.72 162.852 392.637 197.036 404.703 212.963Z" fill="#F9E5D1"/>
<path d="M397.636 124.503C387.92 124.503 380.043 133.287 380.043 144.12C380.043 154.954 397.636 179.035 397.636 179.035C397.636 179.035 415.228 154.948 415.228 144.12C415.223 133.281 407.346 124.503 397.636 124.503ZM397.636 153.082C393.095 153.082 389.413 148.976 389.413 143.913C389.413 138.849 393.095 134.743 397.636 134.743C402.176 134.743 405.859 138.849 405.859 143.913C405.854 148.982 402.176 153.082 397.636 153.082Z" fill="#F99746"/>
<path d="M396.154 195.312H365.782C364.716 195.312 363.848 194.344 363.848 193.155C363.848 191.967 364.716 190.998 365.782 190.998H396.154C397.22 190.998 398.089 191.967 398.089 193.155C398.089 194.344 397.22 195.312 396.154 195.312Z" fill="#EFCBAB"/>
<path d="M388.416 201.784H365.782C364.716 201.784 363.848 200.816 363.848 199.627C363.848 198.438 364.716 197.47 365.782 197.47H388.416C389.482 197.47 390.351 198.438 390.351 199.627C390.351 200.816 389.482 201.784 388.416 201.784Z" fill="#EFCBAB"/>
<path d="M446.176 231.671V326.691C446.176 328.326 444.977 329.663 443.511 329.663H270.946C269.475 329.663 268.276 328.326 268.276 326.691V231.671C268.276 230.037 269.475 228.699 270.946 228.699H443.511C444.977 228.699 446.176 230.037 446.176 231.671Z" fill="#FCECDB"/>
<path d="M446.176 231.671V326.691C446.176 328.332 444.977 329.669 443.511 329.669H366.757V228.699H443.511C444.977 228.699 446.176 230.037 446.176 231.671Z" fill="#F99746"/>
<path d="M405.885 299.758C404.361 299.758 402.944 298.855 402.171 297.381L390.83 275.761C389.631 273.473 390.318 270.531 392.37 269.194C394.422 267.857 397.06 268.624 398.259 270.912L405.534 284.782L419.235 253.35C420.275 250.967 422.849 249.975 424.986 251.134C427.123 252.293 428.013 255.163 426.974 257.546L409.754 297.054C409.062 298.647 407.633 299.687 406.051 299.752C405.997 299.758 405.939 299.758 405.885 299.758Z" fill="#FCECDB"/>
<path d="M405.886 310.883C391.155 310.883 379.169 297.518 379.169 281.092C379.169 264.666 391.155 251.3 405.886 251.3C420.616 251.3 432.602 264.666 432.602 281.092C432.602 297.518 420.616 310.883 405.886 310.883ZM405.886 254.795C392.882 254.795 382.303 266.591 382.303 281.092C382.303 295.592 392.882 307.389 405.886 307.389C418.889 307.389 429.468 295.592 429.468 281.092C429.468 266.591 418.889 254.795 405.886 254.795Z" fill="#FCECDB"/>
<path d="M318.82 329.663H270.946C269.475 329.663 268.276 328.326 268.276 326.691V253.16L318.82 329.663Z" fill="#F9E5D1"/>
<path d="M291.432 245.179C286.145 245.179 281.866 249.957 281.866 255.846C281.866 261.742 286.151 266.514 291.432 266.514C296.713 266.514 300.998 261.736 300.998 255.846C300.998 249.957 296.719 245.179 291.432 245.179ZM298.062 256.191H291.432C291.261 256.191 291.128 256.037 291.128 255.852V247.907C291.128 247.717 291.267 247.568 291.432 247.568C291.597 247.568 291.736 247.722 291.736 247.907V255.514H298.056C298.227 255.514 298.36 255.668 298.36 255.852C298.365 256.037 298.227 256.191 298.062 256.191Z" fill="#F99746"/>
<path d="M340.665 251.877H310.292C309.227 251.877 308.358 250.908 308.358 249.719C308.358 248.531 309.227 247.562 310.292 247.562H340.665C341.731 247.562 342.599 248.531 342.599 249.719C342.599 250.908 341.731 251.877 340.665 251.877Z" fill="#EFCBAB"/>
<path d="M332.926 258.348H310.292C309.227 258.348 308.358 257.38 308.358 256.191C308.358 255.002 309.227 254.034 310.292 254.034H332.926C333.992 254.034 334.861 255.002 334.861 256.191C334.861 257.374 333.992 258.348 332.926 258.348Z" fill="#EFCBAB"/>
<path d="M290.478 286.482C285.719 286.482 281.866 290.785 281.866 296.086C281.866 301.393 290.478 313.183 290.478 313.183C290.478 313.183 299.09 301.393 299.09 296.086C299.09 290.779 295.232 286.482 290.478 286.482ZM290.478 300.477C288.256 300.477 286.454 298.469 286.454 295.99C286.454 293.512 288.256 291.504 290.478 291.504C292.7 291.504 294.502 293.512 294.502 295.99C294.502 298.469 292.7 300.477 290.478 300.477Z" fill="#F99746"/>
<path d="M338.357 293.483H307.985C306.919 293.483 306.051 292.514 306.051 291.325C306.051 290.137 306.919 289.168 307.985 289.168H338.357C339.423 289.168 340.292 290.137 340.292 291.325C340.292 292.508 339.418 293.483 338.357 293.483Z" fill="#EFCBAB"/>
<path d="M330.619 299.948H307.985C306.919 299.948 306.051 298.98 306.051 297.791C306.051 296.603 306.919 295.634 307.985 295.634H330.619C331.685 295.634 332.554 296.603 332.554 297.791C332.554 298.98 331.685 299.948 330.619 299.948Z" fill="#EFCBAB"/>
<path d="M104.104 285.894C103.47 268.546 102.111 253.463 100.475 242.938C97.8743 226.168 95.5294 216.516 95.5027 216.415C95.1616 214.942 90.2106 208.975 79.2055 209.159C68.2003 209.343 69.2449 217.17 69.2449 217.17C69.2449 217.438 69.2768 217.681 69.3248 217.866C69.4314 218.27 79.5359 259.115 79.0936 311.852C79.0882 312.595 79.0136 313.873 79.0616 314.722C79.0616 314.728 104.568 315.459 104.573 314.722C105.458 310.117 105.026 297.345 104.104 285.894Z" fill="#B7D3F3"/>
<path d="M107.307 311.59C107.302 312.327 106.95 312.916 106.529 312.916H106.518C106.092 312.904 105.756 312.316 105.751 311.59H83.8952C83.8898 312.327 83.5381 312.916 83.1171 312.916H83.1064C82.6748 312.904 82.3337 312.298 82.339 311.555C82.4669 296.46 81.6941 282.363 80.527 269.919C77.6225 238.891 72.2505 218.151 72.1759 217.866C72.1279 217.681 72.0959 217.432 72.0959 217.17C72.0959 217.17 71.0514 209.343 82.0565 209.159C93.0617 208.975 98.0127 214.942 98.3591 216.421C98.3804 216.499 99.7075 221.96 101.466 231.784C102.052 235.04 102.681 238.773 103.326 242.944C104.957 253.469 106.321 268.558 106.955 285.899C107.872 297.339 108.197 306.985 107.307 311.59Z" fill="#D2E3FC"/>
<path d="M80.7192 312.916H166.41C166.41 312.916 164.417 303.912 114.79 305.249C79.6693 306.2 80.7192 312.916 80.7192 312.916Z" fill="#C5DCF8"/>
<path d="M73.748 406.973C83.682 350.885 81.1292 316.47 81.1186 316.036C81.0919 315.174 82.5202 314.39 83.2876 314.36C84.0657 314.342 87.4925 314.104 87.8922 314.841C88.4145 315.81 90.413 358.212 75.608 406.968H73.748V406.973Z" fill="#B7D3F3"/>
<path d="M153.753 406.973C143.819 350.885 146.372 316.47 146.382 316.036C146.409 315.174 144.981 314.39 144.213 314.36C143.435 314.342 140.008 314.104 139.609 314.841C139.086 315.81 137.088 358.212 151.898 406.968H153.753V406.973Z" fill="#B7D3F3"/>
<path d="M169.608 406.973C159.674 350.885 162.227 316.47 162.237 316.036C162.264 315.174 160.836 314.39 160.068 314.36C159.29 314.342 155.863 314.104 155.464 314.841C154.941 315.81 152.943 358.212 167.753 406.968H169.608V406.973Z" fill="#B7D3F3"/>
<path d="M89.71 406.973C99.6439 350.885 97.0912 316.47 97.0805 316.036C97.0539 315.174 98.4821 314.39 99.2496 314.36C100.028 314.342 103.454 314.104 103.854 314.841C104.376 315.81 106.375 358.212 91.5646 406.968H89.71V406.973Z" fill="#B7D3F3"/>
<path d="M165.883 315.792H81.3479C80.0636 315.792 79.0137 314.621 79.0137 313.189C79.0137 311.757 80.0636 310.586 81.3479 310.586H165.883C167.167 310.586 168.217 311.757 168.217 313.189C168.217 314.621 167.167 315.792 165.883 315.792Z" fill="#B7D3F3"/>
<path d="M163.452 229.496L191.938 222.614L193.617 227.172C193.617 227.172 162.189 248.026 159.242 247.003C156.295 245.987 163.452 229.496 163.452 229.496Z" fill="#FFB27D"/>
<path d="M137.557 373.147C136.843 374.056 136.752 375.078 137.104 376.166C137.104 376.172 137.104 376.178 137.109 376.184C137.765 378.198 139.918 380.445 142.423 382.685C142.742 382.976 143.03 383.238 143.275 383.475C143.339 383.541 143.403 383.6 143.467 383.666C143.515 383.713 143.568 383.767 143.616 383.814C145.951 386.215 145.071 386.768 149.271 391.641C154.057 397.192 157.356 397.293 158.288 396.787C159.082 396.354 157.467 393.412 155.682 390.102C155.597 389.941 155.512 389.781 155.421 389.62C155.181 389.181 154.947 388.735 154.712 388.289C152.618 384.307 153.156 382.435 153.652 376.504C154.057 371.685 160.372 349.583 160.372 349.583L151.2 347.824C151.2 347.824 148.439 365.421 145.396 368.131C143.771 369.575 141.948 369.593 140.381 370.663C140.27 370.74 140.163 370.811 140.056 370.894C139.177 371.554 138.271 372.232 137.557 373.147Z" fill="#FFB27D"/>
<path d="M137.557 373.147C136.843 374.056 136.752 375.078 137.104 376.166C137.104 376.172 137.104 376.178 137.109 376.184C137.909 378.192 140.014 380.427 142.433 382.667C142.748 382.958 143.03 383.232 143.275 383.481C143.339 383.547 143.403 383.606 143.467 383.672C143.515 383.719 143.568 383.773 143.616 383.82C145.951 386.221 145.071 386.774 149.271 391.647C154.057 397.198 157.356 397.299 158.288 396.793C159.082 396.36 157.467 393.418 155.682 390.108C154.749 389.727 150.422 387.766 147.15 383.095C144.267 378.995 142.348 373.723 140.381 370.675C140.27 370.752 140.163 370.823 140.056 370.906C139.177 371.554 138.271 372.232 137.557 373.147Z" fill="#1C468A"/>
<path d="M211.518 366.758C212.083 369.914 216.122 369.391 220.631 368.161C225.14 366.931 224.069 368.392 230.485 367.602C236.902 366.812 238.847 364.143 239.044 363.08C239.22 362.135 236.049 361.802 232.649 361.368C232.223 361.315 231.791 361.255 231.364 361.196C227.522 360.661 224.713 357.897 221.223 355.627C217.918 353.476 212.989 344.722 212.989 344.722L204.19 345.501C204.19 345.501 208.811 353.321 210.596 356.721C211.646 358.723 211.592 361.368 211.459 363.406C211.385 364.512 211.315 365.647 211.518 366.758Z" fill="#FFB27D"/>
<path d="M220.631 368.161C225.14 366.931 224.069 368.392 230.485 367.602C236.902 366.812 238.847 364.143 239.044 363.08C239.22 362.135 236.049 361.802 232.649 361.368L232.617 361.439C232.617 361.439 228.769 364.482 223.429 364.625C219.075 364.744 214.465 363.353 211.459 363.406C211.39 364.518 211.326 365.653 211.529 366.764C212.083 369.914 216.123 369.391 220.631 368.161Z" fill="#1C468A"/>
<path d="M191.938 222.614C191.938 222.614 194.032 216.885 196.34 216.653C198.647 216.421 205.986 215.132 206.508 216.303C207.03 217.473 206.508 221.681 204.936 223.202C203.364 224.724 193.611 227.178 193.611 227.178L191.938 222.614Z" fill="#FFB27D"/>
<path d="M177.789 304.007L158.821 360.928C158.821 360.928 155.906 361.243 153.114 360.346C150.545 359.52 147.598 357.351 147.598 357.351C147.598 357.351 152.303 302.694 160.926 291.325C169.555 279.957 177.789 304.007 177.789 304.007Z" fill="#163560"/>
<path d="M102.766 280.979C102.766 280.979 157.27 260.428 169.421 264.802C181.577 269.176 218.073 350.142 218.073 350.142C218.073 350.142 217.252 351.366 215.003 352.305C212.914 353.179 207.851 353.125 207.851 353.125C207.851 353.125 174.916 321.646 170.993 312.464C167.071 303.282 165.504 294.534 161.581 295.414C157.659 296.288 111 316.838 100.416 304.596C89.8319 292.353 92.5979 276.444 92.5979 276.444L102.766 280.979Z" fill="#1C468A"/>
<path d="M133.842 136.068C131.487 134.576 128.662 134.41 126.69 134.541C127.197 133.958 128.199 133.744 128.199 133.744C126.973 133.542 124.239 134.897 124.239 134.897C107.206 127.576 104.526 155.549 104.888 162.044C105.245 168.54 105.288 176.022 96.7819 181.846C80.053 193.31 94.1652 213.331 94.1652 213.331C94.2984 213.42 101.951 227.891 101.951 227.891C101.52 222.638 123.248 194.932 134.583 186.636C137.344 182.107 138.324 174.102 138.399 173.472C137.925 179.819 136.949 183.373 136.081 185.382C145.674 175.523 140.083 140.026 133.842 136.068Z" fill="#B5453C"/>
<path d="M133.911 187.04C133.97 187.07 128.438 190.273 124.281 189.001C120.369 187.812 117.811 182.155 117.865 182.143C119.522 181.774 120.002 179.237 119.964 168.326L120.716 168.492L133.309 171.273C133.309 171.273 133.021 175.695 133.016 179.855C133 183.355 133.192 186.671 133.911 187.04Z" fill="#FFB27D"/>
<path d="M133.304 171.273C133.304 171.273 133.016 175.695 133.011 179.855C125.966 179.635 122.24 172.462 120.711 168.492L133.304 171.273Z" fill="#ED975D"/>
<path d="M119.41 166.965C119.41 166.965 115.717 160.457 114.832 154.895C114.198 150.925 116.015 136.199 129.285 138.32C129.285 138.32 133.138 138.742 136.762 141.47C139.646 143.639 143.803 148.322 139.15 161.171L137.94 165.509L119.41 166.965Z" fill="#B5453C"/>
<path d="M135.659 175.219C135.659 175.219 118.984 175.529 118.973 163.946C118.963 152.363 116.804 144.602 127.447 143.918C138.095 143.235 140.163 147.651 141.01 151.513C141.863 155.376 139.998 174.839 135.659 175.219Z" fill="#FFB27D"/>
<path d="M135.041 143.627C135.041 143.627 130.474 157.213 123.471 159.221C116.463 161.23 113.425 159.138 113.425 159.138C113.425 159.138 118.797 154.378 119.916 146.07C119.916 146.07 131.599 137.161 135.041 143.627Z" fill="#B5453C"/>
<path d="M133.912 144.733C133.912 144.733 137.322 147.763 138.154 150.717C138.985 153.665 139.358 159.738 140.946 159.53C140.946 159.53 144.384 150.295 140.52 145.071C136.422 139.533 133.912 144.733 133.912 144.733Z" fill="#B5453C"/>
<path d="M96.7818 237.067C95.135 229.377 100.731 214.454 106.572 202.099C111.869 190.903 117.369 181.816 117.865 182.143C131.838 191.39 133.101 183.7 133.101 183.7C133.107 183.7 145.796 185.578 149.388 192.478C153.849 201.041 158.661 224.961 163.447 229.49C162.712 231.998 163.026 233.335 163.804 236.437C163.969 237.103 164.156 237.738 164.358 238.339C165.078 240.526 165.984 242.297 166.762 243.842C164.332 245.488 159.631 248.626 156.172 246.368C150.896 242.927 146.782 232.443 144.464 228.271C144.453 228.254 144.448 228.242 144.437 228.224C139.401 260.006 146.249 267.245 142.785 270.591C139.124 274.127 133.896 268.903 122.395 274.465C114.848 278.114 104.381 283.392 97.3307 284.307C93.6321 284.788 90.8768 284.075 89.9761 281.288C87.3701 273.211 99.9154 251.722 96.7818 237.067Z" fill="#1C468A"/>
<path d="M131.95 168.195C131.95 168.195 132.259 169.669 135.542 169.437C135.542 169.437 138.298 169.247 138.212 167.631C138.218 167.636 135.548 166.484 131.95 168.195Z" fill="white"/>
<path d="M89.9814 281.3C90.8821 284.081 93.6374 284.8 97.336 284.319C102.212 281.947 123.285 272.843 123.05 266.674C122.699 257.54 119 257.249 121.611 245.975C123.711 236.924 104.238 220.094 101.136 216.433C95.2948 228.789 95.1349 229.371 96.7764 237.061C99.9154 251.722 87.37 273.211 89.9814 281.3Z" fill="#163560"/>
<path d="M87.5991 248.358C91.335 242.505 95.2308 239.414 97.7889 237.857C97.1974 236.164 113.505 213.866 113.505 210.413C113.505 206.913 117.854 182.143 117.854 182.143C117.854 182.143 104.264 183.076 99.5583 190.398C93.6853 199.55 81.465 234.761 87.5991 248.358Z" fill="#1C468A"/>
<path d="M97.7942 237.857L124.947 245.761L122.4 250.86C122.4 250.86 89.3525 250.605 87.6045 248.358C85.8511 246.118 97.7942 237.857 97.7942 237.857Z" fill="#FFB27D"/>
<path d="M144.469 228.277C146.788 232.449 150.902 242.933 156.178 246.373C159.637 248.626 164.337 245.494 166.767 243.848C165.989 242.309 165.089 240.532 164.364 238.345C162.424 238.838 160.052 239.474 158.528 239.985C155.554 240.989 144.469 228.277 144.469 228.277Z" fill="#163560"/>
<path d="M124.947 245.755C124.947 245.755 133.474 243.063 135.505 243.693C137.535 244.323 144.495 249.464 143.515 250.854C142.534 252.251 136.405 250.016 133.586 250.438C130.767 250.86 128.582 252.411 126.551 252.079C124.521 251.746 122.395 250.854 122.395 250.854L124.947 245.755Z" fill="#FFB27D"/>
<path d="M124.948 245.755C124.948 245.755 129.121 243.366 130.309 242.005C130.458 241.833 130.714 241.869 130.826 242.071C131.146 242.629 131.444 243.711 129.979 244.787C127.874 246.332 124.948 245.755 124.948 245.755Z" fill="#FFB27D"/>
<path d="M164.358 259.139H124.574C124.574 257.184 125.992 255.603 127.745 255.603H164.358V259.139Z" fill="#ED7D2B"/>
<path d="M164.241 210.817H225.753L210.995 259.139H149.089L164.241 210.817Z" fill="#ED7D2B"/>
<path d="M226.658 210.817L211.901 259.133H149.995L165.147 210.817H226.658Z" fill="#F99746"/>
<path d="M193.494 234.529C193.11 236.378 191.458 237.869 189.806 237.869C188.154 237.869 187.12 236.372 187.498 234.529C187.882 232.681 189.534 231.189 191.186 231.189C192.844 231.189 193.878 232.687 193.494 234.529Z" fill="#F9DDBF"/>
<path d="M226.658 210.817L211.901 259.133H170.902C198.061 248.798 205.288 217.277 206.503 210.817H226.658Z" fill="#ED893E"/>
<path d="M48.0868 406.973C48.8649 406.973 49.5311 406.361 49.6643 405.529L57.3919 356.703L68.5037 286.476L71.6107 266.841L63.6966 266.591L62.3216 277.99L52.6807 358.099L46.9623 405.583C46.8717 406.32 47.3993 406.973 48.0868 406.973Z" fill="#95C0F4"/>
<path d="M62.3218 277.984C67.4486 280.509 68.5039 286.476 68.5039 286.476L71.6109 266.841L63.6968 266.591L62.3218 277.984Z" fill="#78ACEA"/>
<path d="M244.949 406.973C244.171 406.973 243.505 406.361 243.372 405.529L235.644 356.703L224.532 286.476L221.431 266.835L229.345 266.585L230.72 277.984L240.361 358.093L246.079 405.577C246.164 406.32 245.637 406.973 244.949 406.973Z" fill="#95C0F4"/>
<path d="M230.714 277.984C225.588 280.509 224.532 286.476 224.532 286.476L221.431 266.835L229.345 266.585L230.714 277.984Z" fill="#78ACEA"/>
<path d="M44.8946 274.549H243.404C247.209 274.549 250.316 271.078 250.316 266.841C250.316 262.597 247.203 259.133 243.404 259.133H44.8946C41.0895 259.133 37.9824 262.603 37.9824 266.841C37.9771 271.078 41.0895 274.549 44.8946 274.549Z" fill="#78ACEA"/>
<path d="M697.078 409H0.927313C0.415692 409 0 408.537 0 407.966C0 407.395 0.415692 406.932 0.927313 406.932H697.078C697.59 406.932 698.005 407.395 698.005 407.966C698 408.531 697.584 409 697.078 409Z" fill="#4F2E52"/>
<path d="M514.397 155.347C514.397 155.347 511.567 145.166 509.963 144.073C508.359 142.979 501.655 139.295 501.26 140.293C500.861 141.286 504.879 146.123 505.769 147.74C506.659 149.35 507.107 150.943 506.483 150.248C505.86 149.552 502.465 147.223 502.108 147.74C501.751 148.257 503.802 150.248 504.783 151.84C505.764 153.433 506.835 156.119 510.315 156.719C513.795 157.308 514.397 155.347 514.397 155.347Z" fill="#FFB27D"/>
<path d="M617.537 241.055C617.537 241.055 616.69 250.248 615.757 251.99C614.824 253.731 610.864 259.287 609.175 260.375C607.486 261.468 610.204 253.053 609.862 251.413C609.516 249.773 608.471 254.402 607.731 254.509C606.985 254.616 607.176 250.456 607.15 248.941C607.123 247.425 610.768 243.687 612.053 240.46C613.343 237.239 617.537 241.055 617.537 241.055Z" fill="#FFB27D"/>
<path d="M591.679 146.712C591.679 146.712 584.82 184.241 547.093 196.501C535.315 200.328 508.556 157.088 508.556 157.088C508.556 157.088 509.499 153.1 515.388 154.015C515.388 154.015 541.444 173.247 544.721 175.338C547.631 177.193 566.774 151.507 575.499 147.359C584.223 143.217 591.679 146.712 591.679 146.712Z" fill="#233862"/>
<path d="M636.728 382.614C636.728 382.614 641.407 387.38 640.496 390.761C639.585 394.149 635.358 396.401 634.788 400.537C634.218 404.674 631.932 406.932 629.88 406.932C627.823 406.932 620.084 406.932 620.084 406.932C620.084 406.932 618.571 404.02 622.227 403.146C625.877 402.267 627.258 397.406 627.029 392.895C626.799 388.384 627.37 382.364 627.37 382.364L635.135 380.356L636.728 382.614Z" fill="#233862"/>
<path d="M579.298 394.933C579.298 394.933 580.14 405.773 578.083 406.902L551.783 406.843C551.783 406.843 551.783 403.455 556.009 402.707C560.235 401.958 567.654 399.194 568.911 393.055C570.169 386.91 579.298 394.933 579.298 394.933Z" fill="#233862"/>
<path d="M557.096 241.803C557.096 241.803 558.482 260.809 560.113 283.647C562.33 314.675 564.994 352.792 565.256 360.013C565.709 372.552 567.542 392.604 567.542 392.604C567.542 392.604 571.88 397.37 580.556 395.361C580.556 395.361 588.289 366.734 590.501 336.438C590.533 335.938 590.57 335.439 590.602 334.94C592.659 304.103 595.852 239.171 595.852 239.171L557.096 241.803Z" fill="#F99746"/>
<path d="M557.096 241.803C557.096 241.803 558.482 260.809 560.113 283.647L590.501 336.438C590.533 335.938 590.57 335.439 590.602 334.94C592.659 304.103 595.852 239.171 595.852 239.171L557.096 241.803Z" fill="#ED7D2B"/>
<path d="M563.433 244.056C563.433 244.056 588.433 312.874 604.874 345.215C621.315 377.556 626.453 386.584 626.453 386.584C626.453 386.584 635.87 382.447 636.728 379.624C636.728 379.624 630.439 317.189 619.434 301.969C613.214 293.37 605.903 267.56 605.561 258.533C605.22 249.505 603.334 231.647 603.334 231.647L563.433 244.056Z" fill="#F99746"/>
<path d="M596.326 137.999C596.326 137.999 579.41 147.104 569.658 143.722C569.658 143.722 572.056 140.347 576.261 137.833C575.925 135.652 575.659 133.756 575.509 132.152C575.099 128.443 575.099 126.345 575.099 126.345L581.627 120.622L587.815 115.143C587.325 130.547 596.326 137.999 596.326 137.999Z" fill="#FFB27D"/>
<path d="M605.242 235.171C605.279 236.324 603.068 237.643 602.092 238.137C594.855 241.679 588.103 244.151 580.45 244.977C571.411 246.005 560.72 243.741 557.043 243.824C556.67 243.824 556.329 243.658 556.03 243.372C555.769 243.164 555.583 231.017 555.769 215.738C555.769 215.126 555.769 214.508 555.807 213.884V213.676C555.881 207.703 556.068 201.445 556.329 195.182C556.851 181.424 557.832 168.165 559.479 160.832C561.467 152.185 565.97 146.456 570.057 142.296L573.431 139.004C576.81 139.747 580.37 139.539 583.935 137.601C587.836 135.503 592.036 133.233 592.713 133.81C597.813 137.97 601.266 147.318 603.105 159.263C603.116 159.322 603.126 159.382 603.132 159.441C604.16 166.276 604.677 173.912 604.64 181.917C604.64 184.883 604.565 187.931 604.416 190.938C603.665 204.559 604.166 216.683 604.661 225.086C604.757 226.744 604.858 228.26 604.944 229.615C605.093 232.004 605.205 233.858 605.242 235.171Z" fill="#2A4E96"/>
<path d="M604.661 225.086C576.618 188.983 594.013 162.745 594.013 162.745L603.132 159.447C604.16 166.281 604.677 173.918 604.64 181.923C604.64 184.889 604.565 187.937 604.416 190.944C603.665 204.559 604.171 216.683 604.661 225.086Z" fill="#233862"/>
<path d="M587.927 121.032C587.927 121.032 583.652 129.721 575.509 132.152C575.099 128.443 575.099 126.345 575.099 126.345L581.627 120.622L587.927 121.032Z" fill="#ED985F"/>
<path d="M572.12 126.096C572.12 126.096 588.257 129.037 589.771 117.978C591.284 106.912 594.386 99.8461 584.148 97.4987C573.911 95.1513 571.326 99.0439 569.999 102.598C568.683 106.152 567.963 125.044 572.12 126.096Z" fill="#FFB27D"/>
<path d="M595.638 96.1675C595.788 95.9774 596.123 95.8288 596.875 95.7812C596.875 95.7812 596.273 95.3593 595.468 95.3415C595.313 94.1767 594.754 92.1085 592.952 91.6093C592.952 91.6093 593.917 92.1858 594.045 93.4219C591.961 91.0329 587.495 89.2976 575.126 90.3851C558.828 91.8173 564.195 103.459 566.305 104.844C568.416 106.229 573.729 102.425 577.657 102.776C581.59 103.127 582.336 109.462 583.669 110.329C585.001 111.197 584.479 109.664 586.285 108.755C588.092 107.845 588.263 111.179 587.74 113.348C587.218 115.517 589.696 118.376 589.696 118.376C589.696 118.376 589.696 118.376 592.201 115.369C594.706 112.362 597.067 99.6144 595.932 96.8985C595.841 96.6548 595.74 96.4112 595.638 96.1675Z" fill="#2C3A64"/>
<path d="M592.707 133.72C592.707 133.72 602.918 139.111 607.816 147.401C615.41 160.261 624.214 207.115 624.374 211.459C624.539 215.797 617.947 246.433 617.947 246.433C617.947 246.433 611.264 245.94 609.543 242.184C609.543 242.184 610.875 210.71 610.033 208.684C609.185 206.663 582.182 166.46 585.214 157.884C588.252 149.303 592.707 133.72 592.707 133.72Z" fill="#2A4E96"/>
<path d="M507.123 204.179H468.65C464.653 204.179 461.38 200.53 461.38 196.073C461.38 191.616 464.653 187.967 468.65 187.967H507.123C511.12 187.967 514.392 191.616 514.392 196.073C514.397 200.53 511.125 204.179 507.123 204.179Z" fill="#FCECDB"/>
<path d="M487.798 199.615C487.516 199.615 487.249 199.449 487.105 199.169L484.99 195.134C484.766 194.706 484.894 194.159 485.277 193.91C485.661 193.66 486.151 193.803 486.375 194.231L487.734 196.816L490.292 190.95C490.484 190.505 490.969 190.32 491.363 190.534C491.763 190.748 491.928 191.289 491.737 191.729L488.523 199.098C488.395 199.395 488.129 199.591 487.83 199.603C487.819 199.615 487.809 199.615 487.798 199.615Z" fill="#F99746"/>
<path d="M487.798 201.69C485.048 201.69 482.815 199.194 482.815 196.133C482.815 193.067 485.054 190.577 487.798 190.577C490.548 190.577 492.781 193.073 492.781 196.133C492.787 199.194 490.548 201.69 487.798 201.69ZM487.798 191.224C485.374 191.224 483.396 193.423 483.396 196.133C483.396 198.837 485.368 201.042 487.798 201.042C490.223 201.042 492.2 198.843 492.2 196.133C492.2 193.423 490.229 191.224 487.798 191.224Z" fill="#F99746"/>
<path d="M260.564 145.939H217.529C211.875 145.939 207.249 151.097 207.249 157.403V175.558C207.249 178.441 208.219 181.079 209.807 183.1L207.249 196.132L221.995 187.022H260.564C266.219 187.022 270.845 181.864 270.845 175.558V157.403C270.845 151.097 266.219 145.939 260.564 145.939Z" fill="#D2E3FC"/>
<path d="M261.374 159.774H216.762C215.845 159.774 215.094 158.936 215.094 157.914C215.094 156.892 215.845 156.054 216.762 156.054H261.374C262.291 156.054 263.042 156.892 263.042 157.914C263.048 158.936 262.296 159.774 261.374 159.774Z" fill="#B7D3F3"/>
<path d="M261.374 167.922H216.762C215.845 167.922 215.094 167.084 215.094 166.062C215.094 165.039 215.845 164.201 216.762 164.201H261.374C262.291 164.201 263.042 165.039 263.042 166.062C263.048 167.084 262.296 167.922 261.374 167.922Z" fill="#B7D3F3"/>
<path d="M261.374 175.766H216.762C215.845 175.766 215.094 174.928 215.094 173.906C215.094 172.884 215.845 172.046 216.762 172.046H261.374C262.291 172.046 263.042 172.884 263.042 173.906C263.048 174.928 262.296 175.766 261.374 175.766Z" fill="#B7D3F3"/>
</g>
<defs>
<clipPath id="clip0">
<rect width="698" height="409" fill="white"/>
</clipPath>
</defs>
</svg>
