<svg width="551" height="323" viewBox="0 0 551 323" fill="none" xmlns="http://www.w3.org/2000/svg">
<g clip-path="url(#clip0)">
<path d="M46.1551 322.329C46.1551 322.329 -17.9597 245.533 35.3136 162.391C82.5793 88.6227 137.691 93.6632 178.12 123.602C195.34 136.353 244.991 125.174 287.246 50.1097C344.874 -52.2552 544.631 9.82738 508.211 167.324C490.583 243.538 561.854 246.312 525.539 322.498L46.1551 322.329Z" fill="#EBF3FA"/>
<path d="M367.558 321.602H267.292C259.808 321.602 253.683 314.769 253.683 306.419V66.9267C253.683 58.5774 259.808 51.744 267.292 51.744H367.558C375.042 51.744 381.168 58.5774 381.168 66.9267V306.424C381.168 314.773 375.046 321.602 367.558 321.602Z" fill="#78ACEA"/>
<path d="M387.907 59.0178V314.327C387.907 318.33 384.971 321.601 381.382 321.601H266.943C263.355 321.601 260.422 318.326 260.422 314.327V59.0178C260.422 55.0145 263.355 51.7386 266.943 51.7386H381.382C384.971 51.7386 387.907 55.0145 387.907 59.0178Z" fill="#AFCDFB"/>
<path opacity="0.4" d="M342.846 61.9558H309.707C308.996 61.9558 308.42 61.3082 308.42 60.515C308.42 59.7218 309 59.0789 309.707 59.0789H342.846C343.557 59.0789 344.137 59.7265 344.137 60.515C344.137 61.3082 343.557 61.9558 342.846 61.9558Z" fill="#5E92DD"/>
<path opacity="0.4" d="M303.822 61.9558C303.111 61.9558 302.53 61.3082 302.53 60.515C302.53 59.7218 303.111 59.0789 303.822 59.0789C304.533 59.0789 305.109 59.7265 305.109 60.515C305.109 61.3082 304.529 61.9558 303.822 61.9558Z" fill="#5E92DD"/>
<path d="M334.058 306.691C334.058 309.239 333.136 311.544 331.647 313.224C330.141 314.923 328.05 315.97 325.741 315.97C321.147 315.97 317.423 311.816 317.423 306.691C317.423 303.396 318.963 300.505 321.281 298.863C322.568 297.947 324.1 297.417 325.741 297.417C330.335 297.417 334.058 301.566 334.058 306.691Z" fill="#95C0F4"/>
<path d="M381.104 68.3668H268.054V292.855H381.104V68.3668Z" fill="#95C0F4"/>
<path d="M331.647 313.224C330.141 314.923 328.05 315.97 325.741 315.97C321.147 315.97 317.423 311.816 317.423 306.691C317.423 303.396 318.963 300.505 321.281 298.863C322.102 302.81 324.516 309.418 331.647 313.224Z" fill="#8CBAF1"/>
<path opacity="0.9" d="M379.476 95.2029H379.211H326.872H274.267C273.376 95.2029 272.644 96.2589 272.644 97.5543V172.595C272.644 173.886 273.376 174.942 274.267 174.942H326.872H379.211H379.476C380.372 174.942 381.104 173.886 381.104 172.595V97.5543C381.104 96.2589 380.372 95.2029 379.476 95.2029Z" fill="#78ACEA"/>
<path opacity="0.9" d="M340.225 186.37H340.019H299.211H258.196C257.498 186.37 256.93 187.426 256.93 188.721V263.762C256.93 265.052 257.502 266.108 258.196 266.108H299.211H340.019H340.225C340.923 266.108 341.491 265.052 341.491 263.762V188.716C341.495 187.426 340.923 186.37 340.225 186.37Z" fill="#78ACEA"/>
<path d="M419.476 90.796V165.837C419.476 167.127 418.53 168.183 417.368 168.183H281.145C279.989 168.183 279.042 167.127 279.042 165.837V90.796C279.042 89.5006 279.989 88.4446 281.145 88.4446H417.368C418.53 88.4446 419.476 89.5006 419.476 90.796Z" fill="#FCECDB"/>
<path d="M419.472 90.796V165.837C419.472 167.127 418.37 168.183 417.023 168.183H349.257V88.4446H417.023C418.374 88.4446 419.472 89.5006 419.472 90.796Z" fill="#F99746"/>
<path d="M382.521 117.571H358.546C357.704 117.571 357.019 116.806 357.019 115.867C357.019 114.929 357.704 114.164 358.546 114.164H382.521C383.363 114.164 384.049 114.929 384.049 115.867C384.049 116.806 383.363 117.571 382.521 117.571Z" fill="#FCECDB"/>
<path d="M376.417 122.682H358.55C357.708 122.682 357.022 121.917 357.022 120.978C357.022 120.04 357.708 119.275 358.55 119.275H376.417C377.258 119.275 377.944 120.04 377.944 120.978C377.944 121.917 377.254 122.682 376.417 122.682Z" fill="#FCECDB"/>
<path d="M358.866 98.4895C359.438 97.6447 360.199 97.2223 361.117 97.2223C362.038 97.2223 362.783 97.6447 363.359 98.4801C363.931 99.3155 364.213 100.353 364.213 101.596C364.213 102.84 363.931 103.877 363.359 104.713C362.787 105.548 362.038 105.971 361.117 105.971C360.195 105.971 359.438 105.548 358.866 104.713C358.294 103.877 358.012 102.84 358.012 101.596C358.008 100.362 358.289 99.3202 358.866 98.4895ZM362.774 99.0667C362.341 98.3909 361.79 98.053 361.117 98.053C360.443 98.053 359.892 98.3909 359.459 99.0667C359.026 99.7426 358.811 100.587 358.811 101.592C358.811 102.605 359.026 103.45 359.451 104.126C359.884 104.793 360.435 105.13 361.117 105.13C361.798 105.13 362.349 104.793 362.774 104.126C363.207 103.45 363.422 102.605 363.422 101.592C363.422 100.592 363.207 99.7426 362.774 99.0667Z" fill="#FCECDB"/>
<path d="M370.397 98.2677C370.906 98.9576 371.167 99.9338 371.167 101.177C371.209 103.81 369.934 105.983 367.877 105.96C367.259 105.96 366.72 105.791 366.274 105.439V104.58C366.75 104.941 367.259 105.125 367.81 105.125C369.606 105.125 370.355 103.299 370.389 101.511C369.989 102.271 369.198 102.769 368.167 102.769C367.486 102.769 366.901 102.515 366.426 102.018C365.959 101.511 365.723 100.858 365.723 100.075C365.723 99.2392 365.971 98.5633 366.459 98.0189C366.956 97.4745 367.574 97.2117 368.302 97.2117C369.181 97.2211 369.888 97.5684 370.397 98.2677ZM367.027 98.6337C366.682 99.0092 366.506 99.4926 366.506 100.084C366.506 100.666 366.678 101.121 367.036 101.473C367.393 101.825 367.827 101.994 368.357 101.994C368.803 101.994 369.211 101.839 369.589 101.525C369.968 101.21 370.216 100.825 370.359 100.351C370.229 98.9012 369.514 98.0565 368.336 98.0565C367.818 98.0518 367.385 98.2442 367.027 98.6337Z" fill="#FCECDB"/>
<path d="M372.766 100.323C372.98 100.084 373.351 100.084 373.565 100.323C373.78 100.563 373.78 100.976 373.565 101.215C373.351 101.454 372.98 101.454 372.766 101.215C372.551 100.976 372.551 100.563 372.766 100.323ZM372.766 104.815C372.98 104.575 373.351 104.575 373.565 104.815C373.78 105.054 373.78 105.467 373.565 105.707C373.351 105.946 372.98 105.946 372.766 105.707C372.551 105.467 372.551 105.059 372.766 104.815Z" fill="#FCECDB"/>
<path d="M376.514 105.818V98.3277L374.814 99.4166V98.5577L376.602 97.3609H377.305V105.818H376.514Z" fill="#FCECDB"/>
<path d="M380.065 98.4873C380.637 97.6425 381.399 97.2201 382.316 97.2201C383.233 97.2201 383.982 97.6425 384.558 98.4779C385.13 99.3133 385.412 100.351 385.412 101.594C385.412 102.838 385.13 103.875 384.558 104.711C383.986 105.546 383.237 105.968 382.316 105.968C381.394 105.968 380.637 105.546 380.065 104.711C379.493 103.875 379.211 102.838 379.211 101.594C379.211 100.36 379.489 99.318 380.065 98.4873ZM383.973 99.0645C383.54 98.3887 382.989 98.0508 382.316 98.0508C381.643 98.0508 381.091 98.3887 380.658 99.0645C380.225 99.7404 380.01 100.585 380.01 101.59C380.01 102.603 380.225 103.448 380.65 104.124C381.083 104.79 381.634 105.128 382.316 105.128C382.997 105.128 383.548 104.79 383.973 104.124C384.407 103.448 384.621 102.603 384.621 101.59C384.621 100.59 384.407 99.7404 383.973 99.0645Z" fill="#FCECDB"/>
<path d="M390.082 105.818V97.3609H393.267C394.781 97.3609 395.694 98.3042 395.694 99.7028C395.694 101.139 394.785 102.082 393.267 102.082H390.886V105.813H390.082V105.818ZM390.881 101.275H393.208C394.281 101.275 394.899 100.707 394.899 99.731C394.899 98.7266 394.281 98.1728 393.208 98.1728H390.881V101.275Z" fill="#FCECDB"/>
<path d="M397.28 105.818V97.3609H398.071L400.809 101.453L403.548 97.3609H404.327V105.818H403.536V98.7173L401.058 102.416H400.57L398.066 98.7173V105.818H397.28Z" fill="#FCECDB"/>
<path d="M319.471 168.183H281.145C279.989 168.183 279.042 167.127 279.042 165.837V114.84C289.488 128.61 309.947 155.605 319.471 168.183Z" fill="#F9E5D1"/>
<path d="M313.893 98.324C306.223 98.324 300.005 105.261 300.005 113.816C300.005 122.372 313.893 141.389 313.893 141.389C313.893 141.389 327.78 122.368 327.78 113.816C327.776 105.256 321.558 98.324 313.893 98.324ZM313.893 120.894C310.308 120.894 307.401 117.651 307.401 113.652C307.401 109.654 310.308 106.41 313.893 106.41C317.477 106.41 320.384 109.654 320.384 113.652C320.38 117.656 317.477 120.894 313.893 120.894Z" fill="#F99746"/>
<path d="M312.723 154.244H288.747C287.906 154.244 287.22 153.479 287.22 152.541C287.22 151.602 287.906 150.837 288.747 150.837H312.723C313.565 150.837 314.25 151.602 314.25 152.541C314.25 153.479 313.565 154.244 312.723 154.244Z" fill="#EFCBAB"/>
<path d="M306.615 159.355H288.747C287.906 159.355 287.22 158.59 287.22 157.652C287.22 156.713 287.906 155.948 288.747 155.948H306.615C307.456 155.948 308.142 156.713 308.142 157.652C308.142 158.59 307.456 159.355 306.615 159.355Z" fill="#EFCBAB"/>
<path d="M352.21 182.958V257.998C352.21 259.289 351.264 260.345 350.107 260.345H213.884C212.723 260.345 211.776 259.289 211.776 257.998V182.958C211.776 181.667 212.723 180.611 213.884 180.611H350.107C351.264 180.611 352.21 181.667 352.21 182.958Z" fill="#FCECDB"/>
<path d="M352.21 182.958V257.998C352.21 259.294 351.264 260.35 350.107 260.35H289.518V180.611H350.107C351.264 180.611 352.21 181.667 352.21 182.958Z" fill="#F99746"/>
<path d="M320.405 236.728C319.202 236.728 318.083 236.015 317.473 234.851L308.52 217.777C307.574 215.97 308.116 213.647 309.736 212.591C311.356 211.535 313.438 212.14 314.385 213.947L320.127 224.901L330.943 200.079C331.764 198.197 333.796 197.413 335.483 198.328C337.17 199.243 337.872 201.51 337.052 203.392L323.459 234.593C322.912 235.851 321.785 236.672 320.535 236.724C320.493 236.728 320.447 236.728 320.405 236.728Z" fill="#FCECDB"/>
<path d="M320.405 245.514C308.777 245.514 299.315 234.959 299.315 221.987C299.315 209.015 308.777 198.46 320.405 198.46C332.033 198.46 341.495 209.015 341.495 221.987C341.495 234.959 332.033 245.514 320.405 245.514ZM320.405 201.219C310.14 201.219 301.789 210.535 301.789 221.987C301.789 233.439 310.14 242.755 320.405 242.755C330.67 242.755 339.021 233.439 339.021 221.987C339.021 210.535 330.67 201.219 320.405 201.219Z" fill="#FCECDB"/>
<path d="M251.676 260.345H213.884C212.723 260.345 211.776 259.289 211.776 257.998V199.928L251.676 260.345Z" fill="#F9E5D1"/>
<path d="M230.056 193.625C225.883 193.625 222.504 197.399 222.504 202.05C222.504 206.706 225.887 210.474 230.056 210.474C234.225 210.474 237.607 206.701 237.607 202.05C237.607 197.399 234.229 193.625 230.056 193.625ZM235.289 202.322H230.056C229.921 202.322 229.816 202.2 229.816 202.055V195.78C229.816 195.63 229.926 195.512 230.056 195.512C230.186 195.512 230.296 195.634 230.296 195.78V201.787H235.285C235.42 201.787 235.525 201.909 235.525 202.055C235.529 202.2 235.42 202.322 235.289 202.322Z" fill="#F99746"/>
<path d="M268.92 198.915H244.945C244.103 198.915 243.417 198.15 243.417 197.211C243.417 196.273 244.103 195.508 244.945 195.508H268.92C269.762 195.508 270.448 196.273 270.448 197.211C270.448 198.15 269.762 198.915 268.92 198.915Z" fill="#EFCBAB"/>
<path d="M262.812 204.026H244.945C244.103 204.026 243.417 203.261 243.417 202.322C243.417 201.383 244.103 200.618 244.945 200.618H262.812C263.653 200.618 264.339 201.383 264.339 202.322C264.339 203.256 263.653 204.026 262.812 204.026Z" fill="#EFCBAB"/>
<path d="M229.303 226.244C225.546 226.244 222.504 229.642 222.504 233.828C222.504 238.019 229.303 247.33 229.303 247.33C229.303 247.33 236.101 238.019 236.101 233.828C236.101 229.637 233.056 226.244 229.303 226.244ZM229.303 237.296C227.549 237.296 226.127 235.71 226.127 233.753C226.127 231.796 227.549 230.209 229.303 230.209C231.057 230.209 232.479 231.796 232.479 233.753C232.479 235.71 231.057 237.296 229.303 237.296Z" fill="#F99746"/>
<path d="M267.099 231.772H243.123C242.281 231.772 241.596 231.007 241.596 230.069C241.596 229.13 242.281 228.365 243.123 228.365H267.099C267.94 228.365 268.626 229.13 268.626 230.069C268.626 231.003 267.936 231.772 267.099 231.772Z" fill="#EFCBAB"/>
<path d="M260.99 236.879H243.123C242.281 236.879 241.596 236.114 241.596 235.175C241.596 234.236 242.281 233.471 243.123 233.471H260.99C261.831 233.471 262.517 234.236 262.517 235.175C262.517 236.114 261.831 236.879 260.99 236.879Z" fill="#EFCBAB"/>
<path d="M82.1796 225.779C81.679 212.079 80.6062 200.168 79.3147 191.856C77.2616 178.612 75.4106 170.99 75.3895 170.91C75.1203 169.746 71.212 165.034 62.5245 165.18C53.837 165.325 54.6616 171.506 54.6616 171.506C54.6616 171.717 54.6869 171.91 54.7247 172.055C54.8089 172.374 62.7853 204.631 62.4362 246.279C62.432 246.866 62.3731 247.875 62.4109 248.546C62.4109 248.551 82.5456 249.128 82.5499 248.546C83.2482 244.909 82.9074 234.823 82.1796 225.779Z" fill="#B7D3F3"/>
<path d="M84.7078 246.073C84.7036 246.655 84.4259 247.119 84.0936 247.119H84.0852C83.7486 247.11 83.4835 246.645 83.4793 246.073H66.2264C66.2222 246.655 65.9445 247.119 65.6122 247.119H65.6038C65.263 247.11 64.9938 246.631 64.998 246.045C65.0989 234.124 64.4889 222.991 63.5676 213.164C61.2748 188.66 57.0341 172.28 56.9752 172.055C56.9373 171.91 56.9121 171.713 56.9121 171.506C56.9121 171.506 56.0875 165.325 64.775 165.18C73.4625 165.034 77.3708 169.746 77.6442 170.915C77.6611 170.976 78.7086 175.289 80.0969 183.047C80.5597 185.619 81.0561 188.566 81.5652 191.861C82.8525 200.173 83.9295 212.089 84.4301 225.784C85.1537 234.818 85.4104 242.435 84.7078 246.073Z" fill="#D2E3FC"/>
<path d="M63.7194 247.119H131.364C131.364 247.119 129.79 240.009 90.6148 241.065C62.8907 241.816 63.7194 247.119 63.7194 247.119Z" fill="#C5DCF8"/>
<path d="M58.2163 321.4C66.0582 277.105 64.043 249.926 64.0346 249.583C64.0136 248.903 65.141 248.283 65.7468 248.26C66.3611 248.246 69.0662 248.058 69.3817 248.64C69.794 249.405 71.3716 282.891 59.6845 321.395H58.2163V321.4Z" fill="#B7D3F3"/>
<path d="M121.372 321.4C113.53 277.105 115.545 249.926 115.554 249.583C115.575 248.903 114.447 248.283 113.841 248.26C113.227 248.246 110.522 248.058 110.207 248.64C109.794 249.405 108.217 282.891 119.908 321.395H121.372V321.4Z" fill="#B7D3F3"/>
<path d="M133.888 321.4C126.046 277.105 128.061 249.926 128.07 249.583C128.091 248.903 126.963 248.283 126.358 248.26C125.743 248.246 123.038 248.058 122.723 248.64C122.31 249.405 120.733 282.891 132.424 321.395H133.888V321.4Z" fill="#B7D3F3"/>
<path d="M70.8164 321.4C78.6583 277.105 76.6431 249.926 76.6347 249.583C76.6137 248.903 77.7411 248.283 78.3469 248.26C78.9612 248.246 81.6663 248.058 81.9818 248.64C82.3941 249.405 83.9717 282.891 72.2804 321.395H70.8164V321.4Z" fill="#B7D3F3"/>
<path d="M130.947 249.391H64.2157C63.2018 249.391 62.373 248.466 62.373 247.335C62.373 246.204 63.2018 245.28 64.2157 245.28H130.947C131.961 245.28 132.79 246.204 132.79 247.335C132.79 248.466 131.961 249.391 130.947 249.391Z" fill="#B7D3F3"/>
<path d="M129.029 181.24L151.515 175.805L152.841 179.405C152.841 179.405 128.032 195.874 125.705 195.066C123.379 194.264 129.029 181.24 129.029 181.24Z" fill="#FFB27D"/>
<path d="M108.587 294.686C108.023 295.404 107.952 296.211 108.229 297.07C108.229 297.074 108.229 297.079 108.234 297.084C108.751 298.675 110.451 300.449 112.428 302.218C112.68 302.448 112.908 302.655 113.101 302.842C113.152 302.894 113.202 302.941 113.252 302.993C113.29 303.03 113.332 303.072 113.37 303.11C115.213 305.006 114.519 305.443 117.834 309.291C121.612 313.675 124.216 313.754 124.952 313.355C125.579 313.013 124.304 310.69 122.895 308.075C122.828 307.949 122.76 307.822 122.689 307.695C122.499 307.348 122.314 306.996 122.129 306.644C120.476 303.5 120.901 302.021 121.292 297.337C121.612 293.531 126.597 276.077 126.597 276.077L119.357 274.688C119.357 274.688 117.178 288.584 114.775 290.724C113.492 291.865 112.053 291.879 110.817 292.724C110.728 292.785 110.644 292.841 110.56 292.907C109.866 293.428 109.151 293.963 108.587 294.686Z" fill="#FFB27D"/>
<path d="M108.587 294.686C108.023 295.404 107.952 296.211 108.229 297.07C108.229 297.074 108.229 297.079 108.234 297.084C108.865 298.67 110.526 300.435 112.436 302.204C112.685 302.434 112.908 302.65 113.101 302.847C113.152 302.899 113.202 302.946 113.252 302.997C113.29 303.035 113.332 303.077 113.37 303.115C115.213 305.011 114.519 305.447 117.834 309.296C121.612 313.679 124.216 313.759 124.952 313.36C125.579 313.017 124.304 310.694 122.895 308.08C122.159 307.78 118.743 306.231 116.16 302.542C113.884 299.304 112.369 295.141 110.817 292.733C110.728 292.794 110.644 292.85 110.56 292.916C109.866 293.428 109.151 293.963 108.587 294.686Z" fill="#1C468A"/>
<path d="M166.972 289.64C167.418 292.132 170.606 291.719 174.166 290.748C177.725 289.776 176.879 290.931 181.944 290.307C187.01 289.683 188.545 287.575 188.701 286.735C188.84 285.989 186.337 285.726 183.652 285.384C183.316 285.341 182.975 285.294 182.639 285.247C179.605 284.825 177.388 282.643 174.633 280.85C172.024 279.151 168.133 272.238 168.133 272.238L161.187 272.852C161.187 272.852 164.834 279.029 166.244 281.713C167.073 283.295 167.031 285.384 166.925 286.993C166.866 287.866 166.812 288.763 166.972 289.64Z" fill="#FFB27D"/>
<path d="M174.166 290.748C177.725 289.776 176.879 290.931 181.945 290.307C187.01 289.683 188.546 287.575 188.701 286.735C188.84 285.989 186.337 285.726 183.653 285.384L183.628 285.44C183.628 285.44 180.59 287.843 176.375 287.955C172.937 288.049 169.298 286.951 166.926 286.993C166.871 287.871 166.821 288.767 166.98 289.645C167.418 292.132 170.607 291.719 174.166 290.748Z" fill="#1C468A"/>
<path d="M151.515 175.805C151.515 175.805 153.168 171.281 154.99 171.098C156.812 170.915 162.605 169.896 163.017 170.821C163.429 171.745 163.017 175.068 161.776 176.27C160.535 177.471 152.836 179.41 152.836 179.41L151.515 175.805Z" fill="#FFB27D"/>
<path d="M140.346 240.084L125.373 285.036C125.373 285.036 123.072 285.285 120.867 284.576C118.84 283.924 116.513 282.211 116.513 282.211C116.513 282.211 120.228 239.047 127.035 230.069C133.846 221.091 140.346 240.084 140.346 240.084Z" fill="#163560"/>
<path d="M81.1236 221.898C81.1236 221.898 124.149 205.668 133.741 209.123C143.337 212.577 172.146 276.518 172.146 276.518C172.146 276.518 171.499 277.485 169.723 278.226C168.074 278.916 164.077 278.874 164.077 278.874C164.077 278.874 138.078 254.014 134.982 246.763C131.885 239.512 130.648 232.603 127.552 233.298C124.456 233.988 87.6234 250.217 79.2683 240.549C70.9132 230.881 73.0966 218.317 73.0966 218.317L81.1236 221.898Z" fill="#1C468A"/>
<path d="M105.655 107.457C103.795 106.279 101.565 106.148 100.009 106.251C100.408 105.791 101.199 105.622 101.199 105.622C100.232 105.462 98.0736 106.533 98.0736 106.533C84.628 100.75 82.5118 122.842 82.7979 127.971C83.0798 133.101 83.1135 139.01 76.3991 143.609C63.1933 152.663 74.3334 168.474 74.3334 168.474C74.4386 168.545 80.4799 179.973 80.4799 179.973C80.1391 175.824 97.2911 153.944 106.239 147.392C108.419 143.816 109.193 137.494 109.252 136.996C108.877 142.009 108.107 144.815 107.422 146.402C114.994 138.616 110.581 110.583 105.655 107.457Z" fill="#B5453C"/>
<path d="M105.709 147.711C105.756 147.735 101.389 150.264 98.1074 149.26C95.0194 148.321 93.0001 143.853 93.0421 143.844C94.3505 143.553 94.7292 141.549 94.6997 132.932L95.2929 133.064L105.234 135.26C105.234 135.26 105.007 138.752 105.003 142.037C104.99 144.801 105.141 147.42 105.709 147.711Z" fill="#FFB27D"/>
<path d="M105.23 135.26C105.23 135.26 105.003 138.752 104.998 142.037C99.4367 141.863 96.496 136.199 95.2886 133.064L105.23 135.26Z" fill="#ED975D"/>
<path d="M94.2619 131.857C94.2619 131.857 91.3464 126.718 90.648 122.325C90.1474 119.19 91.582 107.56 102.057 109.236C102.057 109.236 105.099 109.569 107.96 111.723C110.236 113.436 113.517 117.135 109.845 127.281L108.89 130.707L94.2619 131.857Z" fill="#B5453C"/>
<path d="M107.089 138.376C107.089 138.376 93.9257 138.62 93.9173 129.473C93.9089 120.326 92.205 114.197 100.606 113.657C109.012 113.117 110.644 116.604 111.313 119.655C111.986 122.705 110.514 138.076 107.089 138.376Z" fill="#FFB27D"/>
<path d="M106.601 113.427C106.601 113.427 102.996 124.156 97.4678 125.742C91.9356 127.328 89.5376 125.676 89.5376 125.676C89.5376 125.676 93.7783 121.917 94.6617 115.356C94.6617 115.356 103.883 108.321 106.601 113.427Z" fill="#B5453C"/>
<path d="M105.709 114.3C105.709 114.3 108.402 116.693 109.058 119.026C109.715 121.354 110.009 126.15 111.263 125.986C111.263 125.986 113.976 118.693 110.926 114.567C107.691 110.193 105.709 114.3 105.709 114.3Z" fill="#B5453C"/>
<path d="M76.3993 187.219C75.0994 181.146 79.5167 169.361 84.1276 159.604C88.3094 150.762 92.651 143.586 93.0423 143.844C104.073 151.147 105.07 145.074 105.07 145.074C105.074 145.074 115.091 146.557 117.927 152.006C121.448 158.769 125.247 177.659 129.025 181.235C128.444 183.216 128.692 184.272 129.307 186.722C129.437 187.247 129.584 187.749 129.744 188.224C130.312 189.951 131.027 191.349 131.642 192.569C129.723 193.87 126.013 196.348 123.282 194.564C119.117 191.847 115.869 183.568 114.039 180.273C114.031 180.259 114.027 180.25 114.018 180.236C110.043 205.335 115.449 211.052 112.714 213.694C109.824 216.486 105.697 212.361 96.6182 216.754C90.6611 219.636 82.3985 223.803 76.8327 224.526C73.913 224.906 71.738 224.343 71.027 222.142C68.9698 215.764 78.8731 198.793 76.3993 187.219Z" fill="#1C468A"/>
<path d="M104.161 132.829C104.161 132.829 104.405 133.993 106.997 133.81C106.997 133.81 109.172 133.66 109.104 132.383C109.109 132.388 107.001 131.477 104.161 132.829Z" fill="white"/>
<path d="M71.031 222.151C71.742 224.348 73.917 224.915 76.8367 224.535C80.6861 222.663 97.3206 215.473 97.1355 210.601C96.8578 203.387 93.9382 203.157 95.9996 194.254C97.6572 187.107 82.2848 173.815 79.8363 170.924C75.2254 180.681 75.0992 181.141 76.395 187.214C78.8729 198.793 68.9696 215.764 71.031 222.151Z" fill="#163560"/>
<path d="M69.1505 196.136C72.0996 191.513 75.1749 189.073 77.1943 187.843C76.7273 186.506 89.6007 168.897 89.6007 166.17C89.6007 163.405 93.0337 143.844 93.0337 143.844C93.0337 143.844 82.3058 144.581 78.591 150.363C73.9549 157.591 64.3082 185.398 69.1505 196.136Z" fill="#1C468A"/>
<path d="M77.1986 187.843L98.6333 194.085L96.6224 198.112C96.6224 198.112 70.5348 197.91 69.1549 196.136C67.7708 194.367 77.1986 187.843 77.1986 187.843Z" fill="#FFB27D"/>
<path d="M114.043 180.278C115.874 183.572 119.121 191.851 123.286 194.569C126.017 196.348 129.727 193.874 131.646 192.574C131.031 191.359 130.32 189.955 129.748 188.228C128.217 188.618 126.345 189.12 125.142 189.524C122.794 190.317 114.043 180.278 114.043 180.278Z" fill="#163560"/>
<path d="M98.6333 194.081C98.6333 194.081 105.365 191.955 106.967 192.452C108.57 192.95 114.065 197.009 113.291 198.108C112.516 199.21 107.678 197.446 105.453 197.779C103.227 198.112 101.502 199.337 99.8996 199.074C98.2968 198.812 96.6182 198.108 96.6182 198.108L98.6333 194.081Z" fill="#FFB27D"/>
<path d="M98.6333 194.081C98.6333 194.081 101.927 192.194 102.866 191.119C102.983 190.983 103.185 191.011 103.274 191.171C103.526 191.612 103.762 192.466 102.605 193.316C100.943 194.536 98.6333 194.081 98.6333 194.081Z" fill="#FFB27D"/>
<path d="M129.744 204.65H98.3389C98.3389 203.106 99.4579 201.857 100.842 201.857H129.744V204.65Z" fill="#ED7D2B"/>
<path d="M129.651 166.489H178.209L166.56 204.65H117.691L129.651 166.489Z" fill="#ED7D2B"/>
<path d="M178.924 166.489L167.275 204.645H118.406L130.367 166.489H178.924Z" fill="#F99746"/>
<path d="M152.744 185.215C152.441 186.675 151.137 187.853 149.832 187.853C148.528 187.853 147.712 186.67 148.011 185.215C148.314 183.756 149.618 182.578 150.922 182.578C152.231 182.578 153.047 183.76 152.744 185.215Z" fill="#F9DDBF"/>
<path d="M178.924 166.489L167.275 204.645H134.91C156.349 196.484 162.054 171.591 163.013 166.489H178.924Z" fill="#ED893E"/>
<path d="M37.9597 321.4C38.5739 321.4 39.0998 320.916 39.2049 320.259L45.3051 281.699L54.0767 226.239L56.5294 210.732L50.282 210.535L49.1966 219.537L41.5861 282.802L37.072 320.301C37.0005 320.883 37.4169 321.4 37.9597 321.4Z" fill="#95C0F4"/>
<path d="M49.1968 219.532C53.2439 221.527 54.0769 226.239 54.0769 226.239L56.5296 210.732L50.2822 210.535L49.1968 219.532Z" fill="#78ACEA"/>
<path d="M193.362 321.4C192.748 321.4 192.222 320.916 192.117 320.259L186.017 281.699L177.245 226.239L174.797 210.728L181.044 210.531L182.13 219.532L189.74 282.798L194.254 320.297C194.322 320.883 193.905 321.4 193.362 321.4Z" fill="#95C0F4"/>
<path d="M182.125 219.532C178.078 221.527 177.245 226.239 177.245 226.239L174.797 210.728L181.044 210.531L182.125 219.532Z" fill="#78ACEA"/>
<path d="M35.4399 216.82H192.142C195.146 216.82 197.599 214.079 197.599 210.732C197.599 207.381 195.142 204.645 192.142 204.645H35.4399C32.4361 204.645 29.9834 207.386 29.9834 210.732C29.9792 214.079 32.4361 216.82 35.4399 216.82Z" fill="#78ACEA"/>
<path d="M550.272 323H0.732019C0.328146 323 0 322.634 0 322.183C0 321.733 0.328146 321.367 0.732019 321.367H550.272C550.676 321.367 551.004 321.733 551.004 322.183C551 322.629 550.672 323 550.272 323Z" fill="#2E3552"/>
<path d="M406.064 122.682C406.064 122.682 403.83 114.642 402.564 113.779C401.298 112.915 396.005 110.006 395.694 110.794C395.378 111.578 398.55 115.398 399.253 116.675C399.956 117.947 400.309 119.204 399.817 118.655C399.325 118.106 396.645 116.266 396.363 116.675C396.081 117.083 397.701 118.655 398.475 119.913C399.249 121.171 400.094 123.292 402.842 123.766C405.589 124.231 406.064 122.682 406.064 122.682Z" fill="#FFB27D"/>
<path d="M487.482 190.368C487.482 190.368 486.813 197.629 486.077 199.004C485.341 200.379 482.215 204.767 480.881 205.626C479.548 206.49 481.693 199.844 481.424 198.549C481.151 197.253 480.326 200.909 479.741 200.994C479.152 201.078 479.304 197.793 479.283 196.596C479.262 195.4 482.139 192.447 483.153 189.899C484.171 187.355 487.482 190.368 487.482 190.368Z" fill="#FFB27D"/>
<path d="M467.07 115.863C467.07 115.863 461.655 145.501 431.874 155.183C422.577 158.205 401.453 124.057 401.453 124.057C401.453 124.057 402.198 120.908 406.847 121.631C406.847 121.631 427.415 136.818 430.002 138.47C432.299 139.935 447.41 119.65 454.297 116.374C461.184 113.103 467.07 115.863 467.07 115.863Z" fill="#233862"/>
<path d="M502.632 302.162C502.632 302.162 506.325 305.926 505.606 308.596C504.887 311.272 501.55 313.05 501.1 316.317C500.65 319.583 498.845 321.367 497.226 321.367C495.602 321.367 489.493 321.367 489.493 321.367C489.493 321.367 488.298 319.067 491.184 318.377C494.066 317.683 495.156 313.844 494.975 310.281C494.794 306.719 495.244 301.965 495.244 301.965L501.374 300.379L502.632 302.162Z" fill="#233862"/>
<path d="M457.297 311.891C457.297 311.891 457.962 320.452 456.338 321.343L435.576 321.296C435.576 321.296 435.576 318.621 438.912 318.03C442.248 317.439 448.105 315.256 449.097 310.408C450.09 305.555 457.297 311.891 457.297 311.891Z" fill="#233862"/>
<path d="M439.771 190.96C439.771 190.96 440.864 205.969 442.152 224.005C443.902 248.509 446.005 278.611 446.211 284.313C446.569 294.216 448.016 310.051 448.016 310.051C448.016 310.051 451.441 313.815 458.29 312.229C458.29 312.229 464.394 289.622 466.14 265.695C466.165 265.301 466.195 264.907 466.22 264.513C467.844 240.159 470.364 188.881 470.364 188.881L439.771 190.96Z" fill="#F99746"/>
<path d="M439.771 190.96C439.771 190.96 440.864 205.969 442.152 224.005L466.14 265.695C466.165 265.301 466.195 264.907 466.22 264.513C467.844 240.159 470.364 188.881 470.364 188.881L439.771 190.96Z" fill="#ED7D2B"/>
<path d="M444.773 192.739C444.773 192.739 464.508 247.087 477.487 272.627C490.465 298.168 494.521 305.297 494.521 305.297C494.521 305.297 501.955 302.031 502.632 299.801C502.632 299.801 497.668 250.494 488.98 238.474C484.071 231.683 478.299 211.3 478.029 204.171C477.76 197.042 476.271 182.939 476.271 182.939L444.773 192.739Z" fill="#F99746"/>
<path d="M470.738 108.982C470.738 108.982 457.385 116.172 449.687 113.502C449.687 113.502 451.58 110.836 454.899 108.851C454.634 107.129 454.424 105.631 454.306 104.364C453.982 101.436 453.982 99.7789 453.982 99.7789L459.135 95.2593L464.02 90.9321C463.633 103.097 470.738 108.982 470.738 108.982Z" fill="#FFB27D"/>
<path d="M477.777 185.722C477.806 186.632 476.06 187.674 475.291 188.064C469.577 190.861 464.247 192.814 458.206 193.466C451.071 194.278 442.631 192.49 439.729 192.555C439.434 192.555 439.165 192.424 438.929 192.199C438.723 192.034 438.576 182.441 438.723 170.375C438.723 169.892 438.723 169.404 438.753 168.911V168.746C438.812 164.03 438.959 159.088 439.165 154.141C439.577 143.276 440.351 132.805 441.651 127.014C443.221 120.185 446.775 115.661 450.002 112.376L452.665 109.776C455.332 110.362 458.143 110.198 460.957 108.668C464.037 107.011 467.352 105.218 467.886 105.674C471.912 108.959 474.638 116.341 476.09 125.775C476.098 125.822 476.107 125.869 476.111 125.916C476.923 131.313 477.331 137.344 477.302 143.666C477.302 146.008 477.243 148.415 477.125 150.79C476.532 161.547 476.927 171.121 477.318 177.758C477.394 179.067 477.474 180.264 477.541 181.334C477.659 183.22 477.747 184.685 477.777 185.722Z" fill="#2A4E96"/>
<path d="M477.318 177.758C455.181 149.246 468.912 128.525 468.912 128.525L476.111 125.92C476.923 131.318 477.331 137.349 477.301 143.67C477.301 146.012 477.242 148.42 477.124 150.795C476.531 161.547 476.931 171.121 477.318 177.758Z" fill="#233862"/>
<path d="M464.108 95.5831C464.108 95.5831 460.734 102.445 454.306 104.364C453.982 101.436 453.982 99.7789 453.982 99.7789L459.136 95.2593L464.108 95.5831Z" fill="#ED985F"/>
<path d="M451.63 99.5817C451.63 99.5817 464.369 101.905 465.564 93.1708C466.759 84.4319 469.207 78.8516 461.126 76.9978C453.044 75.1439 451.004 78.218 449.956 81.0246C448.917 83.8312 448.349 98.751 451.63 99.5817Z" fill="#FFB27D"/>
<path d="M470.196 75.9465C470.314 75.7963 470.579 75.679 471.172 75.6414C471.172 75.6414 470.697 75.3082 470.061 75.2941C469.939 74.3742 469.498 72.741 468.076 72.3467C468.076 72.3467 468.837 72.802 468.938 73.7782C467.293 71.8915 463.768 70.5211 454.003 71.3799C441.138 72.511 445.375 81.7051 447.04 82.7987C448.706 83.8922 452.901 80.8885 456.001 81.1654C459.106 81.4423 459.695 86.4453 460.747 87.1305C461.799 87.8158 461.386 86.6049 462.813 85.8868C464.239 85.1688 464.373 87.8017 463.961 89.5147C463.549 91.2278 465.505 93.4852 465.505 93.4852C465.505 93.4852 465.505 93.4852 467.482 91.1104C469.46 88.7356 471.323 78.6686 470.427 76.5238C470.356 76.3313 470.276 76.1389 470.196 75.9465Z" fill="#2C3A64"/>
<path d="M467.882 105.603C467.882 105.603 475.942 109.86 479.809 116.407C485.804 126.563 492.754 163.565 492.88 166.996C493.01 170.422 487.806 194.616 487.806 194.616C487.806 194.616 482.531 194.226 481.172 191.26C481.172 191.26 482.223 166.405 481.559 164.804C480.89 163.208 459.573 131.458 461.967 124.686C464.365 117.909 467.882 105.603 467.882 105.603Z" fill="#2A4E96"/>
<path d="M400.322 161.247H369.951C366.796 161.247 364.213 158.365 364.213 154.845C364.213 151.325 366.796 148.443 369.951 148.443H400.322C403.477 148.443 406.06 151.325 406.06 154.845C406.064 158.365 403.481 161.247 400.322 161.247Z" fill="#FCECDB"/>
<path d="M385.067 157.642C384.844 157.642 384.634 157.511 384.52 157.29L382.85 154.103C382.673 153.766 382.774 153.334 383.077 153.137C383.38 152.94 383.767 153.052 383.944 153.39L385.017 155.432L387.036 150.799C387.188 150.447 387.57 150.302 387.882 150.471C388.197 150.64 388.328 151.067 388.176 151.414L385.639 157.234C385.538 157.469 385.328 157.623 385.092 157.633C385.084 157.642 385.076 157.642 385.067 157.642Z" fill="#F99746"/>
<path d="M385.067 159.28C382.897 159.28 381.134 157.309 381.134 154.892C381.134 152.47 382.901 150.503 385.067 150.503C387.238 150.503 389.001 152.475 389.001 154.892C389.005 157.309 387.238 159.28 385.067 159.28ZM385.067 151.015C383.153 151.015 381.592 152.752 381.592 154.892C381.592 157.027 383.149 158.768 385.067 158.768C386.982 158.768 388.542 157.032 388.542 154.892C388.542 152.752 386.986 151.015 385.067 151.015Z" fill="#F99746"/>
<path d="M205.689 115.253H171.717C167.254 115.253 163.602 119.326 163.602 124.306V138.644C163.602 140.92 164.368 143.004 165.621 144.6L163.602 154.892L175.243 147.697H205.689C210.153 147.697 213.804 143.623 213.804 138.644V124.306C213.804 119.326 210.153 115.253 205.689 115.253Z" fill="#D2E3FC"/>
<path d="M206.328 126.178H171.111C170.388 126.178 169.794 125.517 169.794 124.709C169.794 123.902 170.388 123.24 171.111 123.24H206.328C207.052 123.24 207.645 123.902 207.645 124.709C207.649 125.517 207.056 126.178 206.328 126.178Z" fill="#B7D3F3"/>
<path d="M206.328 132.613H171.111C170.388 132.613 169.794 131.951 169.794 131.144C169.794 130.337 170.388 129.675 171.111 129.675H206.328C207.052 129.675 207.645 130.337 207.645 131.144C207.649 131.951 207.056 132.613 206.328 132.613Z" fill="#B7D3F3"/>
<path d="M206.328 138.808H171.111C170.388 138.808 169.794 138.146 169.794 137.339C169.794 136.532 170.388 135.87 171.111 135.87H206.328C207.052 135.87 207.645 136.532 207.645 137.339C207.649 138.146 207.056 138.808 206.328 138.808Z" fill="#B7D3F3"/>
</g>
<defs>
<clipPath id="clip0">
<rect width="551" height="323" fill="white"/>
</clipPath>
</defs>
</svg>
