<svg width="80" height="80" viewBox="0 0 80 80" fill="none" xmlns="http://www.w3.org/2000/svg">
<path d="M78.4375 32.617H68.4375C67.5745 32.617 66.875 33.3167 66.875 34.1795V42.0702C66.875 42.933 67.5745 43.6327 68.4375 43.6327C69.3005 43.6327 70 42.933 70 42.0702V35.742H76.875V76.875H73.4375H70V53.7889C70 52.9261 69.3005 52.2264 68.4375 52.2264C67.5745 52.2264 66.875 52.9261 66.875 53.7889V76.875H63.75V44.5312C63.75 43.6684 63.0505 42.9688 62.1875 42.9688H52.1875C51.3245 42.9688 50.625 43.6684 50.625 44.5312V76.875H47.5V55.4688C47.5 54.6059 46.8005 53.9062 45.9375 53.9062H35.9375C35.0745 53.9062 34.375 54.6059 34.375 55.4688V76.875H31.25V64.4336C31.25 63.5708 30.5505 62.8711 29.6875 62.8711H19.6875C18.8245 62.8711 18.125 63.5708 18.125 64.4336V76.875H4.6875C3.82594 76.875 3.125 76.1741 3.125 75.3125V4.6875C3.125 3.82594 3.82594 3.125 4.6875 3.125H44.9961V13.438C44.9961 16.0227 47.0989 18.1255 49.6836 18.1255H59.9961V37.3438C59.9961 38.2066 60.6956 38.9062 61.5586 38.9062C62.4216 38.9062 63.1211 38.2066 63.1211 37.3438V16.563C63.1211 16.1486 62.9564 15.7513 62.6634 15.4581L47.6634 0.457656C47.3703 0.164687 46.973 0 46.5586 0H4.6875C2.10281 0 0 2.10281 0 4.6875V75.3125C0 77.8972 2.10281 80 4.6875 80H78.4375C79.3005 80 80 79.3003 80 78.4375V34.1795C80 33.3167 79.3005 32.617 78.4375 32.617ZM48.1211 5.33484L57.7866 15.0005H49.6836C48.8219 15.0005 48.1211 14.2995 48.1211 13.438V5.33484ZM28.125 76.875H21.25V65.9961H28.125V76.875ZM44.375 76.875H37.5V57.0312H44.375V76.875ZM60.625 76.875H53.75V46.0938H60.625V76.875Z" fill="white"/>
<path d="M69.5422 46.5345C69.2516 46.2424 68.8484 46.0767 68.4375 46.0767C68.0266 46.0767 67.6234 46.2424 67.3328 46.5345C67.0422 46.8251 66.875 47.2282 66.875 47.6392C66.875 48.0501 67.0422 48.4532 67.3328 48.7438C67.6234 49.0343 68.0266 49.2017 68.4375 49.2017C68.8484 49.2017 69.2516 49.0345 69.5422 48.7438C69.8328 48.4532 70 48.0501 70 47.6392C70 47.2282 69.8328 46.8251 69.5422 46.5345Z" fill="white"/>
<path d="M22.7466 8.55127C21.8836 8.55127 21.1841 9.25096 21.1841 10.1138V12.9246C13.9917 13.7053 8.37549 19.8147 8.37549 27.2113C8.37549 35.1355 14.8224 41.5824 22.7466 41.5824C30.1431 41.5824 36.2525 35.9663 37.0333 28.7738H39.8439C40.7069 28.7738 41.4064 28.0741 41.4064 27.2113C41.4064 16.9221 33.0356 8.55127 22.7466 8.55127ZM22.7466 38.4572C16.5455 38.4572 11.5005 33.4122 11.5005 27.2111C11.5005 21.5403 15.72 16.8363 21.1841 16.0733V27.2111C21.1841 28.0739 21.8836 28.7736 22.7466 28.7736H33.8844C33.1214 34.2377 28.4174 38.4572 22.7466 38.4572ZM24.3091 25.6488V25.6486V11.7542C31.6297 12.4889 37.4688 18.3281 38.2035 25.6488H24.3091Z" fill="white"/>
<path d="M39.8438 45.9766H10C9.13703 45.9766 8.4375 46.6763 8.4375 47.5391C8.4375 48.4019 9.13703 49.1016 10 49.1016H39.8438C40.7067 49.1016 41.4062 48.4019 41.4062 47.5391C41.4062 46.6763 40.7067 45.9766 39.8438 45.9766Z" fill="white"/>
<path d="M20 53.5156H10C9.13703 53.5156 8.4375 54.2153 8.4375 55.0781C8.4375 55.9409 9.13703 56.6406 10 56.6406H20C20.863 56.6406 21.5625 55.9409 21.5625 55.0781C21.5625 54.2153 20.863 53.5156 20 53.5156Z" fill="white"/>
<path d="M28.9299 53.9734C28.6393 53.6828 28.2361 53.5156 27.8252 53.5156C27.4127 53.5156 27.0111 53.6827 26.7205 53.9734C26.4283 54.2641 26.2627 54.6672 26.2627 55.0781C26.2627 55.4891 26.4283 55.8922 26.7205 56.1827C27.0111 56.4733 27.4127 56.6406 27.8252 56.6406C28.2361 56.6406 28.6393 56.4734 28.9299 56.1827C29.2205 55.8922 29.3877 55.4891 29.3877 55.0781C29.3877 54.6672 29.2205 54.2641 28.9299 53.9734Z" fill="white"/>
</svg>
