<svg width="273" height="273" viewBox="0 0 273 273" fill="none" xmlns="http://www.w3.org/2000/svg">
<path d="M181.677 50.3037L184.591 50.0023L184.643 50.4996L185.74 50.3862L186.19 51.3931L186.647 51.189L187.843 53.8639L187.387 54.068L188.583 56.7429L189.039 56.5388L190.236 59.2136L189.779 59.4178L190.975 62.0927L191.432 61.8885L192.628 64.5634L192.172 64.7675L193.368 67.4424L193.825 67.2383L195.021 69.9132L194.564 70.1173L195.761 72.7922L196.217 72.588L197.413 75.2629L196.957 75.4671L198.153 78.1419L198.61 77.9378L199.806 80.6127L199.35 80.8168L200.546 83.4917L201.002 83.2876L202.199 85.9624L201.742 86.1666L202.938 88.8415L203.395 88.6373L204.591 91.3122L204.135 91.5163L205.331 94.1912L205.787 93.9871L206.984 96.662L206.527 96.8661L207.724 99.541L208.18 99.3368L209.376 102.012L208.92 102.216L209.517 103.552L209.518 103.553L210.111 104.891L210.568 104.689L211.756 107.367L211.298 107.57L212.486 110.249L212.943 110.046L214.13 112.725L213.673 112.928L214.86 115.607L215.318 115.404L216.505 118.083L216.048 118.286L217.235 120.964L217.692 120.762L218.88 123.441L218.422 123.643L219.61 126.322L220.067 126.12L221.254 128.798L220.797 129.001L221.985 131.68L222.442 131.477L223.629 134.156L223.172 134.359L224.359 137.038L224.816 136.835L226.004 139.514L225.547 139.716L226.734 142.395L227.191 142.193L228.378 144.872L227.921 145.074L229.109 147.753L229.566 147.55L230.753 150.229L230.296 150.432L231.483 153.111L231.94 152.908L233.128 155.587L232.671 155.79L233.118 156.798L232.299 157.538L232.634 157.909L230.46 159.873L230.125 159.502L227.951 161.466L228.286 161.837L226.111 163.802L225.776 163.431L223.602 165.395L223.937 165.766L221.763 167.73L221.428 167.359L219.253 169.324L219.589 169.695L217.414 171.659L217.079 171.288L214.905 173.252L215.24 173.623L213.066 175.588L212.731 175.217L210.556 177.181L210.891 177.552L208.717 179.516L208.382 179.145L206.208 181.11L206.543 181.481L204.369 183.445L204.033 183.074L201.859 185.038L202.194 185.409L200.02 187.374L199.685 187.003L197.511 188.967L197.846 189.338L195.671 191.302L195.336 190.931L193.162 192.896L193.497 193.267L191.323 195.231L190.988 194.86L189.902 195.841L189.901 195.842L188.811 196.819L189.145 197.192L186.964 199.149L186.63 198.777L184.45 200.734L184.784 201.106L182.603 203.063L182.269 202.691L180.088 204.648L180.422 205.02L178.241 206.977L177.907 206.605L175.726 208.562L176.06 208.934L173.879 210.891L173.545 210.519L171.365 212.476L171.699 212.848L169.518 214.805L169.184 214.433L167.003 216.39L167.337 216.762L165.156 218.719L164.822 218.347L162.641 220.304L162.975 220.676L160.794 222.633L160.46 222.261L158.28 224.218L158.613 224.59L156.433 226.547L156.099 226.175L153.918 228.132L154.252 228.504L152.071 230.461L151.737 230.089L149.556 232.046L149.89 232.418L147.709 234.375L147.375 234.003L146.554 234.74L145.598 234.19L145.349 234.624L142.809 233.163L143.058 232.729L140.518 231.268L140.269 231.702L137.729 230.241L137.978 229.808L135.438 228.347L135.188 228.78L132.648 227.319L132.898 226.886L130.358 225.425L130.108 225.858L127.568 224.398L127.818 223.964L125.277 222.503L125.028 222.937L122.488 221.476L122.737 221.042L120.197 219.582L119.948 220.015L117.408 218.554L117.657 218.121L115.117 216.66L114.868 217.093L112.328 215.632L112.577 215.199L110.037 213.738L109.788 214.172L107.248 212.711L107.497 212.277L104.957 210.816L104.708 211.25L102.167 209.789L102.417 209.356L99.8766 207.895L99.6274 208.328L97.0873 206.867L97.3366 206.434L96.068 205.704L96.0665 205.703L94.8004 204.97L94.5497 205.402L92.0145 203.933L92.2652 203.5L89.73 202.031L89.4793 202.463L86.9441 200.994L87.1948 200.562L84.6597 199.092L84.4089 199.525L81.8738 198.055L82.1245 197.623L79.5893 196.154L79.3386 196.586L76.8034 195.117L77.0541 194.684L74.5189 193.215L74.2682 193.647L71.733 192.178L71.9838 191.745L69.4486 190.276L69.1979 190.709L66.6627 189.239L66.9134 188.807L64.3782 187.337L64.1275 187.77L61.5923 186.301L61.843 185.868L59.3079 184.399L59.0571 184.831L56.522 183.362L56.7727 182.929L54.2375 181.46L53.9868 181.893L51.4516 180.423L51.7023 179.991L49.1671 178.521L48.9164 178.954L46.3812 177.485L46.632 177.052L45.6776 176.499L45.9051 175.419L45.4159 175.316L46.0203 172.449L46.5095 172.552L47.114 169.685L46.6247 169.582L47.2292 166.715L47.7184 166.818L48.3228 163.951L47.8336 163.848L48.438 160.98L48.9273 161.084L49.5317 158.216L49.0424 158.113L49.6469 155.246L50.1361 155.349L50.7406 152.482L50.2513 152.379L50.8557 149.512L51.345 149.615L51.9494 146.748L51.4602 146.644L52.0646 143.777L52.5538 143.88L53.1583 141.013L52.669 140.91L53.2735 138.043L53.7627 138.146L54.3671 135.279L53.8779 135.176L54.4823 132.309L54.9716 132.412L55.576 129.544L55.0867 129.441L55.6912 126.574L56.1804 126.677L56.7848 123.81L56.2956 123.707L56.9 120.84L57.3893 120.943L57.6911 119.511L57.6915 119.509L57.9982 118.078L57.5093 117.974L58.1233 115.108L58.6122 115.213L59.2262 112.348L58.7373 112.243L59.3513 109.378L59.8402 109.483L60.4542 106.618L59.9653 106.513L60.5793 103.648L61.0682 103.753L61.6823 100.887L61.1934 100.783L61.8074 97.9175L62.2963 98.0223L62.9103 95.1572L62.4214 95.0524L63.0354 92.1872L63.5243 92.292L64.1383 89.4269L63.6494 89.3221L64.2634 86.4569L64.7523 86.5617L65.3664 83.6966L64.8775 83.5918L65.4915 80.7266L65.9804 80.8314L66.5944 77.9663L66.1055 77.8615L66.7195 74.9963L67.2084 75.1011L67.8224 72.236L67.3335 72.1312L67.9475 69.266L68.4364 69.3708L69.0505 66.5056L68.5616 66.4009L69.1756 63.5357L69.6645 63.6405L69.8956 62.5619L70.9925 62.4447L70.9394 61.9476L73.853 61.6364L73.9061 62.1336L76.8198 61.8224L76.7667 61.3252L79.6803 61.0141L79.7334 61.5113L82.647 61.2001L82.594 60.7029L85.5076 60.3918L85.5607 60.8889L88.4743 60.5778L88.4212 60.0806L91.3349 59.7694L91.388 60.2666L94.3016 59.9554L94.2485 59.4583L97.1621 59.1471L97.2152 59.6443L100.129 59.3331L100.076 58.8359L102.989 58.5248L103.043 59.0219L105.956 58.7108L105.903 58.2136L108.817 57.9024L108.87 58.3996L111.783 58.0885L111.73 57.5913L114.644 57.2801L114.697 57.7773L117.611 57.4661L117.558 56.969L120.471 56.6578L120.524 57.155L123.438 56.8438L123.385 56.3466L126.299 56.0355L126.352 56.5326L127.807 56.3772L127.808 56.3771L129.264 56.2265L129.213 55.7292L132.127 55.4278L132.179 55.9251L135.093 55.6237L135.042 55.1263L137.957 54.8249L138.008 55.3223L140.923 55.0209L140.871 54.5235L143.786 54.2221L143.837 54.7194L146.752 54.418L146.701 53.9207L149.615 53.6193L149.667 54.1166L152.581 53.8152L152.53 53.3179L155.445 53.0164L155.496 53.5138L158.411 53.2124L158.359 52.715L161.274 52.4136L161.325 52.911L164.24 52.6095L164.189 52.1122L167.103 51.8108L167.155 52.3081L170.069 52.0067L170.018 51.5094L172.933 51.2079L172.984 51.7053L175.899 51.4039L175.847 50.9065L178.762 50.6051L178.813 51.1025L181.728 50.801L181.677 50.3037Z" stroke="#FFA31A" stroke-miterlimit="3.99933" stroke-dasharray="3 3"/>
<path d="M177.797 64.143L197.763 108.786L217.58 153.496L181.291 186.28L144.894 218.942L102.5 194.561L60.189 170.038L70.2768 122.185L80.5245 74.3667L129.152 69.1735L177.797 64.143Z" fill="white" fill-opacity="0.2"/>
</svg>
