<?xml version="1.0" encoding="UTF-8"?>
<svg xmlns="http://www.w3.org/2000/svg" xmlns:xlink="http://www.w3.org/1999/xlink" width="180pt" height="180pt" viewBox="0 0 180 180" version="1.1">
<g id="surface1">
<path style="fill:none;stroke-width:1;stroke-linecap:butt;stroke-linejoin:miter;stroke:rgb(100%,63.921569%,10.196078%);stroke-opacity:1;stroke-dasharray:3,3;stroke-miterlimit:3.99933;" d="M 181.674154 50.304753 L 184.588997 50.002604 L 184.642318 50.50026 L 185.738346 50.387695 L 186.188607 51.394857 L 186.644792 51.1875 L 187.841536 53.865365 L 187.385352 54.066797 L 188.582096 56.744661 L 189.038281 56.537305 L 190.235026 59.215169 L 189.778841 59.416602 L 190.975586 62.094466 L 191.431771 61.887109 L 192.628516 64.564974 L 192.172331 64.766406 L 193.369076 67.444271 L 193.82526 67.236914 L 195.022005 69.914779 L 194.56582 70.116211 L 195.762565 72.794076 L 196.21875 72.586719 L 197.415495 75.264583 L 196.95931 75.466016 L 198.15013 78.14388 L 198.61224 77.936523 L 199.80306 80.614388 L 199.352799 80.81582 L 200.54362 83.493685 L 200.999805 83.286328 L 202.196549 85.964193 L 201.740365 86.165625 L 202.937109 88.84349 L 203.393294 88.636133 L 204.590039 91.313997 L 204.133854 91.51543 L 205.330599 94.193294 L 205.786784 93.985937 L 206.983529 96.663802 L 206.527344 96.865234 L 207.724089 99.543099 L 208.180273 99.335742 L 209.377018 102.013607 L 208.920833 102.215039 L 209.519206 103.553971 L 210.111654 104.892904 L 210.567839 104.691471 L 211.758659 107.369336 L 211.296549 107.570768 L 212.48737 110.248633 L 212.943555 110.047201 L 214.128451 112.725065 L 213.672266 112.926497 L 214.857161 115.604362 L 215.319271 115.40293 L 216.504167 118.080794 L 216.047982 118.288151 L 217.232878 120.966016 L 217.689063 120.764583 L 218.879883 123.442448 L 218.423698 123.64388 L 219.608594 126.321745 L 220.064779 126.120312 L 221.255599 128.798177 L 220.799414 128.999609 L 221.98431 131.677474 L 222.440495 131.476042 L 223.631315 134.153906 L 223.169206 134.361263 L 224.360026 137.039128 L 224.816211 136.837695 L 226.001107 139.51556 L 225.544922 139.716992 L 226.735742 142.394857 L 227.191927 142.193424 L 228.376823 144.871289 L 227.920638 145.072721 L 229.111458 147.750586 L 229.567643 147.549154 L 230.752539 150.227018 L 230.296354 150.434375 L 231.48125 153.11224 L 231.937435 152.910807 L 233.128255 155.588672 L 232.67207 155.790104 L 233.116406 156.797266 L 232.298828 157.537826 L 232.636523 157.911068 L 230.46224 159.87207 L 230.124544 159.504753 L 227.95026 161.465755 L 228.287956 161.838997 L 226.113672 163.8 L 225.775977 163.432682 L 223.601693 165.393685 L 223.939388 165.766927 L 221.765104 167.72793 L 221.427409 167.360612 L 219.253125 169.321615 L 219.59082 169.694857 L 217.416536 171.661784 L 217.078841 171.288542 L 214.904557 173.249544 L 215.242253 173.622786 L 213.067969 175.589714 L 212.730273 175.216471 L 210.55599 177.183398 L 210.893685 177.550716 L 208.719401 179.517643 L 208.381706 179.144401 L 206.207422 181.111328 L 206.545117 181.478646 L 204.370833 183.445573 L 204.033138 183.072331 L 201.858854 185.039258 L 202.196549 185.406576 L 200.022266 187.373503 L 199.68457 187.00026 L 197.510286 188.967187 L 197.847982 189.34043 L 195.673698 191.301432 L 195.336003 190.92819 L 193.161719 192.895117 L 193.499414 193.268359 L 191.32513 195.229362 L 190.987435 194.862044 L 189.903255 195.839583 L 188.813151 196.817122 L 189.144922 197.190365 L 186.964714 199.151367 L 186.632943 198.778125 L 184.452734 200.733203 L 184.784505 201.106445 L 182.604297 203.061523 L 182.266602 202.688281 L 180.086393 204.649284 L 180.424089 205.022526 L 178.24388 206.977604 L 177.906185 206.604362 L 175.725977 208.55944 L 176.057747 208.932682 L 173.877539 210.893685 L 173.545768 210.520443 L 171.36556 212.475521 L 171.697331 212.848763 L 169.517122 214.803841 L 169.185352 214.430599 L 167.005143 216.391602 L 167.336914 216.764844 L 165.156706 218.719922 L 164.824935 218.34668 L 162.638802 220.301758 L 162.976497 220.675 L 160.796289 222.630078 L 160.458594 222.26276 L 158.278385 224.217839 L 158.610156 224.591081 L 156.435872 226.546159 L 156.098177 226.172917 L 153.917969 228.133919 L 154.24974 228.501237 L 152.069531 230.46224 L 151.73776 230.088997 L 149.557552 232.044076 L 149.889323 232.417318 L 147.709115 234.372396 L 147.377344 234.005078 L 146.553841 234.739714 L 145.6 234.188737 L 145.351172 234.621224 L 142.80957 233.163802 L 143.058398 232.731315 L 140.516797 231.267969 L 140.267969 231.700456 L 137.726367 230.243034 L 137.975195 229.810547 L 135.439518 228.347201 L 135.19069 228.779687 L 132.649089 227.316341 L 132.897917 226.883854 L 130.356315 225.426432 L 130.107487 225.858919 L 127.565885 224.395573 L 127.820638 223.963086 L 125.279036 222.505664 L 125.030208 222.938151 L 122.488607 221.474805 L 122.737435 221.042318 L 120.195833 219.584896 L 119.947005 220.017383 L 117.405404 218.554036 L 117.654232 218.121549 L 115.118555 216.658203 L 114.869727 217.09069 L 112.328125 215.633268 L 112.576953 215.200781 L 110.035352 213.737435 L 109.786523 214.169922 L 107.250846 212.7125 L 107.499674 212.274089 L 104.958073 210.816667 L 104.709245 211.249154 L 102.167643 209.791732 L 102.416471 209.35332 L 99.87487 207.895898 L 99.626042 208.328385 L 97.08444 206.865039 L 97.339193 206.432552 L 96.06543 205.703841 L 94.797591 204.969206 L 94.548763 205.401693 L 92.013086 203.932422 L 92.267839 203.499935 L 89.732161 202.030664 L 89.477409 202.463151 L 86.941732 200.99388 L 87.196484 200.561393 L 84.660807 199.092122 L 84.406055 199.524609 L 81.876302 198.055339 L 82.12513 197.622852 L 79.589453 196.153581 L 79.340625 196.586068 L 76.804948 195.116797 L 77.053776 194.68431 L 74.518099 193.215039 L 74.269271 193.647526 L 71.733594 192.178255 L 71.982422 191.745768 L 69.446745 190.276497 L 69.197917 190.708984 L 66.66224 189.239714 L 66.911068 188.807227 L 64.375391 187.337956 L 64.126562 187.770443 L 61.590885 186.301172 L 61.845638 185.868685 L 59.309961 184.399414 L 59.055208 184.831901 L 56.519531 183.36263 L 56.774284 182.930143 L 54.238607 181.460872 L 53.983854 181.893359 L 51.454102 180.424089 L 51.70293 179.991602 L 49.167253 178.522331 L 48.918424 178.954818 L 46.382747 177.485547 L 46.631576 177.05306 L 45.677734 176.496159 L 45.902865 175.417904 L 45.417057 175.317187 L 46.021354 172.44974 L 46.507161 172.550456 L 47.111458 169.683008 L 46.625651 169.582292 L 47.229948 166.714844 L 47.715755 166.81556 L 48.320052 163.948112 L 47.834245 163.847396 L 48.438542 160.979948 L 48.924349 161.086589 L 49.53457 158.213216 L 49.042839 158.1125 L 49.647135 155.245052 L 50.138867 155.351693 L 50.743164 152.484245 L 50.251432 152.377604 L 50.855729 149.510156 L 51.347461 149.616797 L 51.951758 146.749349 L 51.460026 146.642708 L 52.064323 143.77526 L 52.556055 143.881901 L 53.160352 141.014453 L 52.66862 140.907813 L 53.272917 138.040365 L 53.764648 138.147005 L 54.368945 135.279557 L 53.877214 135.178841 L 54.48151 132.311393 L 54.973242 132.412109 L 55.577539 129.544661 L 55.085807 129.443945 L 55.690104 126.576497 L 56.181836 126.677214 L 56.786133 123.809766 L 56.294401 123.709049 L 56.898698 120.841602 L 57.39043 120.942318 L 57.692578 119.508594 L 58.000651 118.080794 L 57.508919 117.974154 L 58.125065 115.106706 L 58.610872 115.213346 L 59.227018 112.345898 L 58.735286 112.245182 L 59.351432 109.377734 L 59.83724 109.484375 L 60.453385 106.616927 L 59.967578 106.510286 L 60.577799 103.648763 L 61.069531 103.755404 L 61.679753 100.887956 L 61.193945 100.781315 L 61.810091 97.919792 L 62.295898 98.020508 L 62.912044 95.158984 L 62.420312 95.052344 L 63.036458 92.184896 L 63.522266 92.291536 L 64.138411 89.424089 L 63.64668 89.323372 L 64.262826 86.455924 L 64.754557 86.562565 L 65.364779 83.695117 L 64.878971 83.594401 L 65.489193 80.726953 L 65.980924 80.833594 L 66.59707 77.966146 L 66.105339 77.859505 L 66.721484 74.997982 L 67.207292 75.098698 L 67.823437 72.237174 L 67.331706 72.130534 L 67.947852 69.263086 L 68.433659 69.369727 L 69.049805 66.508203 L 68.563997 66.401562 L 69.174219 63.534115 L 69.665951 63.640755 L 69.897005 62.5625 L 70.993034 62.44401 L 70.939714 61.946354 L 73.854557 61.638281 L 73.907878 62.135937 L 76.822721 61.82194 L 76.769401 61.324284 L 79.67832 61.016211 L 79.731641 61.513867 L 82.646484 61.19987 L 82.593164 60.702214 L 85.508008 60.394141 L 85.561328 60.891797 L 88.476172 60.577799 L 88.422852 60.080143 L 91.337695 59.77207 L 91.385091 60.263802 L 94.299935 59.955729 L 94.246615 59.458073 L 97.161458 59.15 L 97.214779 59.641732 L 100.129622 59.333659 L 100.076302 58.836003 L 102.991146 58.522005 L 103.044466 59.019661 L 105.953385 58.711589 L 105.900065 58.213932 L 108.814909 57.899935 L 108.868229 58.397591 L 111.783073 58.089518 L 111.729753 57.591862 L 114.644596 57.277865 L 114.697917 57.775521 L 117.61276 57.467448 L 117.55944 56.969792 L 120.468359 56.655794 L 120.52168 57.153451 L 123.436523 56.845378 L 123.383203 56.347721 L 126.298047 56.033724 L 126.351367 56.53138 L 127.808789 56.377344 L 129.266211 56.229232 L 129.212891 55.731576 L 132.127734 55.429427 L 132.181055 55.927083 L 135.095898 55.624935 L 135.042578 55.127279 L 137.957422 54.82513 L 138.010742 55.322786 L 140.925586 55.020638 L 140.872266 54.522982 L 143.787109 54.220833 L 143.834505 54.71849 L 146.749349 54.416341 L 146.701953 53.918685 L 149.616797 53.616536 L 149.664193 54.114193 L 152.579036 53.817969 L 152.531641 53.320312 L 155.446484 53.018164 L 155.49388 53.51582 L 158.408724 53.213672 L 158.361328 52.716016 L 161.276172 52.413867 L 161.323568 52.911523 L 164.238411 52.609375 L 164.191016 52.111719 L 167.105859 51.80957 L 167.153255 52.307227 L 170.068099 52.005078 L 170.020703 51.507422 L 172.935547 51.205273 L 172.982943 51.70293 L 175.897786 51.406706 L 175.844466 50.909049 L 178.75931 50.606901 L 178.81263 51.104557 L 181.727474 50.802409 Z M 181.674154 50.304753 " transform="matrix(0.659341,0,0,0.659341,0,0)"/>
<path style=" stroke:none;fill-rule:nonzero;fill:rgb(100%,100%,100%);fill-opacity:0.2;" d="M 117.230469 42.292969 L 130.394531 71.726562 L 143.460938 101.207031 L 119.53125 122.820312 L 95.535156 144.355469 L 67.582031 128.28125 L 39.683594 112.113281 L 46.335938 80.5625 L 53.09375 49.03125 L 85.15625 45.609375 Z M 117.230469 42.292969 "/>
</g>
</svg>
