<svg width="465" height="363" viewBox="0 0 465 363" fill="none" xmlns="http://www.w3.org/2000/svg">
<g clip-path="url(#clip0)">
<path opacity="0.6" d="M14.0416 346.402C14.0416 346.402 -19.5309 300.974 30.0683 259.569C49.996 242.927 127.523 231.213 62.3462 138.402C24.0184 83.8441 79.6848 4.34984 168.544 54.8251C244.164 97.7808 296.758 6.31372 363.713 0.241179C414.641 -4.37567 445.271 58.305 414.546 107.04C380.076 161.719 445.806 152.537 460.089 170.643C485.247 202.513 403.603 240.343 441.059 280.827C479.197 322.051 453.047 346.419 453.047 346.419H14.0416V346.402Z" fill="#BDE7FF"/>
<path d="M393.54 347.694H1.39813C0.621392 347.694 0 347.065 0 346.298C0 345.523 0.630023 344.903 1.39813 344.903H393.54C394.317 344.903 394.938 345.532 394.938 346.298C394.947 347.074 394.317 347.694 393.54 347.694Z" fill="#91D1E2"/>
<path d="M457.258 347.694H398.217C397.441 347.694 396.819 347.065 396.819 346.298C396.819 345.523 397.449 344.903 398.217 344.903H457.258C458.035 344.903 458.657 345.532 458.657 346.298C458.657 347.074 458.035 347.694 457.258 347.694Z" fill="#91D1E2"/>
<path opacity="0.5" d="M234.153 355.153H66.0314C65.2547 355.153 64.6333 354.524 64.6333 353.758C64.6333 352.983 65.2633 352.362 66.0314 352.362H234.161C234.938 352.362 235.559 352.991 235.559 353.758C235.559 354.524 234.929 355.153 234.153 355.153Z" fill="#91D1E2"/>
<path opacity="0.5" d="M353.305 355.153H240.867C240.091 355.153 239.469 354.524 239.469 353.758C239.469 352.983 240.099 352.362 240.867 352.362H353.305C354.082 352.362 354.703 352.991 354.703 353.758C354.712 354.524 354.082 355.153 353.305 355.153Z" fill="#91D1E2"/>
<path opacity="0.25" d="M333.429 363H131.934C131.157 363 130.536 362.371 130.536 361.605C130.536 360.829 131.166 360.209 131.934 360.209H333.429C334.206 360.209 334.827 360.838 334.827 361.605C334.827 362.38 334.206 363 333.429 363Z" fill="#91D1E2"/>
<path opacity="0.25" d="M386.558 363H340.868C340.092 363 339.47 362.371 339.47 361.605C339.47 360.829 340.1 360.209 340.868 360.209H386.558C387.335 360.209 387.956 360.838 387.956 361.605C387.956 362.38 387.335 363 386.558 363Z" fill="#91D1E2"/>
<path d="M395.266 115.232V104.611H390.727C389.846 98.7025 387.516 93.2587 384.107 88.6677L387.326 85.4549L379.8 77.9439L376.581 81.1567C371.973 77.7544 366.527 75.4287 360.606 74.5501V70.0108H349.965V74.5501C344.044 75.4287 338.59 77.7544 333.99 81.1567L330.771 77.9439L323.245 85.4549L326.464 88.6677C323.055 93.2673 320.725 98.7025 319.845 104.611H315.296V115.232H319.845C320.725 121.141 323.055 126.584 326.464 131.175L323.245 134.388L330.771 141.899L333.99 138.686C338.599 142.089 344.044 144.414 349.965 145.293V149.824H360.606V145.284C366.527 144.406 371.981 142.08 376.581 138.678L379.8 141.891L387.326 134.38L384.107 131.167C387.516 126.576 389.846 121.132 390.727 115.223H395.266V115.232ZM382.079 107.256C383.71 124.181 369.591 138.282 352.64 136.68C340.299 135.517 330.141 125.74 328.561 113.466C326.3 95.8772 341.119 81.0447 358.759 83.2584C371.075 84.8002 380.896 94.9297 382.079 107.256Z" fill="#025AA2"/>
<path d="M368.461 123.089C375.748 115.816 375.748 104.025 368.461 96.7529C361.175 89.4805 349.36 89.4805 342.074 96.7529C334.787 104.025 334.787 115.816 342.074 123.089C349.36 130.361 361.175 130.361 368.461 123.089Z" fill="#025AA2"/>
<path d="M419.362 80.4073V76.0661H417.507C417.144 73.6543 416.195 71.4234 414.797 69.5456L416.108 68.2364L413.036 65.17L411.724 66.4792C409.843 65.0924 407.616 64.1363 405.191 63.7746V61.9227H400.841V63.7746C398.416 64.1363 396.189 65.0838 394.308 66.4792L392.996 65.17L389.924 68.2364L391.235 69.5456C389.846 71.4234 388.888 73.6457 388.525 76.0661H386.67V80.4073H388.525C388.888 82.8277 389.837 85.05 391.235 86.9277L389.924 88.237L392.996 91.3034L394.308 89.9942C396.189 91.3809 398.416 92.337 400.841 92.6988V94.5507H405.191V92.6988C407.616 92.337 409.843 91.3896 411.724 89.9942L413.036 91.3034L416.108 88.237L414.797 86.9277C416.186 85.05 417.144 82.8277 417.507 80.4073H419.362ZM413.977 77.1514C414.641 84.0681 408.876 89.8305 401.946 89.1759C396.897 88.7021 392.746 84.7055 392.107 79.6838C391.184 72.4915 397.242 66.4275 404.449 67.3406C409.48 67.9694 413.493 72.1125 413.977 77.1514Z" fill="white"/>
<path d="M410.645 78.2367C410.645 82.4401 407.228 85.851 403.016 85.851C398.804 85.851 395.387 82.4401 395.387 78.2367C395.387 74.0333 398.804 70.6223 403.016 70.6223C407.236 70.6223 410.645 74.0333 410.645 78.2367Z" fill="white"/>
<g opacity="0.5">
<g opacity="0.5">
<path opacity="0.5" d="M95.1078 281.921C91.1896 276.761 85.0016 273.419 78.0195 273.428C66.6878 273.445 57.0993 282.653 56.6592 293.954C56.1845 306.142 65.9456 316.168 78.0541 316.168C85.3382 316.168 91.7679 312.525 95.6343 306.978L78.0541 294.798L95.1078 281.921Z" fill="white"/>
<g opacity="0.5">
<path opacity="0.5" d="M100.131 281.921L83.0771 294.798L100.657 306.978C103.065 303.524 104.481 299.329 104.481 294.798C104.481 289.949 102.85 285.504 100.131 281.921Z" fill="white"/>
</g>
</g>
</g>
<g opacity="0.7">
<path opacity="0.7" d="M88.2894 126.205C71.9951 126.205 58.7388 112.975 58.7388 96.7127C58.7388 80.4504 71.9951 67.22 88.2894 67.22C104.584 67.22 117.84 80.4504 117.84 96.7127C117.849 112.966 104.592 126.205 88.2894 126.205ZM88.2894 71.7593C74.5066 71.7593 63.2956 82.9483 63.2956 96.7041C63.2956 110.46 74.5066 121.649 88.2894 121.649C102.072 121.649 113.283 110.46 113.283 96.7041C113.283 82.9483 102.072 71.7593 88.2894 71.7593Z" fill="#ACE2F9"/>
<path opacity="0.7" d="M106.361 96.7041C106.361 95.8858 107.035 95.2139 107.854 95.2139H110.418C111.238 95.2139 111.911 95.8858 111.911 96.7041C111.911 97.5224 111.238 98.1942 110.418 98.1942H107.854C107.035 98.2028 106.361 97.531 106.361 96.7041Z" fill="#ACE2F9"/>
<path opacity="0.7" d="M64.668 96.7041C64.668 95.8858 65.3411 95.2139 66.161 95.2139H68.7243C69.5442 95.2139 70.2173 95.8858 70.2173 96.7041C70.2173 97.5224 69.5442 98.1942 68.7243 98.1942H66.161C65.3411 98.2028 64.668 97.531 64.668 96.7041Z" fill="#ACE2F9"/>
<path opacity="0.7" d="M88.2895 114.741C89.1093 114.741 89.7825 115.413 89.7825 116.231V118.789C89.7825 119.607 89.1093 120.279 88.2895 120.279C87.4696 120.279 86.7964 119.607 86.7964 118.789V116.231C86.7964 115.413 87.4696 114.741 88.2895 114.741Z" fill="#ACE2F9"/>
<path opacity="0.7" d="M88.2895 73.1288C89.1093 73.1288 89.7825 73.8007 89.7825 74.619V77.1772C89.7825 77.9955 89.1093 78.6673 88.2895 78.6673C87.4696 78.6673 86.7964 77.9955 86.7964 77.1772V74.619C86.7964 73.8007 87.4696 73.1288 88.2895 73.1288Z" fill="#ACE2F9"/>
<path opacity="0.7" d="M75.5163 109.452C76.0945 110.029 76.0945 110.985 75.5163 111.562L73.7039 113.371C73.1257 113.948 72.1677 113.948 71.5894 113.371C71.0112 112.794 71.0112 111.838 71.5894 111.261L73.4018 109.452C73.9801 108.875 74.9381 108.875 75.5163 109.452Z" fill="#ACE2F9"/>
<path opacity="0.7" d="M104.998 80.0369C105.576 80.614 105.576 81.5701 104.998 82.1472L103.186 83.956C102.608 84.5331 101.65 84.5331 101.071 83.956C100.493 83.3789 100.493 82.4228 101.071 81.8457L102.884 80.0369C103.462 79.4512 104.411 79.4512 104.998 80.0369Z" fill="#ACE2F9"/>
<path opacity="0.7" d="M75.5163 83.956C74.9381 84.5332 73.9801 84.5332 73.4018 83.956L71.5894 82.1472C71.0112 81.5701 71.0112 80.614 71.5894 80.0369C72.1677 79.4598 73.1257 79.4598 73.7039 80.0369L75.5163 81.8457C76.1032 82.4228 76.1032 83.3789 75.5163 83.956Z" fill="#ACE2F9"/>
<path opacity="0.7" d="M104.998 113.38C104.42 113.957 103.462 113.957 102.884 113.38L101.071 111.571C100.493 110.994 100.493 110.038 101.071 109.461C101.65 108.884 102.608 108.884 103.186 109.461L104.998 111.27C105.576 111.847 105.576 112.794 104.998 113.38Z" fill="#ACE2F9"/>
<path opacity="0.7" d="M90.7403 96.704C90.7403 98.0478 89.6442 99.1417 88.2979 99.1417C86.9515 99.1417 85.8555 98.0478 85.8555 96.704C85.8555 95.3603 86.9515 94.2664 88.2979 94.2664C89.6442 94.2664 90.7403 95.3603 90.7403 96.704Z" fill="#ACE2F9"/>
<path opacity="0.7" d="M88.2896 93.6463C88.0307 93.6463 87.8149 93.4309 87.8149 93.1725V80.7087C87.8149 80.4503 88.0307 80.235 88.2896 80.235C88.5485 80.235 88.7643 80.4503 88.7643 80.7087V93.1811C88.7643 93.4395 88.5572 93.6463 88.2896 93.6463Z" fill="#ACE2F9"/>
<path opacity="0.7" d="M91.6641 96.7041C91.6641 96.4457 91.8798 96.2303 92.1387 96.2303H100.389C100.648 96.2303 100.864 96.4457 100.864 96.7041C100.864 96.9625 100.648 97.1778 100.389 97.1778H92.1387C91.8798 97.1778 91.6641 96.9711 91.6641 96.7041Z" fill="#ACE2F9"/>
</g>
<path opacity="0.5" d="M407.056 180.6H403.5V177.051C403.5 176.474 403.034 176.009 402.456 176.009C401.877 176.009 401.411 176.474 401.411 177.051V180.6H397.864C397.286 180.6 396.82 181.065 396.82 181.642C396.82 182.219 397.286 182.684 397.864 182.684H401.42V186.233C401.42 186.81 401.886 187.275 402.464 187.275C403.042 187.275 403.508 186.81 403.508 186.233V182.684H407.064C407.642 182.684 408.108 182.219 408.108 181.642C408.1 181.065 407.634 180.6 407.056 180.6Z" fill="#11AFD3"/>
<path d="M84.2854 258.535H80.7296V254.986C80.7296 254.409 80.2636 253.944 79.6853 253.944C79.1071 253.944 78.641 254.409 78.641 254.986V258.535H75.0853C74.5071 258.535 74.041 259 74.041 259.577C74.041 260.154 74.5071 260.62 75.0853 260.62H78.641V264.168C78.641 264.745 79.1071 265.211 79.6853 265.211C80.2636 265.211 80.7296 264.745 80.7296 264.168V260.62H84.2854C84.8636 260.62 85.3297 260.154 85.3297 259.577C85.3297 259 84.8636 258.535 84.2854 258.535Z" fill="white"/>
<path d="M30.1463 331.035H27.8161V328.71C27.8161 328.331 27.514 328.029 27.1343 328.029C26.7545 328.029 26.4525 328.331 26.4525 328.71V331.035H24.1222C23.7425 331.035 23.4404 331.337 23.4404 331.716C23.4404 332.095 23.7425 332.396 24.1222 332.396H26.4525V334.722C26.4525 335.101 26.7545 335.402 27.1343 335.402C27.514 335.402 27.8161 335.101 27.8161 334.722V332.396H30.1463C30.526 332.396 30.8281 332.095 30.8281 331.716C30.8281 331.337 30.5174 331.035 30.1463 331.035Z" fill="white"/>
<path opacity="0.5" d="M111.523 23.2479H107.967V19.6992C107.967 19.1221 107.501 18.6569 106.923 18.6569C106.344 18.6569 105.878 19.1221 105.878 19.6992V23.2479H102.323C101.744 23.2479 101.278 23.7131 101.278 24.2902C101.278 24.8673 101.744 25.3324 102.323 25.3324H105.878V28.8812C105.878 29.4583 106.344 29.9234 106.923 29.9234C107.501 29.9234 107.967 29.4583 107.967 28.8812V25.3238H111.523C112.101 25.3238 112.567 24.8587 112.567 24.2816C112.558 23.7131 112.092 23.2479 111.523 23.2479Z" fill="#11AFD3"/>
<path opacity="0.8" d="M165.524 272.368H161.968V268.82C161.968 268.243 161.502 267.777 160.924 267.777C160.345 267.777 159.879 268.243 159.879 268.82V272.368H156.324C155.745 272.368 155.279 272.834 155.279 273.411C155.279 273.988 155.745 274.453 156.324 274.453H159.879V278.002C159.879 278.579 160.345 279.044 160.924 279.044C161.502 279.044 161.968 278.579 161.968 278.002V274.453H165.524C166.102 274.453 166.568 273.988 166.568 273.411C166.568 272.834 166.102 272.368 165.524 272.368Z" fill="white"/>
<path d="M289.741 22.1195H286.186V18.5707C286.186 17.9936 285.72 17.5285 285.141 17.5285C284.563 17.5285 284.097 17.9936 284.097 18.5707V22.1195H280.541C279.963 22.1195 279.497 22.5846 279.497 23.1618C279.497 23.7389 279.963 24.204 280.541 24.204H284.097V27.7528C284.097 28.3299 284.563 28.795 285.141 28.795C285.72 28.795 286.186 28.3299 286.186 27.7528V24.204H289.741C290.32 24.204 290.786 23.7389 290.786 23.1618C290.777 22.5846 290.311 22.1195 289.741 22.1195Z" fill="#025AA2"/>
<path opacity="0.6" d="M187.091 37.4258H185.072V35.4102C185.072 35.0829 184.804 34.8245 184.485 34.8245C184.157 34.8245 183.898 35.0915 183.898 35.4102V37.4258H181.878C181.55 37.4258 181.292 37.6928 181.292 38.0115C181.292 38.3388 181.559 38.5973 181.878 38.5973H183.898V40.6128C183.898 40.9401 184.165 41.1985 184.485 41.1985C184.813 41.1985 185.072 40.9315 185.072 40.6128V38.5973H187.091C187.419 38.5973 187.678 38.3302 187.678 38.0115C187.687 37.6928 187.419 37.4258 187.091 37.4258Z" fill="#BDE7FF"/>
<path opacity="0.8" d="M185.287 323.662C183.967 323.662 182.741 324.05 181.671 324.67C180.972 318.795 175.975 314.247 169.908 314.247C165.049 314.247 160.881 317.167 159.051 321.336C158.335 321.138 157.601 321 156.824 321C152.147 321 148.349 324.79 148.349 329.459C148.349 334.127 152.147 337.917 156.824 337.917H185.296C189.24 337.917 192.442 334.722 192.442 330.785C192.425 326.858 189.232 323.662 185.287 323.662Z" fill="white"/>
<path opacity="0.8" d="M282.82 306.056C281.5 306.056 280.274 306.444 279.204 307.064C278.505 301.189 273.508 296.641 267.441 296.641C262.582 296.641 258.413 299.561 256.584 303.73C255.867 303.532 255.134 303.394 254.357 303.394C249.679 303.394 245.882 307.184 245.882 311.853C245.882 316.521 249.679 320.311 254.357 320.311H282.829C286.773 320.311 289.975 317.116 289.975 313.179C289.966 309.252 286.764 306.056 282.82 306.056Z" fill="white"/>
<path opacity="0.7" d="M65.1771 189.747C64.1932 189.747 63.287 190.032 62.493 190.497C61.9752 186.138 58.2641 182.762 53.759 182.762C50.1515 182.762 47.0618 184.924 45.6982 188.025C45.1717 187.878 44.6193 187.775 44.0411 187.775C40.5717 187.775 37.7495 190.583 37.7495 194.054C37.7495 197.517 40.563 200.334 44.0411 200.334H65.1685C68.0942 200.334 70.4676 197.965 70.4676 195.045C70.4762 192.108 68.1028 189.747 65.1771 189.747Z" fill="#ACE2F9"/>
<path d="M358.923 40.8884C358.224 42.792 357.292 44.5319 356.144 46.0996C350.672 53.645 340.652 56.9785 331.452 53.6192C324.574 51.1041 319.767 45.4364 318.075 38.8384C317.04 34.7986 317.169 30.423 318.714 26.211C322.77 15.134 335.06 9.4318 346.159 13.4888L338.806 33.5497L359.855 29.7597C360.52 33.3688 360.278 37.1932 358.923 40.8884Z" fill="#E6F7FF"/>
<path d="M362.979 26.8914C361.668 19.6733 356.688 13.3165 349.283 10.6205L341.93 30.6814L362.979 26.8914Z" fill="#E6F7FF"/>
<path d="M358.923 40.8884C358.224 42.792 357.292 44.532 356.144 46.0996L338.814 33.5497L359.864 29.7598C360.52 33.3688 360.278 37.1932 358.923 40.8884Z" fill="white"/>
<path d="M346.167 13.4888L338.814 33.5497L318.084 38.8384C317.048 34.7986 317.178 30.423 318.723 26.211C322.779 15.134 335.06 9.4318 346.167 13.4888Z" fill="white"/>
<path d="M390.632 26.1163C389.061 26.1163 387.654 26.7967 386.67 27.8734L382.407 24.8845C382.605 24.4366 382.726 23.937 382.726 23.4202C382.726 21.4305 381.112 19.8198 379.119 19.8198C377.125 19.8198 375.511 21.4305 375.511 23.4202C375.511 25.4099 377.125 27.0207 379.119 27.0207C380.094 27.0207 380.966 26.6331 381.613 26.0129L385.885 29.0104C385.488 29.7598 385.246 30.5953 385.246 31.4997C385.246 32.7831 385.712 33.9373 386.463 34.859L384.271 37.1416C383.71 36.7798 383.046 36.5645 382.329 36.5645C380.336 36.5645 378.722 38.1752 378.722 40.1649C378.722 42.1546 380.336 43.7654 382.329 43.7654C384.323 43.7654 385.937 42.1546 385.937 40.1649C385.937 39.3897 385.687 38.6748 385.272 38.0891L387.456 35.8065C388.345 36.4611 389.441 36.8659 390.64 36.8659C393.618 36.8659 396.026 34.4628 396.026 31.4911C396.017 28.528 393.609 26.1163 390.632 26.1163Z" fill="white"/>
<path d="M71.9006 224.072C71.9351 227.845 68.8972 230.929 65.1171 230.963C61.3369 230.998 58.2472 227.966 58.2127 224.193C58.1782 220.42 61.2161 217.337 64.9962 217.302C68.7764 217.268 71.8661 220.3 71.9006 224.072Z" fill="#025AA2"/>
<path d="M62.0444 224.477L64.763 227.061L68.3188 222.177" stroke="white" stroke-width="1.6843" stroke-miterlimit="10" stroke-linecap="round" stroke-linejoin="round"/>
<path d="M432.015 131.486C432.049 135.913 428.485 139.539 424.049 139.574C419.613 139.608 415.979 136.051 415.945 131.623C415.91 127.196 419.474 123.57 423.91 123.535C428.355 123.501 431.98 127.058 432.015 131.486Z" fill="#E6505C"/>
<path d="M420.45 131.968L423.643 135L427.82 129.272" stroke="white" stroke-width="1.9781" stroke-miterlimit="10" stroke-linecap="round" stroke-linejoin="round"/>
<path opacity="0.6" d="M458.683 268.923C458.726 273.436 455.084 277.132 450.561 277.166C446.039 277.209 442.337 273.574 442.293 269.061C442.25 264.547 445.892 260.852 450.415 260.809C454.946 260.783 458.648 264.41 458.683 268.923Z" fill="#BDE7FF"/>
<path d="M446.885 269.414L450.138 272.506L454.402 266.666" stroke="white" stroke-width="2.017" stroke-miterlimit="10" stroke-linecap="round" stroke-linejoin="round"/>
<g opacity="0.25">
<path opacity="0.25" d="M337.727 78.4865V244.805C337.727 252.015 331.867 257.863 324.643 257.863H121.068C113.844 257.863 107.984 252.015 107.984 244.805V78.4865C107.984 71.2598 113.844 65.4284 121.068 65.4284H324.635C331.858 65.4284 337.727 71.2598 337.727 78.4865Z" fill="#2A507A"/>
<path opacity="0.25" d="M337.727 78.4865V101.743H107.984V78.4865C107.984 71.2598 113.844 65.4284 121.068 65.4284H324.635C331.858 65.4284 337.727 71.2598 337.727 78.4865Z" fill="#2A507A"/>
<path opacity="0.25" d="M141.272 138.17H119.1C117.996 138.17 117.098 137.274 117.098 136.171V114.043C117.098 112.941 117.996 112.045 119.1 112.045H141.272C142.377 112.045 143.274 112.941 143.274 114.043V136.171C143.274 137.274 142.377 138.17 141.272 138.17Z" fill="#2A507A"/>
<path opacity="0.25" d="M178.573 138.17H156.401C155.296 138.17 154.399 137.274 154.399 136.171V114.043C154.399 112.941 155.296 112.045 156.401 112.045H178.573C179.678 112.045 180.575 112.941 180.575 114.043V136.171C180.575 137.274 179.678 138.17 178.573 138.17Z" fill="#2A507A"/>
<path opacity="0.25" d="M215.874 138.17H193.702C192.597 138.17 191.7 137.274 191.7 136.171V114.043C191.7 112.941 192.597 112.045 193.702 112.045H215.874C216.978 112.045 217.876 112.941 217.876 114.043V136.171C217.885 137.274 216.978 138.17 215.874 138.17Z" fill="#2A507A"/>
<path opacity="0.25" d="M253.174 138.17H231.003C229.898 138.17 229 137.274 229 136.171V114.043C229 112.941 229.898 112.045 231.003 112.045H253.174C254.279 112.045 255.177 112.941 255.177 114.043V136.171C255.185 137.274 254.288 138.17 253.174 138.17Z" fill="#2A507A"/>
<path opacity="0.25" d="M290.475 138.17H268.304C267.199 138.17 266.301 137.274 266.301 136.171V114.043C266.301 112.941 267.199 112.045 268.304 112.045H290.475C291.58 112.045 292.477 112.941 292.477 114.043V136.171C292.486 137.274 291.589 138.17 290.475 138.17Z" stroke="#2A507A" stroke-width="1.3019" stroke-miterlimit="10"/>
<path opacity="0.25" d="M327.776 138.17H305.604C304.5 138.17 303.602 137.274 303.602 136.171V114.043C303.602 112.941 304.5 112.045 305.604 112.045H327.776C328.881 112.045 329.778 112.941 329.778 114.043V136.171C329.787 137.274 328.889 138.17 327.776 138.17Z" fill="#2A507A"/>
<path opacity="0.25" d="M141.272 173.227H119.1C117.996 173.227 117.098 172.331 117.098 171.228V149.1C117.098 147.998 117.996 147.102 119.1 147.102H141.272C142.377 147.102 143.274 147.998 143.274 149.1V171.228C143.274 172.331 142.377 173.227 141.272 173.227Z" fill="#2A507A"/>
<path opacity="0.25" d="M178.573 173.227H156.401C155.296 173.227 154.399 172.331 154.399 171.228V149.1C154.399 147.998 155.296 147.102 156.401 147.102H178.573C179.678 147.102 180.575 147.998 180.575 149.1V171.228C180.575 172.331 179.678 173.227 178.573 173.227Z" fill="#2A507A"/>
<path opacity="0.25" d="M215.874 173.227H193.702C192.597 173.227 191.7 172.331 191.7 171.228V149.1C191.7 147.998 192.597 147.102 193.702 147.102H215.874C216.978 147.102 217.876 147.998 217.876 149.1V171.228C217.885 172.331 216.978 173.227 215.874 173.227Z" stroke="#2A507A" stroke-width="1.3019" stroke-miterlimit="10"/>
<path opacity="0.25" d="M253.174 173.227H231.003C229.898 173.227 229 172.331 229 171.228V149.1C229 147.998 229.898 147.102 231.003 147.102H253.174C254.279 147.102 255.177 147.998 255.177 149.1V171.228C255.185 172.331 254.288 173.227 253.174 173.227Z" fill="#2A507A"/>
<path opacity="0.25" d="M290.475 173.227H268.304C267.199 173.227 266.301 172.331 266.301 171.228V149.1C266.301 147.998 267.199 147.102 268.304 147.102H290.475C291.58 147.102 292.477 147.998 292.477 149.1V171.228C292.486 172.331 291.589 173.227 290.475 173.227Z" fill="#2A507A"/>
<path opacity="0.25" d="M327.776 173.227H305.604C304.5 173.227 303.602 172.331 303.602 171.228V149.1C303.602 147.998 304.5 147.102 305.604 147.102H327.776C328.881 147.102 329.778 147.998 329.778 149.1V171.228C329.787 172.331 328.889 173.227 327.776 173.227Z" fill="#2A507A"/>
<path opacity="0.25" d="M141.272 208.284H119.1C117.996 208.284 117.098 207.388 117.098 206.285V184.157C117.098 183.055 117.996 182.159 119.1 182.159H141.272C142.377 182.159 143.274 183.055 143.274 184.157V206.285C143.274 207.388 142.377 208.284 141.272 208.284Z" fill="#2A507A"/>
<path opacity="0.25" d="M178.573 208.284H156.401C155.296 208.284 154.399 207.388 154.399 206.285V184.157C154.399 183.055 155.296 182.159 156.401 182.159H178.573C179.678 182.159 180.575 183.055 180.575 184.157V206.285C180.575 207.388 179.678 208.284 178.573 208.284Z" fill="#2A507A"/>
<path opacity="0.25" d="M215.874 208.284H193.702C192.597 208.284 191.7 207.388 191.7 206.285V184.157C191.7 183.055 192.597 182.159 193.702 182.159H215.874C216.978 182.159 217.876 183.055 217.876 184.157V206.285C217.885 207.388 216.978 208.284 215.874 208.284Z" fill="#2A507A"/>
<path opacity="0.25" d="M253.174 208.284H231.003C229.898 208.284 229 207.388 229 206.285V184.157C229 183.055 229.898 182.159 231.003 182.159H253.174C254.279 182.159 255.177 183.055 255.177 184.157V206.285C255.185 207.388 254.288 208.284 253.174 208.284Z" fill="#2A507A"/>
<path opacity="0.25" d="M290.475 208.284H268.304C267.199 208.284 266.301 207.388 266.301 206.285V184.157C266.301 183.055 267.199 182.159 268.304 182.159H290.475C291.58 182.159 292.477 183.055 292.477 184.157V206.285C292.486 207.388 291.589 208.284 290.475 208.284Z" fill="#2A507A"/>
<path opacity="0.25" d="M327.776 208.284H305.604C304.5 208.284 303.602 207.388 303.602 206.285V184.157C303.602 183.055 304.5 182.159 305.604 182.159H327.776C328.881 182.159 329.778 183.055 329.778 184.157V206.285C329.787 207.388 328.889 208.284 327.776 208.284Z" fill="#2A507A"/>
<path opacity="0.25" d="M141.272 243.349H119.1C117.996 243.349 117.098 242.454 117.098 241.351V219.223C117.098 218.12 117.996 217.225 119.1 217.225H141.272C142.377 217.225 143.274 218.12 143.274 219.223V241.351C143.274 242.454 142.377 243.349 141.272 243.349Z" stroke="#2A507A" stroke-width="1.3019" stroke-miterlimit="10"/>
<path opacity="0.25" d="M178.573 243.349H156.401C155.296 243.349 154.399 242.454 154.399 241.351V219.223C154.399 218.12 155.296 217.225 156.401 217.225H178.573C179.678 217.225 180.575 218.12 180.575 219.223V241.351C180.575 242.454 179.678 243.349 178.573 243.349Z" fill="#2A507A"/>
<path opacity="0.25" d="M215.874 243.349H193.702C192.597 243.349 191.7 242.454 191.7 241.351V219.223C191.7 218.12 192.597 217.225 193.702 217.225H215.874C216.978 217.225 217.876 218.12 217.876 219.223V241.351C217.885 242.454 216.978 243.349 215.874 243.349Z" fill="#2A507A"/>
<path opacity="0.25" d="M253.174 243.349H231.003C229.898 243.349 229 242.454 229 241.351V219.223C229 218.12 229.898 217.225 231.003 217.225H253.174C254.279 217.225 255.177 218.12 255.177 219.223V241.351C255.185 242.454 254.288 243.349 253.174 243.349Z" fill="#2A507A"/>
<path opacity="0.25" d="M290.475 243.349H268.304C267.199 243.349 266.301 242.454 266.301 241.351V219.223C266.301 218.12 267.199 217.225 268.304 217.225H290.475C291.58 217.225 292.477 218.12 292.477 219.223V241.351C292.486 242.454 291.589 243.349 290.475 243.349Z" fill="#2A507A"/>
<path opacity="0.25" d="M327.776 243.349H305.604C304.5 243.349 303.602 242.454 303.602 241.351V219.223C303.602 218.12 304.5 217.225 305.604 217.225H327.776C328.881 217.225 329.778 218.12 329.778 219.223V241.351C329.787 242.454 328.889 243.349 327.776 243.349Z" fill="#2A507A"/>
<path opacity="0.25" d="M126.574 85.6788C126.574 88.3059 124.443 90.4335 121.81 90.4335C119.178 90.4335 117.046 88.3059 117.046 85.6788C117.046 83.0517 119.178 80.9241 121.81 80.9241C124.443 80.9241 126.574 83.0603 126.574 85.6788Z" fill="#2A507A"/>
<path opacity="0.25" d="M162.365 90.4335C164.996 90.4335 167.129 88.3047 167.129 85.6788C167.129 83.0529 164.996 80.9241 162.365 80.9241C159.734 80.9241 157.601 83.0529 157.601 85.6788C157.601 88.3047 159.734 90.4335 162.365 90.4335Z" fill="#2A507A"/>
<path opacity="0.25" d="M202.902 90.4335C205.533 90.4335 207.666 88.3047 207.666 85.6788C207.666 83.0529 205.533 80.9241 202.902 80.9241C200.271 80.9241 198.138 83.0529 198.138 85.6788C198.138 88.3047 200.271 90.4335 202.902 90.4335Z" fill="#2A507A"/>
<path opacity="0.25" d="M248.212 85.6788C248.212 88.3059 246.08 90.4335 243.448 90.4335C240.816 90.4335 238.684 88.3059 238.684 85.6788C238.684 83.0517 240.816 80.9241 243.448 80.9241C246.08 80.9327 248.212 83.0603 248.212 85.6788Z" fill="#2A507A"/>
<path opacity="0.25" d="M288.758 85.6788C288.758 88.3059 286.626 90.4335 283.994 90.4335C281.362 90.4335 279.23 88.3059 279.23 85.6788C279.23 83.0517 281.362 80.9241 283.994 80.9241C286.626 80.9327 288.758 83.0603 288.758 85.6788Z" fill="#2A507A"/>
<path opacity="0.25" d="M329.303 85.6788C329.303 88.3059 327.172 90.4335 324.539 90.4335C321.907 90.4335 319.775 88.3059 319.775 85.6788C319.775 83.0517 321.907 80.9241 324.539 80.9241C327.172 80.9327 329.303 83.0603 329.303 85.6788Z" fill="#2A507A"/>
<path opacity="0.25" d="M121.819 85.6788V63.3698" stroke="#2A507A" stroke-width="5.4139" stroke-miterlimit="10" stroke-linecap="round"/>
<path opacity="0.25" d="M162.365 85.6788V63.3698" stroke="#2A507A" stroke-width="5.4139" stroke-miterlimit="10" stroke-linecap="round"/>
<path opacity="0.25" d="M202.902 85.6788V63.3698" stroke="#2A507A" stroke-width="5.4139" stroke-miterlimit="10" stroke-linecap="round"/>
<path opacity="0.25" d="M283.994 85.6788V63.3698" stroke="#2A507A" stroke-width="5.4139" stroke-miterlimit="10" stroke-linecap="round"/>
<path opacity="0.25" d="M324.54 85.6788V63.3698" stroke="#2A507A" stroke-width="5.4139" stroke-miterlimit="10" stroke-linecap="round"/>
<path opacity="0.25" d="M212.3 188.206C211.532 188.481 210.764 188.697 209.979 188.886C210.531 190.79 210.833 192.771 210.859 194.735H215.071C214.959 192.22 213.923 189.928 212.3 188.206ZM208.814 185.777C209.15 186.483 209.426 187.224 209.685 187.956C210.298 187.809 210.911 187.646 211.506 187.456C210.704 186.759 209.815 186.19 208.814 185.777ZM207.519 185.312C206.803 185.113 206.052 184.993 205.267 184.967V188.49C206.414 188.481 207.58 188.361 208.727 188.154C208.408 187.181 207.994 186.233 207.519 185.312ZM209.021 189.084C207.787 189.308 206.527 189.446 205.275 189.455V194.735H209.901C209.867 192.831 209.573 190.919 209.021 189.084ZM204.792 184.958C204.628 184.958 204.473 184.958 204.309 184.967H205.275C205.111 184.958 204.956 184.958 204.792 184.958ZM202.056 185.312C201.581 186.233 201.176 187.181 200.848 188.137C201.987 188.343 203.152 188.473 204.309 188.481V184.958C203.523 184.993 202.772 185.122 202.056 185.312ZM198.069 187.439C198.664 187.646 199.268 187.809 199.89 187.956C200.149 187.215 200.434 186.492 200.761 185.785C199.778 186.19 198.871 186.75 198.069 187.439ZM200.554 189.076C200.011 190.91 199.709 192.814 199.683 194.735H204.3V189.455C203.057 189.446 201.789 189.3 200.554 189.076ZM197.292 188.188C195.661 189.92 194.625 192.22 194.504 194.735H198.716C198.751 192.754 199.053 190.781 199.596 188.86C198.811 188.679 198.043 188.464 197.292 188.188ZM205.275 195.699V200.988C206.527 201.005 207.778 201.135 209.012 201.367C209.565 199.524 209.867 197.612 209.892 195.699H205.275V195.699ZM210.859 195.699C210.825 197.689 210.531 199.653 209.962 201.565C210.738 201.746 211.515 201.979 212.283 202.246C213.914 200.523 214.95 198.232 215.062 195.708H210.859V195.699ZM199.907 202.496C199.294 202.642 198.673 202.806 198.069 203.012C198.871 203.71 199.786 204.27 200.787 204.701C200.468 203.968 200.166 203.245 199.907 202.496ZM209.668 202.487C209.418 203.236 209.124 203.96 208.788 204.692C209.798 204.27 210.712 203.701 211.506 202.986C210.902 202.788 210.281 202.625 209.668 202.487ZM205.275 201.953V205.493C206.035 205.45 206.777 205.338 207.493 205.148C207.977 204.227 208.391 203.271 208.719 202.306C207.571 202.082 206.423 201.97 205.275 201.953ZM200.865 202.306C201.202 203.262 201.616 204.21 202.099 205.131C202.798 205.329 203.54 205.441 204.309 205.476V201.936C203.152 201.97 202.004 202.091 200.865 202.306ZM198.716 195.699H194.504C194.617 198.232 195.652 200.54 197.292 202.263C198.052 201.996 198.828 201.763 199.622 201.574C199.061 199.653 198.751 197.689 198.716 195.699ZM199.683 195.699C199.717 197.62 200.019 199.524 200.563 201.367C201.797 201.143 203.049 201.005 204.3 200.988V195.699H199.683V195.699Z" fill="#2A507A"/>
<path opacity="0.25" d="M204.3 205.484C204.464 205.493 204.62 205.493 204.784 205.493C204.948 205.493 205.103 205.493 205.267 205.484" fill="#2A507A"/>
<path opacity="0.25" d="M122.509 126.912L128.818 132.183L137.915 119.564" stroke="#2A507A" stroke-width="3.9056" stroke-miterlimit="10" stroke-linecap="round" stroke-linejoin="round"/>
<path opacity="0.25" d="M272.412 126.912L278.729 132.183L287.826 119.564" stroke="#2A507A" stroke-width="3.9056" stroke-miterlimit="10" stroke-linecap="round" stroke-linejoin="round"/>
<path opacity="0.25" d="M159.784 230.533L166.093 235.795L175.19 223.177" stroke="#2A507A" stroke-width="3.9056" stroke-miterlimit="10" stroke-linecap="round" stroke-linejoin="round"/>
</g>
<path d="M333.231 73.9988V240.317C333.231 247.527 327.37 253.376 320.147 253.376H116.58C109.357 253.376 103.497 247.527 103.497 240.317V73.9988C103.497 66.7721 109.357 60.9407 116.58 60.9407H320.147C327.37 60.9407 333.231 66.7807 333.231 73.9988Z" fill="white"/>
<path d="M333.23 73.9988V97.2554H103.488V73.9988C103.488 66.7721 109.348 60.9407 116.572 60.9407H320.138C327.37 60.9407 333.23 66.7807 333.23 73.9988Z" fill="#E6505C"/>
<path d="M136.775 133.682H114.604C113.499 133.682 112.602 132.786 112.602 131.684V109.556C112.602 108.453 113.499 107.557 114.604 107.557H136.775C137.88 107.557 138.778 108.453 138.778 109.556V131.684C138.786 132.786 137.889 133.682 136.775 133.682Z" fill="#ACE2F9"/>
<path d="M174.076 133.682H151.905C150.8 133.682 149.902 132.786 149.902 131.684V109.556C149.902 108.453 150.8 107.557 151.905 107.557H174.076C175.181 107.557 176.079 108.453 176.079 109.556V131.684C176.087 132.786 175.19 133.682 174.076 133.682Z" fill="#ACE2F9"/>
<path d="M211.377 133.682H189.205C188.101 133.682 187.203 132.786 187.203 131.684V109.556C187.203 108.453 188.101 107.557 189.205 107.557H211.377C212.482 107.557 213.379 108.453 213.379 109.556V131.684C213.388 132.786 212.49 133.682 211.377 133.682Z" fill="#ACE2F9"/>
<path d="M248.678 133.682H226.506C225.401 133.682 224.504 132.786 224.504 131.684V109.556C224.504 108.453 225.401 107.557 226.506 107.557H248.678C249.783 107.557 250.68 108.453 250.68 109.556V131.684C250.689 132.786 249.791 133.682 248.678 133.682Z" fill="#ACE2F9"/>
<path d="M285.979 133.682H263.807C262.702 133.682 261.805 132.786 261.805 131.684V109.556C261.805 108.453 262.702 107.557 263.807 107.557H285.979C287.083 107.557 287.981 108.453 287.981 109.556V131.684C287.989 132.786 287.092 133.682 285.979 133.682Z" stroke="#ACE2F9" stroke-width="1.3019" stroke-miterlimit="10"/>
<path d="M323.288 133.682H301.117C300.012 133.682 299.114 132.786 299.114 131.684V109.556C299.114 108.453 300.012 107.557 301.117 107.557H323.288C324.393 107.557 325.29 108.453 325.29 109.556V131.684C325.29 132.786 324.393 133.682 323.288 133.682Z" fill="#ACE2F9"/>
<path d="M136.775 168.739H114.604C113.499 168.739 112.602 167.843 112.602 166.741V144.613C112.602 143.51 113.499 142.614 114.604 142.614H136.775C137.88 142.614 138.778 143.51 138.778 144.613V166.741C138.786 167.843 137.889 168.739 136.775 168.739Z" fill="#ACE2F9"/>
<path d="M174.076 168.739H151.905C150.8 168.739 149.902 167.843 149.902 166.741V144.613C149.902 143.51 150.8 142.614 151.905 142.614H174.076C175.181 142.614 176.079 143.51 176.079 144.613V166.741C176.087 167.843 175.19 168.739 174.076 168.739Z" fill="#ACE2F9"/>
<path d="M211.377 168.739H189.205C188.101 168.739 187.203 167.843 187.203 166.741V144.613C187.203 143.51 188.101 142.614 189.205 142.614H211.377C212.482 142.614 213.379 143.51 213.379 144.613V166.741C213.388 167.843 212.49 168.739 211.377 168.739Z" stroke="#ACE2F9" stroke-width="1.3019" stroke-miterlimit="10"/>
<path d="M248.678 168.739H226.506C225.401 168.739 224.504 167.843 224.504 166.741V144.613C224.504 143.51 225.401 142.614 226.506 142.614H248.678C249.783 142.614 250.68 143.51 250.68 144.613V166.741C250.689 167.843 249.791 168.739 248.678 168.739Z" fill="#ACE2F9"/>
<path d="M285.979 168.739H263.807C262.702 168.739 261.805 167.843 261.805 166.741V144.613C261.805 143.51 262.702 142.614 263.807 142.614H285.979C287.083 142.614 287.981 143.51 287.981 144.613V166.741C287.989 167.843 287.092 168.739 285.979 168.739Z" fill="#ACE2F9"/>
<path d="M323.288 168.739H301.117C300.012 168.739 299.114 167.843 299.114 166.741V144.613C299.114 143.51 300.012 142.614 301.117 142.614H323.288C324.393 142.614 325.29 143.51 325.29 144.613V166.741C325.29 167.843 324.393 168.739 323.288 168.739Z" fill="#ACE2F9"/>
<path d="M136.775 203.805H114.604C113.499 203.805 112.602 202.909 112.602 201.806V179.678C112.602 178.576 113.499 177.68 114.604 177.68H136.775C137.88 177.68 138.778 178.576 138.778 179.678V201.806C138.786 202.909 137.889 203.805 136.775 203.805Z" fill="#ACE2F9"/>
<path d="M174.076 203.805H151.905C150.8 203.805 149.902 202.909 149.902 201.806V179.678C149.902 178.576 150.8 177.68 151.905 177.68H174.076C175.181 177.68 176.079 178.576 176.079 179.678V201.806C176.087 202.909 175.19 203.805 174.076 203.805Z" fill="#ACE2F9"/>
<path d="M211.377 203.805H189.205C188.101 203.805 187.203 202.909 187.203 201.806V179.678C187.203 178.576 188.101 177.68 189.205 177.68H211.377C212.482 177.68 213.379 178.576 213.379 179.678V201.806C213.388 202.909 212.49 203.805 211.377 203.805Z" fill="#ACE2F9"/>
<path d="M248.678 203.805H226.506C225.401 203.805 224.504 202.909 224.504 201.806V179.678C224.504 178.576 225.401 177.68 226.506 177.68H248.678C249.783 177.68 250.68 178.576 250.68 179.678V201.806C250.689 202.909 249.791 203.805 248.678 203.805Z" fill="#ACE2F9"/>
<path d="M285.979 203.805H263.807C262.702 203.805 261.805 202.909 261.805 201.806V179.678C261.805 178.576 262.702 177.68 263.807 177.68H285.979C287.083 177.68 287.981 178.576 287.981 179.678V201.806C287.989 202.909 287.092 203.805 285.979 203.805Z" fill="#ACE2F9"/>
<path d="M323.288 203.805H301.117C300.012 203.805 299.114 202.909 299.114 201.806V179.678C299.114 178.576 300.012 177.68 301.117 177.68H323.288C324.393 177.68 325.29 178.576 325.29 179.678V201.806C325.29 202.909 324.393 203.805 323.288 203.805Z" fill="#ACE2F9"/>
<path d="M136.775 238.862H114.604C113.499 238.862 112.602 237.966 112.602 236.864V214.735C112.602 213.633 113.499 212.737 114.604 212.737H136.775C137.88 212.737 138.778 213.633 138.778 214.735V236.864C138.786 237.966 137.889 238.862 136.775 238.862Z" stroke="#ACE2F9" stroke-width="1.3019" stroke-miterlimit="10"/>
<path d="M174.076 238.862H151.905C150.8 238.862 149.902 237.966 149.902 236.864V214.735C149.902 213.633 150.8 212.737 151.905 212.737H174.076C175.181 212.737 176.079 213.633 176.079 214.735V236.864C176.087 237.966 175.19 238.862 174.076 238.862Z" fill="#ACE2F9"/>
<path d="M211.377 238.862H189.205C188.101 238.862 187.203 237.966 187.203 236.864V214.735C187.203 213.633 188.101 212.737 189.205 212.737H211.377C212.482 212.737 213.379 213.633 213.379 214.735V236.864C213.388 237.966 212.49 238.862 211.377 238.862Z" fill="#ACE2F9"/>
<path d="M248.678 238.862H226.506C225.401 238.862 224.504 237.966 224.504 236.864V214.735C224.504 213.633 225.401 212.737 226.506 212.737H248.678C249.783 212.737 250.68 213.633 250.68 214.735V236.864C250.689 237.966 249.791 238.862 248.678 238.862Z" fill="#ACE2F9"/>
<path d="M285.979 238.862H263.807C262.702 238.862 261.805 237.966 261.805 236.864V214.735C261.805 213.633 262.702 212.737 263.807 212.737H285.979C287.083 212.737 287.981 213.633 287.981 214.735V236.864C287.989 237.966 287.092 238.862 285.979 238.862Z" fill="#ACE2F9"/>
<path d="M323.288 238.862H301.117C300.012 238.862 299.114 237.966 299.114 236.864V214.735C299.114 213.633 300.012 212.737 301.117 212.737H323.288C324.393 212.737 325.29 213.633 325.29 214.735V236.864C325.29 237.966 324.393 238.862 323.288 238.862Z" fill="#ACE2F9"/>
<path d="M122.087 81.1998C122.087 83.8269 119.955 85.9545 117.323 85.9545C114.69 85.9545 112.559 83.8269 112.559 81.1998C112.559 78.5727 114.69 76.4451 117.323 76.4451C119.955 76.4451 122.087 78.5727 122.087 81.1998Z" fill="#BDE7FF"/>
<path d="M157.869 85.9545C160.5 85.9545 162.633 83.8257 162.633 81.1998C162.633 78.5739 160.5 76.4451 157.869 76.4451C155.237 76.4451 153.104 78.5739 153.104 81.1998C153.104 83.8257 155.237 85.9545 157.869 85.9545Z" fill="#BDE7FF"/>
<path d="M198.414 85.9545C201.045 85.9545 203.178 83.8257 203.178 81.1998C203.178 78.5739 201.045 76.4451 198.414 76.4451C195.783 76.4451 193.65 78.5739 193.65 81.1998C193.65 83.8257 195.783 85.9545 198.414 85.9545Z" fill="#BDE7FF"/>
<path d="M243.716 81.1998C243.716 83.8269 241.584 85.9545 238.951 85.9545C236.319 85.9545 234.188 83.8269 234.188 81.1998C234.188 78.5727 236.319 76.4451 238.951 76.4451C241.584 76.4451 243.716 78.5727 243.716 81.1998Z" fill="#BDE7FF"/>
<path d="M284.261 81.1998C284.261 83.8269 282.13 85.9545 279.497 85.9545C276.865 85.9545 274.733 83.8269 274.733 81.1998C274.733 78.5727 276.865 76.4451 279.497 76.4451C282.13 76.4451 284.261 78.5727 284.261 81.1998Z" fill="#BDE7FF"/>
<path d="M324.807 81.1998C324.807 83.8269 322.676 85.9545 320.043 85.9545C317.411 85.9545 315.279 83.8269 315.279 81.1998C315.279 78.5727 317.411 76.4451 320.043 76.4451C322.676 76.4451 324.807 78.5727 324.807 81.1998Z" fill="#BDE7FF"/>
<path d="M117.322 81.1998V58.8907" stroke="#192469" stroke-width="5.4139" stroke-miterlimit="10" stroke-linecap="round"/>
<path d="M157.868 81.1998V58.8907" stroke="#192469" stroke-width="5.4139" stroke-miterlimit="10" stroke-linecap="round"/>
<path d="M198.414 81.1998V58.8907" stroke="#192469" stroke-width="5.4139" stroke-miterlimit="10" stroke-linecap="round"/>
<path d="M279.497 81.1998V58.8907" stroke="#192469" stroke-width="5.4139" stroke-miterlimit="10" stroke-linecap="round"/>
<path d="M320.043 81.1998V58.8907" stroke="#192469" stroke-width="5.4139" stroke-miterlimit="10" stroke-linecap="round"/>
<path d="M207.804 183.718C207.036 183.994 206.259 184.209 205.482 184.398C206.035 186.302 206.337 188.283 206.363 190.247H210.574C210.462 187.741 209.426 185.441 207.804 183.718ZM204.317 181.289C204.654 181.995 204.93 182.736 205.189 183.468C205.802 183.322 206.414 183.158 207.01 182.969C206.207 182.271 205.318 181.702 204.317 181.289ZM203.023 180.832C202.306 180.634 201.555 180.514 200.77 180.488V184.011C201.918 184.002 203.083 183.882 204.231 183.675C203.911 182.693 203.497 181.754 203.023 180.832ZM204.524 184.605C203.29 184.829 202.03 184.967 200.779 184.976V190.256H205.405C205.37 188.343 205.077 186.44 204.524 184.605ZM200.295 180.471C200.131 180.471 199.976 180.471 199.812 180.479H200.779C200.615 180.471 200.459 180.471 200.295 180.471ZM197.559 180.832C197.085 181.754 196.679 182.702 196.351 183.658C197.49 183.864 198.656 183.994 199.812 184.002V180.479C199.035 180.514 198.284 180.634 197.559 180.832ZM193.581 182.951C194.176 183.158 194.78 183.322 195.402 183.468C195.661 182.727 195.946 182.004 196.274 181.298C195.281 181.702 194.375 182.262 193.581 182.951ZM196.066 184.588C195.523 186.423 195.221 188.326 195.195 190.247H199.812V184.967C198.561 184.958 197.292 184.821 196.066 184.588ZM192.795 183.701C191.164 185.432 190.129 187.732 190.008 190.247H194.219C194.254 188.266 194.556 186.293 195.1 184.373C194.314 184.192 193.546 183.976 192.795 183.701ZM200.779 191.212V196.5C202.03 196.518 203.281 196.647 204.516 196.879C205.068 195.036 205.37 193.124 205.396 191.212H200.779V191.212ZM206.363 191.212C206.328 193.202 206.035 195.165 205.465 197.078C206.242 197.258 207.018 197.491 207.787 197.758C209.418 196.035 210.453 193.744 210.566 191.22H206.363V191.212ZM195.419 198.008C194.806 198.154 194.185 198.318 193.581 198.525C194.383 199.222 195.298 199.782 196.299 200.213C195.971 199.481 195.669 198.757 195.419 198.008ZM205.172 197.999C204.921 198.749 204.628 199.472 204.291 200.204C205.301 199.782 206.216 199.214 207.01 198.499C206.406 198.309 205.793 198.146 205.172 197.999ZM200.779 197.465V201.005C201.538 200.962 202.28 200.85 202.997 200.661C203.48 199.739 203.894 198.783 204.222 197.818C203.074 197.594 201.926 197.482 200.779 197.465ZM196.368 197.827C196.705 198.783 197.119 199.731 197.603 200.652C198.302 200.85 199.044 200.962 199.812 200.997V197.457C198.664 197.482 197.508 197.612 196.368 197.827ZM194.228 191.212H190.016C190.129 193.744 191.164 196.053 192.804 197.775C193.564 197.508 194.34 197.276 195.134 197.086C194.565 195.165 194.254 193.202 194.228 191.212ZM195.186 191.212C195.221 193.133 195.523 195.036 196.066 196.879C197.301 196.656 198.552 196.518 199.803 196.5V191.212H195.186V191.212Z" fill="white"/>
<path d="M199.812 200.997C199.976 201.005 200.131 201.005 200.295 201.005C200.459 201.005 200.615 201.005 200.779 200.997" fill="white"/>
<path d="M118.013 122.424L124.33 127.696L133.427 115.077" stroke="#E6505C" stroke-width="3.9056" stroke-miterlimit="10" stroke-linecap="round" stroke-linejoin="round"/>
<path d="M267.924 122.424L274.233 127.696L283.329 115.077" stroke="#E6505C" stroke-width="3.9056" stroke-miterlimit="10" stroke-linecap="round" stroke-linejoin="round"/>
<path d="M155.288 226.045L161.605 231.308L170.702 218.698" stroke="#E6505C" stroke-width="3.9056" stroke-miterlimit="10" stroke-linecap="round" stroke-linejoin="round"/>
<g opacity="0.25">
<path opacity="0.25" d="M287.217 136.04L272.91 144.869L279.464 155.449L293.771 146.62L287.217 136.04Z" fill="#2A507A"/>
<path opacity="0.25" d="M272.895 144.871C276.226 140.073 281.413 136.878 287.204 136.042L272.895 144.871Z" fill="#2A507A"/>
<path opacity="0.25" d="M395.031 136.032L388.477 146.612L402.785 155.441L409.339 144.861L395.031 136.032Z" fill="#2A507A"/>
<path opacity="0.25" d="M409.316 144.871C405.985 140.073 400.798 136.878 395.007 136.042L409.316 144.871Z" fill="#2A507A"/>
<path opacity="0.25" d="M354.271 126.705H327.948V135.293H354.271V126.705Z" fill="#2A507A"/>
<path opacity="0.25" d="M359.018 109.288V126.705H323.193V109.288C334.723 104.887 347.488 104.887 359.018 109.288Z" fill="#2A507A"/>
<path opacity="0.25" d="M325.221 126.705V109.297" stroke="#2A507A" stroke-width="1.0828" stroke-miterlimit="10"/>
<path opacity="0.25" d="M328.078 126.705V109.297" stroke="#2A507A" stroke-width="1.0828" stroke-miterlimit="10"/>
<path opacity="0.25" d="M330.943 126.705V109.297" stroke="#2A507A" stroke-width="1.0828" stroke-miterlimit="10"/>
<path opacity="0.25" d="M333.8 126.705V109.297" stroke="#2A507A" stroke-width="1.0828" stroke-miterlimit="10"/>
<path opacity="0.25" d="M336.665 126.705V109.297" stroke="#2A507A" stroke-width="1.0828" stroke-miterlimit="10"/>
<path opacity="0.25" d="M339.522 126.705V109.297" stroke="#2A507A" stroke-width="1.0828" stroke-miterlimit="10"/>
<path opacity="0.25" d="M342.378 126.705V109.297" stroke="#2A507A" stroke-width="1.0828" stroke-miterlimit="10"/>
<path opacity="0.25" d="M345.244 126.705V109.297" stroke="#2A507A" stroke-width="1.0828" stroke-miterlimit="10"/>
<path opacity="0.25" d="M348.101 126.705V109.297" stroke="#2A507A" stroke-width="1.0828" stroke-miterlimit="10"/>
<path opacity="0.25" d="M350.966 126.705V109.297" stroke="#2A507A" stroke-width="1.0828" stroke-miterlimit="10"/>
<path opacity="0.25" d="M353.823 126.705V109.297" stroke="#2A507A" stroke-width="1.0828" stroke-miterlimit="10"/>
<path opacity="0.25" d="M356.679 126.705V109.297" stroke="#2A507A" stroke-width="1.0828" stroke-miterlimit="10"/>
<path opacity="0.25" d="M359.018 109.288H323.193C334.723 104.887 347.488 104.887 359.018 109.288Z" fill="#2A507A"/>
<path opacity="0.25" d="M414.454 308.911C454.963 268.481 454.963 202.933 414.454 162.504C373.946 122.075 308.269 122.075 267.76 162.504C227.252 202.933 227.252 268.481 267.76 308.911C308.269 349.34 373.946 349.34 414.454 308.911Z" fill="#2A507A"/>
<path opacity="0.7" d="M407.186 301.657C443.68 265.234 443.68 206.181 407.186 169.758C370.691 133.335 311.522 133.335 275.028 169.758C238.534 206.181 238.534 265.234 275.028 301.657C311.522 338.079 370.691 338.079 407.186 301.657Z" fill="#2A507A"/>
<path opacity="0.25" d="M341.11 325.712C390.915 325.712 431.289 285.416 431.289 235.709C431.289 186.002 390.915 145.706 341.11 145.706C291.305 145.706 250.93 186.002 250.93 235.709C250.93 285.416 291.305 325.712 341.11 325.712Z" fill="#2A507A"/>
<path opacity="0.25" d="M425.68 235.709H416.799" stroke="#2A507A" stroke-width="5.4139" stroke-miterlimit="10" stroke-linecap="round"/>
<path opacity="0.25" d="M341.11 320.113V311.25" stroke="#2A507A" stroke-width="5.4139" stroke-miterlimit="10" stroke-linecap="round"/>
<path opacity="0.25" d="M256.54 235.709H265.412" stroke="#2A507A" stroke-width="5.4139" stroke-miterlimit="10" stroke-linecap="round"/>
<path opacity="0.25" d="M341.11 151.305V160.16" stroke="#2A507A" stroke-width="5.4139" stroke-miterlimit="10" stroke-linecap="round"/>
<path opacity="0.25" d="M414.348 277.915L406.658 273.479" stroke="#2A507A" stroke-width="3.2483" stroke-miterlimit="10" stroke-linecap="round"/>
<path opacity="0.25" d="M298.821 308.804L303.257 301.129" stroke="#2A507A" stroke-width="3.2483" stroke-miterlimit="10" stroke-linecap="round"/>
<path opacity="0.25" d="M267.872 193.503L275.553 197.93" stroke="#2A507A" stroke-width="3.2483" stroke-miterlimit="10" stroke-linecap="round"/>
<path opacity="0.25" d="M383.399 162.615L378.955 170.281" stroke="#2A507A" stroke-width="3.2483" stroke-miterlimit="10" stroke-linecap="round"/>
<path opacity="0.25" d="M383.382 308.812L378.946 301.138" stroke="#2A507A" stroke-width="3.2483" stroke-miterlimit="10" stroke-linecap="round"/>
<path opacity="0.25" d="M267.854 277.898L275.544 273.471" stroke="#2A507A" stroke-width="3.2483" stroke-miterlimit="10" stroke-linecap="round"/>
<path opacity="0.25" d="M298.838 162.598L303.274 170.272" stroke="#2A507A" stroke-width="3.2483" stroke-miterlimit="10" stroke-linecap="round"/>
<path opacity="0.25" d="M414.356 193.52L406.667 197.947" stroke="#2A507A" stroke-width="3.2483" stroke-miterlimit="10" stroke-linecap="round"/>
<path opacity="0.25" d="M363.118 268.639C362.255 268.639 361.4 268.243 360.848 267.485L337.96 236.14L360.485 175.242C361.021 173.795 362.634 173.054 364.084 173.588C365.534 174.122 366.276 175.733 365.741 177.18L344.26 235.27L365.379 264.186C366.294 265.435 366.018 267.183 364.766 268.096C364.266 268.458 363.687 268.639 363.118 268.639Z" fill="#2A507A"/>
<path opacity="0.25" d="M341.11 242.703C344.98 242.703 348.118 239.572 348.118 235.709C348.118 231.846 344.98 228.715 341.11 228.715C337.24 228.715 334.102 231.846 334.102 235.709C334.102 239.572 337.24 242.703 341.11 242.703Z" fill="#2A507A"/>
</g>
<path d="M282.72 131.554L268.413 140.383L274.967 150.962L289.274 142.134L282.72 131.554Z" fill="#C13D4C"/>
<path d="M268.398 140.383C271.73 135.586 276.917 132.39 282.708 131.555L268.398 140.383Z" fill="#C13D4C"/>
<path d="M390.533 131.548L383.979 142.127L398.287 150.956L404.841 140.376L390.533 131.548Z" fill="#C13D4C"/>
<path d="M404.828 140.383C401.497 135.586 396.31 132.39 390.519 131.554L404.828 140.383Z" fill="#C13D4C"/>
<path d="M349.775 122.217H323.452V130.805H349.775V122.217Z" fill="#C13D4C"/>
<path d="M354.531 104.801V122.217H318.706V104.801C330.227 100.399 342.992 100.399 354.531 104.801Z" fill="#E6505C"/>
<path d="M320.725 122.217V104.809" stroke="#101747" stroke-width="1.0828" stroke-miterlimit="10"/>
<path d="M323.59 122.217V104.809" stroke="#101747" stroke-width="1.0828" stroke-miterlimit="10"/>
<path d="M326.447 122.217V104.809" stroke="#101747" stroke-width="1.0828" stroke-miterlimit="10"/>
<path d="M329.304 122.217V104.809" stroke="#101747" stroke-width="1.0828" stroke-miterlimit="10"/>
<path d="M332.169 122.217V104.809" stroke="#101747" stroke-width="1.0828" stroke-miterlimit="10"/>
<path d="M335.026 122.217V104.809" stroke="#101747" stroke-width="1.0828" stroke-miterlimit="10"/>
<path d="M337.891 122.217V104.809" stroke="#101747" stroke-width="1.0828" stroke-miterlimit="10"/>
<path d="M340.748 122.217V104.809" stroke="#101747" stroke-width="1.0828" stroke-miterlimit="10"/>
<path d="M343.604 122.217V104.809" stroke="#101747" stroke-width="1.0828" stroke-miterlimit="10"/>
<path d="M346.47 122.217V104.809" stroke="#101747" stroke-width="1.0828" stroke-miterlimit="10"/>
<path d="M349.326 122.217V104.809" stroke="#101747" stroke-width="1.0828" stroke-miterlimit="10"/>
<path d="M352.192 122.217V104.809" stroke="#101747" stroke-width="1.0828" stroke-miterlimit="10"/>
<path d="M354.531 104.801H318.706C330.227 100.399 342.992 100.399 354.531 104.801Z" fill="#C13D4C"/>
<path d="M409.957 304.425C450.466 263.996 450.466 198.448 409.957 158.019C369.449 117.59 303.771 117.59 263.263 158.019C222.755 198.448 222.755 263.996 263.263 304.425C303.771 344.854 369.449 344.854 409.957 304.425Z" fill="#E6505C"/>
<path opacity="0.7" d="M402.689 297.171C439.183 260.748 439.183 201.695 402.689 165.272C366.194 128.85 307.025 128.85 270.531 165.272C234.037 201.695 234.037 260.748 270.531 297.171C307.025 333.594 366.194 333.594 402.689 297.171Z" fill="#ACE2F9"/>
<path d="M336.614 321.224C386.418 321.224 426.793 280.929 426.793 231.222C426.793 181.514 386.418 141.219 336.614 141.219C286.809 141.219 246.434 181.514 246.434 231.222C246.434 280.929 286.809 321.224 336.614 321.224Z" fill="white"/>
<path d="M421.183 231.222H412.303" stroke="#192469" stroke-width="5.4139" stroke-miterlimit="10" stroke-linecap="round"/>
<path d="M336.614 315.626V306.762" stroke="#192469" stroke-width="5.4139" stroke-miterlimit="10" stroke-linecap="round"/>
<path d="M252.044 231.222H260.916" stroke="#192469" stroke-width="5.4139" stroke-miterlimit="10" stroke-linecap="round"/>
<path d="M336.614 146.818V155.672" stroke="#192469" stroke-width="5.4139" stroke-miterlimit="10" stroke-linecap="round"/>
<g opacity="0.3">
<g opacity="0.3">
<g opacity="0.3">
<path opacity="0.3" d="M409.852 273.428L402.162 268.992" stroke="#101747" stroke-width="3.2483" stroke-miterlimit="10" stroke-linecap="round"/>
</g>
<g opacity="0.3">
<path opacity="0.3" d="M294.325 304.316L298.761 296.641" stroke="#101747" stroke-width="3.2483" stroke-miterlimit="10" stroke-linecap="round"/>
</g>
<g opacity="0.3">
<path opacity="0.3" d="M263.376 189.015L271.066 193.443" stroke="#101747" stroke-width="3.2483" stroke-miterlimit="10" stroke-linecap="round"/>
</g>
<g opacity="0.3">
<path opacity="0.3" d="M378.903 158.127L374.467 165.802" stroke="#101747" stroke-width="3.2483" stroke-miterlimit="10" stroke-linecap="round"/>
</g>
<g opacity="0.3">
<path opacity="0.3" d="M378.886 304.325L374.45 296.65" stroke="#101747" stroke-width="3.2483" stroke-miterlimit="10" stroke-linecap="round"/>
</g>
<g opacity="0.3">
<path opacity="0.3" d="M263.367 273.411L271.057 268.983" stroke="#101747" stroke-width="3.2483" stroke-miterlimit="10" stroke-linecap="round"/>
</g>
<g opacity="0.3">
<path opacity="0.3" d="M294.342 158.119L298.778 165.793" stroke="#101747" stroke-width="3.2483" stroke-miterlimit="10" stroke-linecap="round"/>
</g>
<g opacity="0.3">
<path opacity="0.3" d="M409.861 189.032L402.171 193.46" stroke="#101747" stroke-width="3.2483" stroke-miterlimit="10" stroke-linecap="round"/>
</g>
</g>
</g>
<path d="M358.621 264.151C357.758 264.151 356.904 263.755 356.351 262.997L333.463 231.652L355.989 170.755C356.524 169.308 358.138 168.567 359.588 169.101C361.038 169.635 361.78 171.246 361.245 172.693L339.764 230.782L360.882 259.698C361.797 260.947 361.521 262.695 360.27 263.609C359.769 263.979 359.191 264.151 358.621 264.151Z" fill="#E6505C"/>
<path d="M336.613 238.216C340.484 238.216 343.621 235.084 343.621 231.222C343.621 227.359 340.484 224.227 336.613 224.227C332.743 224.227 329.605 227.359 329.605 231.222C329.605 235.084 332.743 238.216 336.613 238.216Z" fill="#192469"/>
<path d="M420.337 336.849L422.857 341.216L426.085 340.596L423.867 335.48" fill="#FDAEB3"/>
<path d="M426.077 340.277C426.077 340.277 425.318 340.889 423.799 340.88C423.799 340.88 422.979 340.648 422.72 340.708C422.461 340.768 422.021 341.492 421.839 341.699C421.65 341.905 420.718 342.56 420.131 342.836C419.682 343.042 417.973 343.637 417.662 344.3C417.533 344.576 417.749 344.894 418.051 344.894C418.569 344.886 419.984 344.86 420.976 344.843C421.598 344.834 422.211 344.748 422.806 344.576C424.67 344.016 426.983 343.232 427.104 343.103C427.251 342.956 427.044 340.984 426.077 340.277Z" fill="#004BA8"/>
<path d="M397.613 294.419C385.237 286.486 386.765 298.338 386.765 298.338L421.675 339.571C421.675 339.571 423.893 339.52 425.067 337.418C425.067 337.409 411.586 303.455 397.613 294.419Z" fill="#003977"/>
<path d="M401.696 259.052C401.696 259.052 403.146 262.084 402.775 265.969C402.447 269.466 401.644 272.429 401.351 275.624C401.057 278.811 397.346 297.813 397.346 297.813C397.346 297.813 387.318 300.853 386.593 297.873C385.126 291.852 383.054 259.259 383.054 259.259C383.054 259.259 392.703 261.283 401.696 259.052Z" fill="#003977"/>
<path d="M405.484 258.122C405.484 258.122 408.462 266.115 398.52 275.297C395.939 277.683 393.583 278.587 390.416 281.525C388.06 283.704 373.612 297.985 373.612 297.985C373.612 297.985 364.68 290.905 365.802 288.054C368.071 282.283 384.098 253.393 384.098 253.393C384.098 253.393 396.845 254.797 405.484 258.122Z" fill="#004BA8"/>
<path d="M353.788 336.892L352.554 341.836L355.833 341.992L358.491 337.314" fill="#FDAEB3"/>
<path d="M376.262 291.413C375.399 274.815 365.802 288.045 365.802 288.045L353.149 338.658C353.149 338.658 354.642 340.209 357.111 340.243C357.119 340.243 377.125 308.011 376.262 291.413Z" fill="#004BA8"/>
<path d="M408.85 203.271C404.733 205.286 397.829 203.546 397.829 203.546L400.142 196.19L401.135 193.046C401.135 193.046 401.842 192.443 402.887 191.608C406.097 189.024 412.501 184.304 410.835 188.912C408.617 194.993 408.85 203.271 408.85 203.271Z" fill="#FDAEB3"/>
<path d="M405.027 192.573C405.027 192.573 403.249 195.01 400.142 196.182L401.135 193.038C401.135 193.038 401.842 192.435 402.887 191.599L403.232 191.539L405.027 192.573Z" fill="#E58099"/>
<path d="M396.207 178.851C396.207 178.851 393.531 192.22 395.646 194.459C397.769 196.699 407.668 192.581 407.668 192.581C407.668 192.581 415.409 185.355 414.866 178.834C414.4 173.33 402.817 168.722 397.838 174.415C396.914 175.458 396.595 177.043 396.207 178.851Z" fill="#FDAEB3"/>
<path d="M395.145 169.867C395.145 169.867 392.962 176.741 398.123 179.23C401.549 180.876 405.459 181.246 405.459 182.934C405.45 184.622 406.184 183.399 406.934 183.089C408.54 182.426 409.334 184.64 408.341 186.716C407.59 188.3 407.677 190.781 410.085 191.384C410.085 191.384 412.795 187.844 414.158 185.415C415.237 183.494 418.025 176.741 413.511 175.268C413.217 173.761 411.819 172.253 410.231 171.53C405.907 169.549 401.851 170.143 398.744 170.272C397.329 170.333 395.775 167.361 395.145 169.867Z" fill="#1D2468"/>
<path d="M386.601 215.114C384.987 214.468 382.648 213.4 380.188 212.237C378.264 211.324 376.27 210.342 374.501 209.464C371.213 207.844 368.658 206.544 368.658 206.544C368.658 206.544 370.79 199.998 372.162 199.713C372.973 199.55 379.101 200.669 383.925 201.6C384.952 201.798 385.928 201.987 386.773 202.168C388.638 202.521 389.889 202.78 389.889 202.78L386.601 215.114Z" fill="#FDAEB3"/>
<path d="M368.658 206.535C365.577 204.985 364.3 202.978 360.96 196.612C359.76 194.321 357.085 188.981 356.041 186.767L357.18 183.692C357.81 184.08 366.57 192.53 367.718 193.865C369.547 195.992 372.171 199.713 372.171 199.713C373.483 202.004 371.739 208.094 368.658 206.535Z" fill="#FDAEB3"/>
<path d="M397.898 204.244C392.867 202.573 381.535 200.549 381.535 200.549C381.535 200.549 378.437 207.5 378.316 212.573C381.975 214.873 391.149 217.673 391.149 217.673" fill="#FCAE24"/>
<path d="M411.267 234.908C411.129 235.201 410.982 235.503 410.844 235.795C410.111 237.242 409.403 238.698 408.773 240.171C403.698 251.885 405.485 258.139 405.485 258.139C397.148 259.224 383.201 255.055 383.201 255.055C383.201 255.055 383.235 253.867 383.21 252.936C383.123 248.81 382.959 236.657 384.064 226.501C384.168 225.64 384.263 224.796 384.392 223.978C384.944 219.878 385.756 216.286 386.912 213.951C391.65 204.373 397.821 203.546 397.821 203.546C403.56 204.227 408.842 203.279 408.842 203.279C418.802 208.964 416.195 224.589 411.267 234.908Z" fill="#FECB22"/>
<path d="M368.253 222.203C368.253 222.203 367.83 215.33 369.004 214.572C369.703 214.115 375.813 212.918 380.638 212.031C381.673 211.833 382.648 211.66 383.503 211.514C385.358 211.161 386.619 210.945 386.619 210.945L388.086 223.633C382.467 223.599 368.253 222.203 368.253 222.203Z" fill="#FDAEB3"/>
<path d="M369.012 214.563C369.012 214.563 365.793 211.798 363.307 210.48C361.754 209.662 355.807 207.345 351.648 205.484C349.145 204.365 347.358 203.202 347.358 203.202L346.072 205.192C346.072 205.192 352.027 211.057 357.456 215.769C362.884 220.48 364.818 221.876 368.253 222.203C371.687 222.522 371.075 216.225 369.012 214.563Z" fill="#FDAEB3"/>
<path d="M402.248 223.633C395.982 227.199 386.23 226.665 384.072 226.493C384.176 225.631 384.271 224.787 384.4 223.969L402.248 223.633Z" fill="#FCAE24"/>
<path d="M403.862 223.047C396.069 226.252 383.675 224.546 383.675 224.546C381.941 218.499 382.329 211.522 382.329 211.522C385.566 210.446 395.344 208.878 395.344 208.878C395.344 208.878 405.278 207.629 406.736 214.348C408.246 221.273 403.862 223.047 403.862 223.047Z" fill="#FECB22"/>
<path d="M346.746 205.855C346.746 205.855 345.909 204.985 344.916 205.002C343.941 205.019 342.75 204.201 342.655 203.719C342.56 203.236 344.01 200.911 344.269 200.756C344.528 200.601 345.831 201.591 346.262 201.737C346.694 201.893 346.616 202.728 348.014 203.607" fill="#FDAEB3"/>
<path d="M346.884 202.737C346.884 202.737 346.936 202.116 346.461 201.152C346.34 200.902 346.029 199.989 345.874 199.989C345.719 199.989 345.512 200.187 345.451 200.42C345.391 200.652 345.477 201.522 345.477 201.522" fill="#FDAEB3"/>
<path d="M397.821 203.546L399.115 201.858C399.115 201.858 404.242 203.004 408.842 201.97V203.271L404.751 204.123C404.76 204.115 401.428 204.864 397.821 203.546Z" fill="#FCAE24"/>
<path d="M399.115 201.858L399.443 205.734C399.443 205.734 405.959 205.484 409.593 203.736L408.859 201.514C408.85 201.505 405.295 202.47 399.115 201.858Z" fill="#FFD664"/>
<path d="M356.092 341.535C356.092 341.535 354.703 342.035 353.365 341.811C353.365 341.811 353.037 341.096 352.493 341.087C351.95 341.079 351.285 341.828 350.923 342C350.56 342.173 343.595 344.291 345.934 344.765C346.021 344.869 354.194 344.894 355.989 344.894C356.204 344.894 356.386 344.748 356.429 344.533C356.567 343.912 356.895 342.56 356.092 341.535Z" fill="#004BA8"/>
<path d="M396.164 208.292C396.164 208.292 398.917 207.052 402.024 208.49C405.579 210.127 407.953 213.228 406.736 218.232" stroke="white" stroke-width="0.2469" stroke-miterlimit="10" stroke-linecap="round"/>
<path d="M405.778 205.321C405.778 205.321 406.296 208.103 404.112 209.748" stroke="white" stroke-width="0.2469" stroke-miterlimit="10" stroke-linecap="round"/>
<path d="M351.855 181.935C351.855 181.935 351.777 178.782 352.519 177.938C353.27 177.094 354.694 177.008 354.884 178.128C355.074 179.248 352.191 181.022 352.191 181.022L351.855 181.935Z" fill="#FDAEB3"/>
<path d="M134.911 293.807C133.755 302.438 129.06 335.773 129.06 335.773H125.521C125.521 335.773 122.518 308.364 123.528 301.835C124.546 295.289 125.237 293.248 124.935 290.362C124.9 290.035 123.39 283.428 122.147 277.984C121.966 277.209 121.793 276.468 121.638 275.771C120.99 272.954 120.499 270.852 120.499 270.852H134.937C134.937 270.844 135.222 291.516 134.911 293.807Z" fill="#FDAEB3"/>
<path d="M133.867 275.254C129.776 277.011 122.483 277.933 122.147 277.976C121.966 277.201 121.793 276.46 121.638 275.762L121.655 275.607L125.159 274.143C125.159 274.143 138.061 273.445 133.867 275.254Z" fill="#E58099"/>
<path d="M129.069 335.773C129.069 335.773 128.965 336.643 129.336 337.289C129.707 337.943 130.812 340.855 133.108 342.724L133.393 343.49L131.321 343.663C131.321 343.663 128.344 341.88 128.145 341.535C127.947 341.199 127.179 339.709 126.954 339.244C126.73 338.787 125.763 337.935 125.763 337.538C125.763 337.142 125.366 335.764 125.366 335.764C125.366 335.764 126.557 334.791 126.756 334.73C126.954 334.67 127.835 334.593 127.835 334.593L129.069 335.773Z" fill="#FDAEB3"/>
<path d="M125.444 334.972C125.444 334.972 123.933 337.073 124.141 339.184C124.27 340.493 124.84 343.025 124.831 344.903H125.314L126.108 340.656C126.108 340.656 129.621 344.515 130.415 344.705C131.209 344.894 134.419 344.894 134.583 344.894C134.756 344.894 137.25 344.334 133.108 342.715C133.108 342.715 133.134 343.533 131.494 342.689C129.845 341.837 128.318 340.14 127.265 338.753C126.704 338.029 125.694 336.462 125.444 334.972Z" fill="#423D73"/>
<path d="M122.993 269.75C122.993 269.75 122.993 271.171 122.863 273.488C122.82 274.152 122.786 274.892 122.717 275.685C122.337 280.517 121.457 287.606 119.385 294.333C116.822 302.662 105.62 335.109 105.62 335.109L102.116 334.618C102.116 334.618 104.688 307.684 106.595 301.344C108.494 295.005 111.54 292.533 111.635 289.639C111.687 287.993 110.945 282.128 110.289 277.382C110.073 275.788 109.875 274.324 109.711 273.187C109.503 271.766 109.374 270.853 109.374 270.853L122.993 269.75Z" fill="#FDAEB3"/>
<path d="M105.619 335.101C105.619 335.101 105.395 335.945 105.671 336.643C105.947 337.34 106.638 340.381 108.657 342.543L108.83 343.335L106.759 343.223C106.759 343.223 104.057 341.044 103.902 340.682C103.755 340.321 103.194 338.736 103.039 338.253C102.875 337.771 102.038 336.798 102.09 336.401C102.141 336.005 101.943 334.593 101.943 334.593C101.943 334.593 103.255 333.792 103.462 333.766C103.669 333.74 104.549 333.774 104.549 333.774L105.619 335.101Z" fill="#FDAEB3"/>
<path d="M102.141 333.809C102.141 333.809 100.355 335.678 100.269 337.806C100.217 339.115 100.433 341.707 100.165 343.559L100.648 343.628L102.021 339.537C102.021 339.537 104.964 343.835 105.723 344.136C106.483 344.438 109.659 344.877 109.831 344.903C110.004 344.929 112.55 344.714 108.666 342.543C108.666 342.543 108.58 343.361 107.069 342.293C105.559 341.225 104.273 339.33 103.427 337.814C102.97 337.013 102.193 335.325 102.141 333.809Z" fill="#423D73"/>
<path d="M123.571 275.099C123.303 275.314 123.019 275.504 122.717 275.676C118.911 277.898 112.3 277.537 110.289 277.373C110.073 275.779 109.874 274.315 109.71 273.178C113.905 272.963 120.214 272.799 122.855 273.48C124.097 273.807 124.538 274.315 123.571 275.099Z" fill="#E58099"/>
<path d="M151.214 195.191C151.214 195.191 151.326 199.619 149.92 200.678C148.849 201.479 139.459 201.195 135.058 201.014C133.677 200.954 132.788 200.911 132.788 200.911L133.315 196.569L133.806 192.53L151.214 195.191Z" fill="#FDAEB3"/>
<path d="M149.255 195.674C149.255 195.674 152.465 193.942 155.322 193.468C158.179 192.995 170.935 189.73 170.935 189.73L171.927 192.228C171.927 192.228 160.103 199.687 148.539 201.005L149.255 195.674Z" fill="#FDAEB3"/>
<path d="M170.943 189.722C170.943 189.722 171.642 189.145 171.936 188.524C172.229 187.904 172.756 187.043 173.627 186.741C174.49 186.44 175.164 186.001 175.405 186.104C175.647 186.199 175.569 186.767 175.077 186.983C174.594 187.198 173.886 187.741 173.921 187.913C173.955 188.085 175.992 186.931 176.208 186.862C176.424 186.793 178.728 185.871 179.039 185.923C179.349 185.975 179.125 186.664 177.951 187.129C177.062 187.473 176.57 187.93 176.639 188.145C176.708 188.369 177.528 189.101 176.778 190.35C176.018 191.599 175.259 192.159 174.283 192.271C173.308 192.383 172.333 192.202 171.599 192.426" fill="#FDAEB3"/>
<path d="M138.035 192.96C138.035 192.96 138.035 198.938 137.25 201.367C137.25 201.367 135.015 201.539 131.882 201.298C130.777 201.221 129.56 201.092 128.292 200.885C127.748 200.79 127.196 200.687 126.626 200.575V190.704C126.643 190.704 133.133 191.281 138.035 192.96Z" fill="#FECB22"/>
<path d="M131.89 201.298C130.786 201.221 129.569 201.091 128.3 200.885L128.024 200.471L128.732 197.439C128.723 197.439 130.397 199.541 131.89 201.298Z" fill="#FCAE24"/>
<path d="M131.942 232.858C131.942 232.858 124.106 238.009 108.554 233.306C108.554 233.306 111.082 224.391 110.228 218.56C109.995 216.949 109.106 214.486 107.941 211.746C107.225 210.075 106.422 208.327 105.585 206.596C104.152 203.615 102.676 200.756 101.589 198.706C100.665 196.94 101.477 194.778 103.332 194.046C107.544 192.366 115.57 190.023 126.626 190.704C127.299 192.245 128.481 197.439 129.155 198.421C132.486 203.305 132.072 203.831 131.373 207.483C130.38 212.608 129.396 225.115 131.942 232.858Z" fill="#FECB22"/>
<path d="M109.08 203.305C109.08 203.305 108.666 208.189 107.95 211.746C107.234 210.075 106.431 208.327 105.594 206.596L109.08 203.305Z" fill="#FCAE24"/>
<path d="M109.52 232.092C109.52 232.092 106.759 234.417 105.809 242.393C104.86 250.37 109.52 275.056 109.52 275.056C109.52 275.056 116.658 278.475 135.299 275.056C135.299 275.056 135.679 244.96 131.493 231.239L109.52 232.092Z" fill="#003977"/>
<path d="M111.859 188.877C111.859 188.877 110.15 191.927 108.985 192.237C108.985 192.237 114.405 194.381 117.892 194.089C121.379 193.796 123.139 190.592 123.139 190.592C123.139 190.592 120.3 190.299 119.912 187.069" fill="#FDAEB3"/>
<path d="M120.291 182.426C120.291 182.426 120.222 183.21 120.153 183.985C120.084 184.657 120.024 185.312 120.015 185.458C119.86 187.095 119.92 188.395 119.687 190.583L111.868 188.878C111.868 188.878 113.258 187.396 112.326 179.902L120.153 182.383L120.291 182.426Z" fill="#FDAEB3"/>
<path d="M120.291 182.426C120.291 182.426 120.222 183.21 120.153 183.985C118.462 184.028 116.511 183.658 116.511 183.658L120.153 182.374L120.291 182.426Z" fill="#E58099"/>
<path d="M113.87 162.701C113.87 162.701 116.243 160.97 118.202 162.46C120.162 163.959 120.403 167.059 119.445 169.17C118.487 171.28 113.568 164.768 113.568 164.768" fill="#332F62"/>
<path d="M124.373 180.755C124.416 181.41 124.002 182.012 123.389 182.245C121.586 182.926 117.633 184.123 113.447 183.511C108.286 182.762 103.289 168.627 113.689 163.838C115.708 162.908 123.666 169.204 124.373 180.755Z" fill="#FDAEB3"/>
<path d="M101.753 172.882C101.753 172.882 99.9577 173.304 99.4917 174.372C99.4917 174.372 101.675 173.408 102.625 174.191" fill="#332F62"/>
<path d="M103.401 173.321C103.401 173.321 99.4916 174.286 97.1096 171.616C93.8214 167.929 100.104 160.237 105.24 167.387" fill="#332F62"/>
<path d="M102.297 174.613C102.297 174.613 101.632 174.381 101.425 173.597C101.131 172.469 100.942 168.997 104.014 165.94C104.014 165.94 104.817 165.216 105.369 165.647" fill="#FAC12A"/>
<path d="M112.592 184.631C112.592 184.631 104.065 182.228 102.029 174.036C99.9919 165.845 112.377 157.774 117.589 165.569C117.589 165.569 113.896 166.353 112.886 169.084C111.876 171.814 112.515 175.785 111.436 175.104C110.323 174.407 108.735 175.303 108.976 176.862C109.175 178.136 111.16 179.678 112.169 181.401C112.782 182.443 112.912 183.89 112.592 184.631Z" fill="#332F62"/>
<path d="M117.607 164.114C117.607 164.114 121.603 168.171 113.205 172.193C113.628 170.6 111.35 166.715 111.35 166.715" fill="#332F62"/>
<path d="M81.0314 228.414L115.881 220.084C116.218 220.007 116.554 220.214 116.632 220.541L122.302 244.194C122.38 244.529 122.173 244.865 121.845 244.943L86.995 253.272C86.6584 253.35 86.3218 253.143 86.2442 252.816L80.5739 229.163C80.4963 228.827 80.7034 228.491 81.0314 228.414Z" fill="#423D73"/>
<path d="M87.9262 251.701L120.29 243.966L114.937 221.659L82.5735 229.394L87.9262 251.701Z" fill="white"/>
<path d="M117.548 229.096L115.896 229.495L117.969 238.059L119.622 237.661L117.548 229.096Z" fill="#9E9DBA"/>
<path d="M101.607 224.538C101.607 224.538 97.2223 223.857 96.4283 222.289C95.8242 221.101 97.7747 211.927 98.7327 207.629C99.0347 206.286 99.2419 205.416 99.2419 205.416L103.428 206.699L107.32 207.896L101.607 224.538Z" fill="#FDAEB3"/>
<path d="M101.477 222.531C101.477 222.531 102.616 225.993 102.573 228.887C102.539 231.782 103.488 244.891 103.488 244.891L100.856 245.425C100.856 245.425 95.5997 232.488 96.3592 220.894L101.477 222.531Z" fill="#FDAEB3"/>
<path d="M100.855 245.417C100.855 245.417 101.088 248.19 101.546 249.207C102.72 251.799 106.034 249.327 106.405 248.63C106.405 248.63 105.447 248.742 104.765 246.898C104.541 246.278 103.867 245.83 103.729 245.667C103.591 245.511 103.488 244.883 103.488 244.883" fill="#FDAEB3"/>
<path d="M101.434 195.992C101.434 195.992 99.1382 203.856 98.4478 208.852C98.4478 208.852 102.029 210.48 106.785 210.618C106.785 210.618 108.589 206.199 109.288 202.194" fill="#FECB22"/>
<path d="M229.483 312.998C229.483 312.998 243.249 312.258 243.266 309.458C243.275 307.288 234.86 309.122 234.86 309.122C234.86 309.122 244.069 306.452 248.332 304.273C249.264 303.791 250.222 303.274 250.87 302.456C251.526 301.637 251.81 300.431 251.275 299.527C250.559 298.304 248.842 298.2 247.426 298.373C241.756 299.053 237.769 302.085 232.668 304.643C236.405 302.774 239.728 300.371 242.843 297.597C245.709 295.048 249.04 292.653 250.947 289.234C252.147 287.098 252.622 283.936 250.499 282.179C248.445 280.474 245.502 281.266 243.249 282.059C237.19 284.178 231.883 288.398 228.396 293.764C229.294 291.258 229.993 288.674 230.493 286.055C230.692 284.996 230.769 283.695 229.889 283.075C228.759 282.265 227.24 283.351 226.359 284.427C224.228 287.037 222.596 290.069 221.587 293.282C222.286 286.073 222.967 278.717 221.397 271.645C221.034 270.026 220.542 268.398 219.533 267.088C218.523 265.779 216.9 264.832 215.252 265.004C213.69 265.176 212.404 266.279 211.36 267.45C207.985 271.223 206.009 276.21 205.879 281.266C205.758 286.322 207.493 291.396 210.678 295.323C209.003 293.566 207.105 292.016 205.051 290.724C204.585 290.431 203.911 290.181 203.566 290.603C203.385 290.819 203.394 291.129 203.42 291.413C203.739 294.841 206.043 297.718 208.244 300.362C203.773 295.151 196.731 292.248 189.878 292.783C189.05 292.843 188.109 293.032 187.686 293.747C187.445 294.161 187.436 294.669 187.479 295.151C187.842 298.588 190.888 301.086 193.874 302.834C196.386 304.307 199.035 305.539 201.676 306.762C200.166 306.547 198.63 306.495 197.111 306.599C196.765 306.624 196.377 306.676 196.161 306.952C195.764 307.477 196.325 308.184 196.86 308.563C200.684 311.319 205.491 312.663 210.186 312.301" fill="#025AA2"/>
<path opacity="0.45" d="M245.122 287.347C245.294 287.227 245.458 287.494 245.294 287.614C240.919 290.913 236.871 294.626 233.281 298.778C229.665 302.964 226.782 307.529 223.96 312.258C223.856 312.43 223.598 312.292 223.684 312.111C228.379 302.3 236.353 293.678 245.122 287.347ZM225.306 290.896C222.795 297.33 221.285 305.427 221.785 312.352C221.802 312.525 222.053 312.516 222.061 312.344C222.173 305.376 223.218 297.589 225.677 291.034C225.755 290.827 225.393 290.689 225.306 290.896ZM216.59 276.684C215.407 288.493 216.357 301.077 219.533 312.525C219.584 312.714 219.861 312.619 219.817 312.43C218.618 306.426 217.53 300.431 217.021 294.324C216.538 288.45 216.59 282.593 216.797 276.701C216.805 276.589 216.607 276.563 216.59 276.684ZM205.896 294.324C209.452 299.363 213.388 308.683 218.057 312.749C218.247 312.912 218.488 312.645 218.316 312.464C214.095 307.839 209.961 299.157 206.181 294.143C206.052 293.971 205.776 294.143 205.896 294.324ZM244.19 302.128C237.139 305.298 229.872 309.036 223.9 313.989C223.718 314.144 223.891 314.454 224.107 314.316C230.683 309.958 237.044 305.668 244.276 302.412C244.457 302.344 244.371 302.051 244.19 302.128ZM200.364 301.267C205.499 304.325 210.98 310.854 216.581 312.99C216.754 313.059 216.9 312.809 216.719 312.723C211.299 310.079 205.758 303.98 200.511 300.991C200.338 300.888 200.192 301.164 200.364 301.267Z" fill="url(#paint0_linear)"/>
<path d="M231.606 344.903H212.119L206.846 312.18H236.88L231.606 344.903Z" fill="#7FD2EF"/>
<path d="M231.589 344.903H225.686L230.976 312.18H236.88L231.589 344.903Z" fill="#46BFE0"/>
<path d="M263.548 60.9321H221.63C221.63 60.9321 221.647 60.355 222.044 59.4678C224.435 55.9621 225.703 54.2394 227.956 51.9568C232.306 50.6303 234.532 50.3375 241.066 49.278L248.445 48.8043C248.445 48.8043 257.817 50.9749 260.967 53.223C262.581 55.0577 263.643 57.547 263.548 60.9321Z" fill="#FECB22"/>
<path d="M249.653 60.9321H221.63C221.63 60.9321 221.656 60.355 222.044 59.4678C223.071 59.1405 224.366 59.1836 225.367 59.442C226.394 59.7176 227.076 59.8899 227.076 59.8899C227.076 59.8899 241.765 59.8899 245.303 59.8899C248.859 59.8985 249.653 60.9321 249.653 60.9321Z" fill="#F29127"/>
<path d="M246.537 41.9737C246.537 41.9737 246.891 39.9668 246.658 38.7523C246.425 37.5378 245.303 35.9184 245.191 35.9012C245.079 35.884 243.612 36.2285 243.638 36.2888C243.663 36.3491 243.638 38.468 243.638 38.468C243.638 38.468 244.164 41.5172 244.319 41.8273C244.475 42.1374 245.105 43.3691 245.182 43.3864C245.26 43.4036 245.899 43.1538 245.899 43.1538L246.537 41.9737Z" fill="#FDAEB3"/>
<path d="M242.74 52.9732C241.618 53.0421 240.591 52.2755 240.332 51.1816C240.246 50.8112 240.021 50.2858 239.745 49.7001C239.435 49.0024 239.063 48.2444 238.822 47.6156L241.281 45.824L246.529 41.9738C246.529 41.9738 247.185 46.8835 248.436 48.8129C248.445 48.8129 248.859 52.6287 242.74 52.9732Z" fill="#FDAEB3"/>
<path d="M243.94 44.9282C243.793 45.1608 241.627 48.4253 239.745 49.6915C239.435 48.9938 239.063 48.2358 238.822 47.607L241.281 45.8154L243.94 44.9282Z" fill="#E58099"/>
<path d="M245.579 39.7084C245.692 40.8454 245.726 41.8704 245.649 42.6112C245.64 42.7059 245.623 42.8179 245.597 42.9212C245.58 43.016 245.562 43.128 245.528 43.2399C244.699 46.5217 234.524 50.2944 234.213 50.0963C228.534 46.4528 226.558 32.9468 227.153 32.051C227.801 31.069 235.862 30.1302 236.026 30.1215C236.19 30.1043 243.94 30.6642 243.94 30.6642C243.94 30.6642 245.191 35.8495 245.579 39.7084Z" fill="#FDAEB3"/>
<path d="M223.442 28.8812C223.442 28.8812 223.693 34.7728 233.393 32.4213C236.06 31.7753 238.408 31.1724 239.728 31.8787C241.713 38.1063 241.774 41.0952 242.481 40.854C243.362 40.5439 240.98 35.3758 244.017 35.9357C246.339 36.3663 246.538 41.9824 246.538 41.9824C246.538 41.9824 246.736 42.4389 246.814 41.1296C246.866 40.3458 247.401 27.7097 245.476 25.0654C243.551 22.4124 240.807 24.0145 240.807 24.0145C240.807 24.0145 240.971 17.6233 231.788 22.3349C226.489 25.0568 223.926 23.2049 223.934 23.3685C223.96 23.5236 223.037 25.1774 223.442 28.8812Z" fill="#1D2468"/>
<path d="M236.552 103.293C236.552 103.293 235.922 104.034 235.37 104.465C234.817 104.896 234.584 104.896 233.808 105.094C233.022 105.292 232.358 106.101 232.125 106.377C231.9 106.653 232.125 106.782 232.608 106.679C233.091 106.575 233.704 106.196 233.911 106.196C234.11 106.196 234.11 106.437 233.911 106.885C233.713 107.333 233.152 108.057 232.824 108.315C232.496 108.565 231.59 109.073 231.486 109.375C231.382 109.676 231.46 109.831 231.943 109.676C232.427 109.521 232.979 109.125 233.557 108.815C233.868 108.651 234.015 108.47 234.17 108.341C234.36 108.393 235.033 108.548 235.508 108.479C235.749 108.444 235.965 108.324 236.138 108.203C236.207 108.186 236.276 108.177 236.336 108.16C236.768 107.988 236.992 106.498 237.217 106.093C237.441 105.688 239.357 104.224 239.357 104.224L236.552 103.293Z" fill="#FDAEB3"/>
<path d="M225.091 63.8176C224.841 63.7918 224.504 63.5334 224.081 63.0769C223.943 62.9391 223.753 62.7065 223.546 62.4653C223.356 62.3275 223.175 62.2069 223.028 62.1122C222.7 61.8796 222.355 61.8538 222.234 61.8538C222.208 61.8538 222.191 61.8538 222.191 61.8538V61.8365C220.206 61.7935 219.317 60.9321 216.883 60.9321C216.883 60.9321 222.571 58.2016 226.006 60.1397C226.36 60.1914 227.033 60.2861 227.456 60.2861C228.457 60.3033 228.163 60.8029 227.853 60.9666C227.74 61.0096 227.473 61.0527 227.179 61.0872C227.197 61.1044 227.205 61.113 227.231 61.1388C227.378 61.3025 227.516 61.4662 227.645 61.6126C228.086 62.1466 228.672 62.8443 228.785 62.9477C228.931 63.1286 228.836 63.2319 228.836 63.2319C229.052 63.5851 226.851 64.6876 225.091 63.8176Z" fill="#FDAEB3"/>
<path opacity="0.47" d="M227.853 60.9752C227.741 61.0183 227.473 61.0614 227.18 61.0958C227.18 61.0958 226.342 60.3206 226.006 60.1397C226.36 60.1914 227.033 60.2861 227.456 60.2861C228.457 60.3034 228.163 60.8116 227.853 60.9752Z" fill="url(#paint1_linear)"/>
<path d="M256.782 89.0122C256.782 89.0122 250.568 88.0906 250.102 86.9019C249.826 86.1956 249.912 80.5365 250.024 76.0747C250.042 75.1186 250.076 74.2142 250.102 73.4303C250.136 71.7162 250.18 70.5448 250.18 70.5448L261.796 71.6301C260.717 76.626 256.782 89.0122 256.782 89.0122Z" fill="#FDAEB3"/>
<path d="M250.102 86.8933C250.102 86.8933 247.021 89.2362 245.381 91.2001C244.354 92.4318 241.161 97.2812 238.71 100.632C237.243 102.647 235.862 104.017 235.862 104.017L237.398 105.533C237.398 105.533 243.759 101.347 248.997 97.4018C254.236 93.4568 255.841 92.0011 256.782 89.0036C257.723 86.0147 251.975 85.3773 250.102 86.8933Z" fill="#FDAEB3"/>
<path d="M249.653 60.9321L250.042 71.544C250.042 71.544 256.307 73.7318 261.943 72.3967C261.943 72.3967 265.499 63.9985 262.677 55.9621" fill="#FECB22"/>
<path d="M238.96 81.1998V58.8907" stroke="#192469" stroke-width="5.4139" stroke-miterlimit="10" stroke-linecap="round"/>
</g>
<defs>
<linearGradient id="paint0_linear" x1="222.11" y1="276.322" x2="223.625" y2="314.617" gradientUnits="userSpaceOnUse">
<stop offset="0.3656" stop-color="#86CF94"/>
<stop offset="0.9892" stop-color="#008166"/>
</linearGradient>
<linearGradient id="paint1_linear" x1="226.006" y1="60.6217" x2="228.147" y2="60.6217" gradientUnits="userSpaceOnUse">
<stop stop-color="#F7941E"/>
<stop offset="1" stop-color="#F7941E" stop-opacity="0"/>
</linearGradient>
<clipPath id="clip0">
<rect width="465" height="363" fill="white"/>
</clipPath>
</defs>
</svg>
