<svg width="38" height="38" viewBox="0 0 38 38" fill="none" xmlns="http://www.w3.org/2000/svg">
<path d="M36.1688 36.7546C36.257 36.6917 36.3383 36.6222 36.4144 36.5476C36.4181 36.5443 36.4221 36.5415 36.4255 36.5378C36.4286 36.5347 36.4314 36.531 36.4345 36.5279C36.8502 36.1106 37.0773 35.529 37.0795 34.8549C37.0807 34.4724 37.0097 34.0614 36.8685 33.6339L26.4866 2.15783C25.9372 0.49257 24.9699 0.186349 24.4424 0.152227C23.9146 0.117821 22.9159 0.296193 22.1555 1.87575L18.3599 9.75946L9.64578 6.19863C9.62464 6.18982 9.60321 6.18185 9.58178 6.17472C8.40503 5.77836 7.34539 5.93311 6.67484 6.59974C6.24639 7.0255 6.02578 7.61112 6.02365 8.28607C6.02245 8.66772 6.09117 9.07782 6.23154 9.50367C6.23881 9.52543 6.24637 9.54663 6.25505 9.56782L9.761 18.3044L1.85386 22.0501C0.342773 22.766 0.114239 23.7152 0.11266 24.2174C0.11125 24.666 0.303107 25.7748 2.10869 26.3829L33.5188 36.9628C34.5534 37.3113 35.4945 37.2375 36.1688 36.7546ZM24.2896 2.49616C24.3328 2.58211 24.3805 2.69461 24.4274 2.83704L34.3463 32.9075L17.4522 15.9071C17.9741 15.2906 18.4137 14.6455 18.7083 14.0333L24.1091 2.81599C24.1741 2.68098 24.2357 2.57588 24.2896 2.49616ZM8.28065 8.79479C8.16186 8.42038 8.18313 8.20845 8.20621 8.14078C8.27431 8.11812 8.48609 8.09818 8.85974 8.21933L17.4176 11.7164L16.7547 13.0928C16.1242 14.4029 14.4184 16.0977 13.1046 16.7203L11.7239 17.3745L8.28065 8.79479ZM2.80055 24.3283C2.65815 24.2805 2.54623 24.2321 2.46055 24.1884C2.54061 24.1347 2.6461 24.0735 2.78208 24.0093L14.0328 18.6795C14.6469 18.3887 15.2944 17.9532 15.9145 17.4351L32.8086 34.4361L2.80055 24.3283Z" fill="#F8A02E"/>
</svg>
